solid Calibration Cube
facet normal 0.0 0.0 -1.0
outer loop
vertex 57.75 13.8 5.0
vertex 52.25 13.8 5.0
vertex 52.25 16.2 5.0
endloop
endfacet
facet normal 2.56360589322536e-016 5.87493017197479e-016 -1.0
outer loop
vertex 57.75 13.8 5.0
vertex 52.25 16.2 5.0
vertex 57.75 16.2 5.0
endloop
endfacet
facet normal 0.311087556295296 0.950381256295715 7.49799865334389e-018
outer loop
vertex 46.1893084655867 7.47952523150779 10.0
vertex 45.507035409608 7.70285313944426 7.0
vertex 45.507035409608 7.70285313944426 10.0
endloop
endfacet
facet normal 0.311087556295296 0.950381256295715 7.49799865334389e-018
outer loop
vertex 46.1893084655867 7.47952523150779 10.0
vertex 46.1893084655867 7.47952523150779 7.0
vertex 45.507035409608 7.70285313944426 7.0
endloop
endfacet
facet normal 0.0545107356249892 0.998513184540706 -1.78414203492626e-018
outer loop
vertex 45.507035409608 7.70285313944426 10.0
vertex 44.7902087283801 7.7419860726036 7.0
vertex 44.7902087283801 7.7419860726036 10.0
endloop
endfacet
facet normal 0.0545107356249892 0.998513184540706 1.78414203492626e-018
outer loop
vertex 45.507035409608 7.70285313944426 10.0
vertex 45.507035409608 7.70285313944426 7.0
vertex 44.7902087283801 7.7419860726036 7.0
endloop
endfacet
facet normal 1.0 0.0 0.0
outer loop
vertex 57.75 16.2 10.0
vertex 57.75 13.8 10.0
vertex 57.75 13.8 5.0
endloop
endfacet
facet normal 1.0 0.0 0.0
outer loop
vertex 57.75 16.2 5.0
vertex 57.75 16.2 10.0
vertex 57.75 13.8 5.0
endloop
endfacet
facet normal -0.978598089380307 -0.20578090159491 0.0
outer loop
vertex 42.2580139273964 4.79020872838009 7.0
vertex 42.4057428137388 4.08767897561663 10.0
vertex 42.2580139273964 4.79020872838009 10.0
endloop
endfacet
facet normal -0.978598089380307 -0.20578090159491 0.0
outer loop
vertex 42.2580139273964 4.79020872838009 7.0
vertex 42.4057428137388 4.08767897561663 7.0
vertex 42.4057428137388 4.08767897561663 10.0
endloop
endfacet
facet normal -0.998513184540706 0.0545107356249901 1.78414203492625e-018
outer loop
vertex 42.2971468605557 5.50703540960798 7.0
vertex 42.2580139273964 4.79020872838009 10.0
vertex 42.2971468605557 5.50703540960798 10.0
endloop
endfacet
facet normal -0.998513184540706 0.0545107356249901 0.0
outer loop
vertex 42.2971468605557 5.50703540960798 7.0
vertex 42.2580139273964 4.79020872838009 7.0
vertex 42.2580139273964 4.79020872838009 10.0
endloop
endfacet
facet normal -0.837482416013456 0.546464274100571 0.0
outer loop
vertex 42.9127782233467 6.79053211506088 7.0
vertex 42.5204747684922 6.18930846558671 7.0
vertex 42.5204747684922 6.18930846558671 10.0
endloop
endfacet
facet normal -0.837482416013456 0.546464274100571 -8.50878447548692e-018
outer loop
vertex 42.9127782233467 6.79053211506088 7.0
vertex 42.5204747684922 6.18930846558671 10.0
vertex 42.9127782233467 6.79053211506088 10.0
endloop
endfacet
facet normal 0.546464274100572 0.837482416013456 1.70175689509739e-017
outer loop
vertex 46.7905321150609 7.08722177665326 10.0
vertex 46.7905321150609 7.08722177665326 7.0
vertex 46.1893084655867 7.47952523150779 7.0
endloop
endfacet
facet normal 0.546464274100572 0.837482416013456 -8.50878447548696e-018
outer loop
vertex 46.7905321150609 7.08722177665326 10.0
vertex 46.1893084655867 7.47952523150779 7.0
vertex 46.1893084655867 7.47952523150779 10.0
endloop
endfacet
facet normal -0.667510533085011 0.744600354700805 -1.91403545133468e-017
outer loop
vertex 43.4473223929831 7.26973395988788 10.0
vertex 43.4473223929831 7.26973395988788 7.0
vertex 42.9127782233467 6.79053211506088 7.0
endloop
endfacet
facet normal -0.667510533085011 0.744600354700805 -9.57017725667342e-018
outer loop
vertex 43.4473223929831 7.26973395988788 10.0
vertex 42.9127782233467 6.79053211506088 7.0
vertex 42.9127782233467 6.79053211506088 10.0
endloop
endfacet
facet normal -0.20578090159491 0.978598089380306 -3.6409009261305e-018
outer loop
vertex 44.7902087283801 7.7419860726036 10.0
vertex 44.0876789756166 7.59425718626124 7.0
vertex 44.0876789756166 7.59425718626124 10.0
endloop
endfacet
facet normal -0.20578090159491 0.978598089380306 3.6409009261305e-018
outer loop
vertex 44.7902087283801 7.7419860726036 10.0
vertex 44.7902087283801 7.7419860726036 7.0
vertex 44.0876789756166 7.59425718626124 7.0
endloop
endfacet
facet normal 0.744600354700805 0.667510533085011 1.91403545133468e-017
outer loop
vertex 46.7905321150609 7.08722177665326 10.0
vertex 47.2697339598879 6.55267760701688 7.0
vertex 46.7905321150609 7.08722177665326 7.0
endloop
endfacet
facet normal 0.744600354700806 0.66751053308501 1.91403545133468e-017
outer loop
vertex 46.7905321150609 7.08722177665326 10.0
vertex 47.2697339598879 6.55267760701688 10.0
vertex 47.2697339598879 6.55267760701688 7.0
endloop
endfacet
facet normal 0.891993151638446 0.452048910440134 2.39664083747033e-017
outer loop
vertex 47.2697339598879 6.55267760701688 10.0
vertex 47.5942571862612 5.91232102438337 7.0
vertex 47.2697339598879 6.55267760701688 7.0
endloop
endfacet
facet normal 0.891993151638446 0.452048910440134 1.59776055831355e-017
outer loop
vertex 47.2697339598879 6.55267760701688 10.0
vertex 47.5942571862612 5.91232102438337 10.0
vertex 47.5942571862612 5.91232102438337 7.0
endloop
endfacet
facet normal 0.978598089380306 0.20578090159491 3.6409009261305e-018
outer loop
vertex 47.5942571862612 5.91232102438337 10.0
vertex 47.7419860726036 5.20979127161991 10.0
vertex 47.7419860726036 5.20979127161991 7.0
endloop
endfacet
facet normal 0.978598089380306 0.20578090159491 -3.6409009261305e-018
outer loop
vertex 47.5942571862612 5.91232102438337 10.0
vertex 47.7419860726036 5.20979127161991 7.0
vertex 47.5942571862612 5.91232102438337 7.0
endloop
endfacet
facet normal 0.998513184540706 -0.0545107356249891 -1.78414203492625e-018
outer loop
vertex 47.7419860726036 5.20979127161991 10.0
vertex 47.7028531394443 4.49296459039202 7.0
vertex 47.7419860726036 5.20979127161991 7.0
endloop
endfacet
facet normal 0.998513184540706 -0.0545107356249891 -1.78414203492625e-018
outer loop
vertex 47.7419860726036 5.20979127161991 10.0
vertex 47.7028531394443 4.49296459039202 10.0
vertex 47.7028531394443 4.49296459039202 7.0
endloop
endfacet
facet normal -0.452048910440134 0.891993151638446 -7.98880279156777e-018
outer loop
vertex 44.0876789756166 7.59425718626124 10.0
vertex 43.4473223929831 7.26973395988788 7.0
vertex 43.4473223929831 7.26973395988788 10.0
endloop
endfacet
facet normal -0.452048910440134 0.891993151638446 7.98880279156777e-018
outer loop
vertex 44.0876789756166 7.59425718626124 10.0
vertex 44.0876789756166 7.59425718626124 7.0
vertex 43.4473223929831 7.26973395988788 7.0
endloop
endfacet
facet normal -0.311087556295297 -0.950381256295715 0.0
outer loop
vertex 43.8106915344133 2.52047476849221 10.0
vertex 44.492964590392 2.29714686055574 7.0
vertex 44.492964590392 2.29714686055574 10.0
endloop
endfacet
facet normal -0.311087556295297 -0.950381256295715 0.0
outer loop
vertex 43.8106915344133 2.52047476849221 10.0
vertex 43.8106915344133 2.52047476849221 7.0
vertex 44.492964590392 2.29714686055574 7.0
endloop
endfacet
facet normal -1.0 0.0 0.0
outer loop
vertex 52.25 16.2 10.0
vertex 52.25 13.8 5.0
vertex 52.25 13.8 10.0
endloop
endfacet
facet normal -1.0 0.0 0.0
outer loop
vertex 52.25 16.2 5.0
vertex 52.25 13.8 5.0
vertex 52.25 16.2 10.0
endloop
endfacet
facet normal -1.0 0.0 0.0
outer loop
vertex 60.0 20.0 0.0
vertex 60.0 0.0 10.0
vertex 60.0 20.0 10.0
endloop
endfacet
facet normal -1.0 0.0 0.0
outer loop
vertex 60.0 20.0 0.0
vertex 60.0 0.0 0.0
vertex 60.0 0.0 10.0
endloop
endfacet
facet normal 0.0 1.0 0.0
outer loop
vertex 60.0 0.0 10.0
vertex 40.0 0.0 0.0
vertex 40.0 0.0 10.0
endloop
endfacet
facet normal 0.0 1.0 0.0
outer loop
vertex 60.0 0.0 10.0
vertex 60.0 0.0 0.0
vertex 40.0 0.0 0.0
endloop
endfacet
facet normal -0.950381256295715 0.311087556295296 -1.49959973066879e-017
outer loop
vertex 42.5204747684922 6.18930846558671 7.0
vertex 42.2971468605557 5.50703540960798 10.0
vertex 42.5204747684922 6.18930846558671 10.0
endloop
endfacet
facet normal -0.950381256295715 0.311087556295296 -7.49799865334395e-018
outer loop
vertex 42.5204747684922 6.18930846558671 7.0
vertex 42.2971468605557 5.50703540960798 7.0
vertex 42.2971468605557 5.50703540960798 10.0
endloop
endfacet
facet normal 8.3491651315495e-032 2.0434539728608e-016 -1.0
outer loop
vertex 60.0 0.0 10.0
vertex 52.25 13.8 10.0
vertex 57.75 13.8 10.0
endloop
endfacet
facet normal -1.65696679587989e-016 7.87976205783485e-016 -1.0
outer loop
vertex 60.0 0.0 10.0
vertex 45.2097912716199 2.2580139273964 10.0
vertex 45.9123210243834 2.40574281373876 10.0
endloop
endfacet
facet normal 1.40476348632566e-016 -2.8924505573657e-016 -1.0
outer loop
vertex 52.25 16.2 10.0
vertex 42.9127782233467 6.79053211506088 10.0
vertex 40.0 20.0 10.0
endloop
endfacet
facet normal -2.81865433596004e-016 1.83919550570722e-016 -1.0
outer loop
vertex 60.0 0.0 10.0
vertex 47.0872217766533 3.20946788493912 10.0
vertex 47.4795252315078 3.81069153441329 10.0
endloop
endfacet
facet normal 3.67476190909516e-016 1.12265012504657e-015 -1.0
outer loop
vertex 44.492964590392 2.29714686055574 10.0
vertex 40.0 0.0 10.0
vertex 43.8106915344133 2.52047476849221 10.0
endloop
endfacet
facet normal 1.21662304922091e-015 -1.35712907749835e-015 -1.0
outer loop
vertex 52.25 16.2 10.0
vertex 43.4473223929831 7.26973395988788 10.0
vertex 42.9127782233467 6.79053211506088 10.0
endloop
endfacet
facet normal -2.06771226332845e-016 -4.34801271741704e-017 -1.0
outer loop
vertex 52.25 16.2 10.0
vertex 47.7419860726036 5.20979127161991 10.0
vertex 47.5942571862612 5.91232102438337 10.0
endloop
endfacet
facet normal 1.36964917858713e-015 -7.47717560757747e-017 -1.0
outer loop
vertex 42.2971468605557 5.50703540960798 10.0
vertex 42.2580139273964 4.79020872838009 10.0
vertex 40.0 20.0 10.0
endloop
endfacet
facet normal -3.07234409392495e-016 1.00566799896989e-016 -1.0
outer loop
vertex 60.0 0.0 10.0
vertex 47.4795252315078 3.81069153441329 10.0
vertex 47.7028531394443 4.49296459039202 10.0
endloop
endfacet
facet normal 1.59191282425253e-016 2.9160236519096e-015 -1.0
outer loop
vertex 60.0 0.0 10.0
vertex 44.492964590392 2.29714686055574 10.0
vertex 45.2097912716199 2.2580139273964 10.0
endloop
endfacet
facet normal 9.44750803716757e-016 4.78785706676269e-016 -1.0
outer loop
vertex 42.7302660401121 3.44732239298312 10.0
vertex 40.0 0.0 10.0
vertex 42.4057428137388 4.08767897561663 10.0
endloop
endfacet
facet normal -3.37251310511707e-016 1.84111910700084e-017 -1.0
outer loop
vertex 60.0 0.0 10.0
vertex 47.7028531394443 4.49296459039202 10.0
vertex 47.7419860726036 5.20979127161991 10.0
endloop
endfacet
facet normal 1.29542240558044e-015 2.72403138182486e-016 -1.0
outer loop
vertex 42.4057428137388 4.08767897561663 10.0
vertex 40.0 0.0 10.0
vertex 42.2580139273964 4.79020872838009 10.0
endloop
endfacet
facet normal -7.25851403802181e-017 -1.11240169967843e-016 -1.0
outer loop
vertex 52.25 16.2 10.0
vertex 46.7905321150609 7.08722177665326 10.0
vertex 46.1893084655867 7.47952523150779 10.0
endloop
endfacet
facet normal -3.12772600968488e-016 0.0 -1.0
outer loop
vertex 52.25 13.8 10.0
vertex 47.7419860726036 5.20979127161991 10.0
vertex 52.25 16.2 10.0
endloop
endfacet
facet normal -3.39185214416753e-016 1.38609471607289e-017 -1.0
outer loop
vertex 60.0 0.0 10.0
vertex 47.7419860726036 5.20979127161991 10.0
vertex 52.25 13.8 10.0
endloop
endfacet
facet normal 1.87330541787188e-015 0.0 -1.0
outer loop
vertex 42.2580139273964 4.79020872838009 10.0
vertex 40.0 0.0 10.0
vertex 40.0 20.0 10.0
endloop
endfacet
facet normal 7.26710463820306e-016 6.51472814968061e-016 -1.0
outer loop
vertex 43.2094678849391 2.91277822334674 10.0
vertex 40.0 0.0 10.0
vertex 42.7302660401121 3.44732239298312 10.0
endloop
endfacet
facet normal -8.68262019864877e-018 -1.59045931875802e-016 -1.0
outer loop
vertex 52.25 16.2 10.0
vertex 45.507035409608 7.70285313944426 10.0
vertex 44.7902087283801 7.7419860726036 10.0
endloop
endfacet
facet normal 6.00749756210516e-016 -1.9664294972835e-016 -1.0
outer loop
vertex 42.5204747684922 6.18930846558671 10.0
vertex 42.2971468605557 5.50703540960798 10.0
vertex 40.0 20.0 10.0
endloop
endfacet
facet normal 4.30363893277342e-017 -2.04661015884123e-016 -1.0
outer loop
vertex 52.25 16.2 10.0
vertex 44.7902087283801 7.7419860726036 10.0
vertex 44.0876789756166 7.59425718626124 10.0
endloop
endfacet
facet normal 1.59885146067721e-016 -3.15488992556748e-016 -1.0
outer loop
vertex 52.25 16.2 10.0
vertex 44.0876789756166 7.59425718626124 10.0
vertex 43.4473223929831 7.26973395988788 10.0
endloop
endfacet
facet normal 2.11497486191092e-016 -6.02953359755307e-017 -1.0
outer loop
vertex 60.0 20.0 10.0
vertex 52.25 16.2 10.0
vertex 40.0 20.0 10.0
endloop
endfacet
facet normal 3.66798939616533e-016 -2.39339372917875e-016 -1.0
outer loop
vertex 42.9127782233467 6.79053211506088 10.0
vertex 42.5204747684922 6.18930846558671 10.0
vertex 40.0 20.0 10.0
endloop
endfacet
facet normal -4.31161325095195e-017 -1.3172100057294e-016 -1.0
outer loop
vertex 52.25 16.2 10.0
vertex 46.1893084655867 7.47952523150779 10.0
vertex 45.507035409608 7.70285313944426 10.0
endloop
endfacet
facet normal 1.42419384969316e-032 1.84139281491063e-015 -1.0
outer loop
vertex 60.0 0.0 10.0
vertex 40.0 0.0 10.0
vertex 44.492964590392 2.29714686055574 10.0
endloop
endfacet
facet normal 2.34997206878993e-015 5.87493017197484e-016 -1.0
outer loop
vertex 60.0 0.0 10.0
vertex 57.75 13.8 10.0
vertex 57.75 16.2 10.0
endloop
endfacet
facet normal 2.56360589322536e-016 -1.51792454204133e-016 -1.0
outer loop
vertex 60.0 20.0 10.0
vertex 57.75 16.2 10.0
vertex 52.25 16.2 10.0
endloop
endfacet
facet normal -2.24582264264042e-016 4.43150811950715e-016 -1.0
outer loop
vertex 60.0 0.0 10.0
vertex 45.9123210243834 2.40574281373876 10.0
vertex 46.5526776070169 2.73026604011212 10.0
endloop
endfacet
facet normal -3.57195754456067e-016 2.11497486191092e-016 -1.0
outer loop
vertex 60.0 0.0 10.0
vertex 57.75 16.2 10.0
vertex 60.0 20.0 10.0
endloop
endfacet
facet normal -2.56470904590581e-016 2.86090356725898e-016 -1.0
outer loop
vertex 60.0 0.0 10.0
vertex 46.5526776070169 2.73026604011212 10.0
vertex 47.0872217766533 3.20946788493912 10.0
endloop
endfacet
facet normal -1.42864331430592e-016 -7.24015260042408e-017 -1.0
outer loop
vertex 52.25 16.2 10.0
vertex 47.5942571862612 5.91232102438337 10.0
vertex 47.2697339598879 6.55267760701688 10.0
endloop
endfacet
facet normal -1.03456278479399e-016 -9.27452628283036e-017 -1.0
outer loop
vertex 52.25 16.2 10.0
vertex 47.2697339598879 6.55267760701688 10.0
vertex 46.7905321150609 7.08722177665326 10.0
endloop
endfacet
facet normal 5.51245656177451e-016 8.44810110802312e-016 -1.0
outer loop
vertex 43.8106915344133 2.52047476849221 10.0
vertex 40.0 0.0 10.0
vertex 43.2094678849391 2.91277822334674 10.0
endloop
endfacet
facet normal 1.0 0.0 0.0
outer loop
vertex 40.0 20.0 10.0
vertex 40.0 0.0 0.0
vertex 40.0 20.0 0.0
endloop
endfacet
facet normal 1.0 0.0 0.0
outer loop
vertex 40.0 20.0 10.0
vertex 40.0 0.0 10.0
vertex 40.0 0.0 0.0
endloop
endfacet
facet normal 0.0 -1.0 0.0
outer loop
vertex 60.0 20.0 10.0
vertex 40.0 20.0 10.0
vertex 60.0 20.0 0.0
endloop
endfacet
facet normal 0.0 -1.0 0.0
outer loop
vertex 40.0 20.0 10.0
vertex 40.0 20.0 0.0
vertex 60.0 20.0 0.0
endloop
endfacet
facet normal 0.667510533085011 -0.744600354700805 -1.91403545133468e-017
outer loop
vertex 46.5526776070169 2.73026604011212 10.0
vertex 46.5526776070169 2.73026604011212 7.0
vertex 47.0872217766533 3.20946788493912 7.0
endloop
endfacet
facet normal 0.667510533085011 -0.744600354700805 -9.57017725667338e-018
outer loop
vertex 46.5526776070169 2.73026604011212 10.0
vertex 47.0872217766533 3.20946788493912 7.0
vertex 47.0872217766533 3.20946788493912 10.0
endloop
endfacet
facet normal -3.97503751913072e-032 -1.0 -5.6399329650958e-016
outer loop
vertex 52.25 13.8 10.0
vertex 52.25 13.8 5.0
vertex 57.75 13.8 5.0
endloop
endfacet
facet normal 0.0 -1.0 -5.6399329650958e-016
outer loop
vertex 52.25 13.8 10.0
vertex 57.75 13.8 5.0
vertex 57.75 13.8 10.0
endloop
endfacet
facet normal 0.950381256295715 -0.311087556295297 0.0
outer loop
vertex 47.7028531394443 4.49296459039202 10.0
vertex 47.4795252315078 3.81069153441329 10.0
vertex 47.4795252315078 3.81069153441329 7.0
endloop
endfacet
facet normal 0.950381256295715 -0.311087556295297 0.0
outer loop
vertex 47.7028531394443 4.49296459039202 10.0
vertex 47.4795252315078 3.81069153441329 7.0
vertex 47.7028531394443 4.49296459039202 7.0
endloop
endfacet
facet normal 0.837482416013455 -0.546464274100573 8.50878447548693e-018
outer loop
vertex 47.4795252315078 3.81069153441329 10.0
vertex 47.0872217766533 3.20946788493912 7.0
vertex 47.4795252315078 3.81069153441329 7.0
endloop
endfacet
facet normal 0.837482416013455 -0.546464274100573 1.70175689509739e-017
outer loop
vertex 47.4795252315078 3.81069153441329 10.0
vertex 47.0872217766533 3.20946788493912 10.0
vertex 47.0872217766533 3.20946788493912 7.0
endloop
endfacet
facet normal 0.452048910440134 -0.891993151638446 0.0
outer loop
vertex 45.9123210243834 2.40574281373876 10.0
vertex 46.5526776070169 2.73026604011212 7.0
vertex 46.5526776070169 2.73026604011212 10.0
endloop
endfacet
facet normal 0.452048910440134 -0.891993151638446 -7.98880279156781e-018
outer loop
vertex 45.9123210243834 2.40574281373876 10.0
vertex 45.9123210243834 2.40574281373876 7.0
vertex 46.5526776070169 2.73026604011212 7.0
endloop
endfacet
facet normal 0.205780901594909 -0.978598089380307 -7.281801852261e-018
outer loop
vertex 45.2097912716199 2.2580139273964 10.0
vertex 45.9123210243834 2.40574281373876 7.0
vertex 45.9123210243834 2.40574281373876 10.0
endloop
endfacet
facet normal 0.205780901594909 -0.978598089380307 3.6409009261305e-018
outer loop
vertex 45.2097912716199 2.2580139273964 10.0
vertex 45.2097912716199 2.2580139273964 7.0
vertex 45.9123210243834 2.40574281373876 7.0
endloop
endfacet
facet normal -0.0545107356249896 -0.998513184540706 -1.78414203492625e-018
outer loop
vertex 44.492964590392 2.29714686055574 10.0
vertex 45.2097912716199 2.2580139273964 7.0
vertex 45.2097912716199 2.2580139273964 10.0
endloop
endfacet
facet normal -0.0545107356249896 -0.998513184540706 -1.78414203492625e-018
outer loop
vertex 44.492964590392 2.29714686055574 10.0
vertex 44.492964590392 2.29714686055574 7.0
vertex 45.2097912716199 2.2580139273964 7.0
endloop
endfacet
facet normal -3.97503751913071e-032 1.0 5.6399329650958e-016
outer loop
vertex 57.75 16.2 10.0
vertex 57.75 16.2 5.0
vertex 52.25 16.2 10.0
endloop
endfacet
facet normal 0.0 1.0 5.6399329650958e-016
outer loop
vertex 52.25 16.2 10.0
vertex 57.75 16.2 5.0
vertex 52.25 16.2 5.0
endloop
endfacet
facet normal -0.546464274100572 -0.837482416013456 0.0
outer loop
vertex 43.2094678849391 2.91277822334674 10.0
vertex 43.2094678849391 2.91277822334674 7.0
vertex 43.8106915344133 2.52047476849221 7.0
endloop
endfacet
facet normal -0.546464274100572 -0.837482416013456 -8.50878447548696e-018
outer loop
vertex 43.2094678849391 2.91277822334674 10.0
vertex 43.8106915344133 2.52047476849221 7.0
vertex 43.8106915344133 2.52047476849221 10.0
endloop
endfacet
facet normal -0.744600354700805 -0.667510533085011 -1.91403545133467e-017
outer loop
vertex 42.7302660401121 3.44732239298312 7.0
vertex 43.2094678849391 2.91277822334674 10.0
vertex 42.7302660401121 3.44732239298312 10.0
endloop
endfacet
facet normal -0.744600354700805 -0.667510533085011 9.57017725667337e-018
outer loop
vertex 42.7302660401121 3.44732239298312 7.0
vertex 43.2094678849391 2.91277822334674 7.0
vertex 43.2094678849391 2.91277822334674 10.0
endloop
endfacet
facet normal -0.891993151638446 -0.452048910440134 -2.39664083747034e-017
outer loop
vertex 42.4057428137388 4.08767897561663 7.0
vertex 42.7302660401121 3.44732239298312 10.0
vertex 42.4057428137388 4.08767897561663 10.0
endloop
endfacet
facet normal -0.891993151638446 -0.452048910440134 -2.39664083747034e-017
outer loop
vertex 42.4057428137388 4.08767897561663 7.0
vertex 42.7302660401121 3.44732239298312 7.0
vertex 42.7302660401121 3.44732239298312 10.0
endloop
endfacet
facet normal 0.0 0.0 -1.0
outer loop
vertex 42.4057428137388 4.08767897561663 7.0
vertex 42.2580139273964 4.79020872838009 7.0
vertex 42.2971468605557 5.50703540960798 7.0
endloop
endfacet
facet normal 0.0 0.0 -1.0
outer loop
vertex 42.5204747684922 6.18930846558671 7.0
vertex 42.4057428137388 4.08767897561663 7.0
vertex 42.2971468605557 5.50703540960798 7.0
endloop
endfacet
facet normal 0.0 0.0 -1.0
outer loop
vertex 42.7302660401121 3.44732239298312 7.0
vertex 42.4057428137388 4.08767897561663 7.0
vertex 42.5204747684922 6.18930846558671 7.0
endloop
endfacet
facet normal 0.0 0.0 -1.0
outer loop
vertex 42.9127782233467 6.79053211506088 7.0
vertex 42.7302660401121 3.44732239298312 7.0
vertex 42.5204747684922 6.18930846558671 7.0
endloop
endfacet
facet normal 0.0 0.0 -1.0
outer loop
vertex 43.2094678849391 2.91277822334674 7.0
vertex 42.7302660401121 3.44732239298312 7.0
vertex 42.9127782233467 6.79053211506088 7.0
endloop
endfacet
facet normal 0.0 0.0 -1.0
outer loop
vertex 43.4473223929831 7.26973395988788 7.0
vertex 43.2094678849391 2.91277822334674 7.0
vertex 42.9127782233467 6.79053211506088 7.0
endloop
endfacet
facet normal 0.0 0.0 -1.0
outer loop
vertex 43.4473223929831 7.26973395988788 7.0
vertex 43.5083709679652 4.84175073209964 7.0
vertex 43.2094678849391 2.91277822334674 7.0
endloop
endfacet
facet normal 0.0 0.0 -1.0
outer loop
vertex 43.5083709679652 4.84175073209964 7.0
vertex 43.4473223929831 7.26973395988788 7.0
vertex 43.5182390703089 5.23320494686214 7.0
endloop
endfacet
facet normal 0.0 0.0 -1.0
outer loop
vertex 43.8106915344133 2.52047476849221 7.0
vertex 43.2094678849391 2.91277822334674 7.0
vertex 43.5083709679652 4.84175073209964 7.0
endloop
endfacet
facet normal 0.0 0.0 -1.0
outer loop
vertex 43.8106915344133 2.52047476849221 7.0
vertex 43.5083709679652 4.84175073209964 7.0
vertex 43.6001549191212 4.46108094342526 7.0
endloop
endfacet
facet normal 0.0 0.0 -1.0
outer loop
vertex 43.8106915344133 2.52047476849221 7.0
vertex 43.6001549191212 4.46108094342526 7.0
vertex 43.7873359991857 4.11713759785061 7.0
endloop
endfacet
facet normal 0.0 0.0 -1.0
outer loop
vertex 44.0571581268836 3.83335986598333 7.0
vertex 43.8106915344133 2.52047476849221 7.0
vertex 43.7873359991857 4.11713759785061 7.0
endloop
endfacet
facet normal 0.0 0.0 -1.0
outer loop
vertex 44.492964590392 2.29714686055574 7.0
vertex 43.8106915344133 2.52047476849221 7.0
vertex 44.0571581268836 3.83335986598333 7.0
endloop
endfacet
facet normal 0.0 0.0 -1.0
outer loop
vertex 44.492964590392 2.29714686055574 7.0
vertex 44.0571581268836 3.83335986598333 7.0
vertex 44.3912333701146 3.62908673128531 7.0
endloop
endfacet
facet normal 0.0 0.0 -1.0
outer loop
vertex 44.7667950531379 3.5182390703089 7.0
vertex 44.492964590392 2.29714686055574 7.0
vertex 44.3912333701146 3.62908673128531 7.0
endloop
endfacet
facet normal 0.0 0.0 -1.0
outer loop
vertex 45.2097912716199 2.2580139273964 7.0
vertex 44.492964590392 2.29714686055574 7.0
vertex 44.7667950531379 3.5182390703089 7.0
endloop
endfacet
facet normal 0.0 0.0 -1.0
outer loop
vertex 45.2097912716199 2.2580139273964 7.0
vertex 44.7667950531379 3.5182390703089 7.0
vertex 45.1582492679004 3.50837096796522 7.0
endloop
endfacet
facet normal 0.0 0.0 -1.0
outer loop
vertex 45.5389190565747 3.60015491912119 7.0
vertex 45.2097912716199 2.2580139273964 7.0
vertex 45.1582492679004 3.50837096796522 7.0
endloop
endfacet
facet normal 0.0 0.0 -1.0
outer loop
vertex 45.9123210243834 2.40574281373876 7.0
vertex 45.2097912716199 2.2580139273964 7.0
vertex 45.5389190565747 3.60015491912119 7.0
endloop
endfacet
facet normal 0.0 0.0 -1.0
outer loop
vertex 45.9123210243834 2.40574281373876 7.0
vertex 45.5389190565747 3.60015491912119 7.0
vertex 45.8828624021494 3.78733599918567 7.0
endloop
endfacet
facet normal 0.0 0.0 -1.0
outer loop
vertex 46.1666401340167 4.05715812688364 7.0
vertex 45.9123210243834 2.40574281373876 7.0
vertex 45.8828624021494 3.78733599918567 7.0
endloop
endfacet
facet normal 0.0 0.0 -1.0
outer loop
vertex 46.5526776070169 2.73026604011212 7.0
vertex 45.9123210243834 2.40574281373876 7.0
vertex 46.1666401340167 4.05715812688364 7.0
endloop
endfacet
facet normal 0.0 0.0 -1.0
outer loop
vertex 46.5526776070169 2.73026604011212 7.0
vertex 46.1666401340167 4.05715812688364 7.0
vertex 46.3709132687147 4.39123337011462 7.0
endloop
endfacet
facet normal 0.0 0.0 -1.0
outer loop
vertex 46.5526776070169 2.73026604011212 7.0
vertex 46.3709132687147 4.39123337011462 7.0
vertex 46.4817609296911 4.76679505313786 7.0
endloop
endfacet
facet normal 0.0 0.0 -1.0
outer loop
vertex 44.0876789756166 7.59425718626124 7.0
vertex 43.5182390703089 5.23320494686214 7.0
vertex 43.4473223929831 7.26973395988788 7.0
endloop
endfacet
facet normal 0.0 0.0 -1.0
outer loop
vertex 43.5182390703089 5.23320494686214 7.0
vertex 44.0876789756166 7.59425718626124 7.0
vertex 43.6290867312853 5.60876662988538 7.0
endloop
endfacet
facet normal 0.0 0.0 -1.0
outer loop
vertex 44.0876789756166 7.59425718626124 7.0
vertex 43.8333598659833 5.94284187311636 7.0
vertex 43.6290867312853 5.60876662988538 7.0
endloop
endfacet
facet normal 0.0 0.0 -1.0
outer loop
vertex 44.1171375978506 6.21266400081433 7.0
vertex 43.8333598659833 5.94284187311636 7.0
vertex 44.0876789756166 7.59425718626124 7.0
endloop
endfacet
facet normal 0.0 0.0 -1.0
outer loop
vertex 44.7902087283801 7.7419860726036 7.0
vertex 44.1171375978506 6.21266400081433 7.0
vertex 44.0876789756166 7.59425718626124 7.0
endloop
endfacet
facet normal 0.0 0.0 -1.0
outer loop
vertex 44.7902087283801 7.7419860726036 7.0
vertex 44.4610809434253 6.39984508087881 7.0
vertex 44.1171375978506 6.21266400081433 7.0
endloop
endfacet
facet normal 0.0 0.0 -1.0
outer loop
vertex 44.8417507320996 6.49162903203478 7.0
vertex 44.4610809434253 6.39984508087881 7.0
vertex 44.7902087283801 7.7419860726036 7.0
endloop
endfacet
facet normal 0.0 0.0 -1.0
outer loop
vertex 45.507035409608 7.70285313944426 7.0
vertex 44.8417507320996 6.49162903203478 7.0
vertex 44.7902087283801 7.7419860726036 7.0
endloop
endfacet
facet normal 0.0 0.0 -1.0
outer loop
vertex 45.507035409608 7.70285313944426 7.0
vertex 45.2332049468621 6.4817609296911 7.0
vertex 44.8417507320996 6.49162903203478 7.0
endloop
endfacet
facet normal 0.0 0.0 -1.0
outer loop
vertex 45.6087666298854 6.37091326871469 7.0
vertex 45.2332049468621 6.4817609296911 7.0
vertex 45.507035409608 7.70285313944426 7.0
endloop
endfacet
facet normal 0.0 0.0 -1.0
outer loop
vertex 46.1893084655867 7.47952523150779 7.0
vertex 45.6087666298854 6.37091326871469 7.0
vertex 45.507035409608 7.70285313944426 7.0
endloop
endfacet
facet normal 0.0 0.0 -1.0
outer loop
vertex 46.1893084655867 7.47952523150779 7.0
vertex 45.9428418731164 6.16664013401667 7.0
vertex 45.6087666298854 6.37091326871469 7.0
endloop
endfacet
facet normal 0.0 0.0 -1.0
outer loop
vertex 46.2126640008143 5.88286240214939 7.0
vertex 45.9428418731164 6.16664013401667 7.0
vertex 46.1893084655867 7.47952523150779 7.0
endloop
endfacet
facet normal 0.0 0.0 -1.0
outer loop
vertex 46.7905321150609 7.08722177665326 7.0
vertex 46.2126640008143 5.88286240214939 7.0
vertex 46.1893084655867 7.47952523150779 7.0
endloop
endfacet
facet normal 0.0 0.0 -1.0
outer loop
vertex 46.7905321150609 7.08722177665326 7.0
vertex 46.3998450808788 5.53891905657474 7.0
vertex 46.2126640008143 5.88286240214939 7.0
endloop
endfacet
facet normal 0.0 0.0 -1.0
outer loop
vertex 46.7905321150609 7.08722177665326 7.0
vertex 46.4916290320348 5.15824926790036 7.0
vertex 46.3998450808788 5.53891905657474 7.0
endloop
endfacet
facet normal 0.0 0.0 -1.0
outer loop
vertex 46.4916290320348 5.15824926790036 7.0
vertex 46.5526776070169 2.73026604011212 7.0
vertex 46.4817609296911 4.76679505313786 7.0
endloop
endfacet
facet normal 0.0 0.0 -1.0
outer loop
vertex 46.5526776070169 2.73026604011212 7.0
vertex 46.4916290320348 5.15824926790036 7.0
vertex 46.7905321150609 7.08722177665326 7.0
endloop
endfacet
facet normal 0.0 0.0 -1.0
outer loop
vertex 47.0872217766533 3.20946788493912 7.0
vertex 46.5526776070169 2.73026604011212 7.0
vertex 46.7905321150609 7.08722177665326 7.0
endloop
endfacet
facet normal 0.0 0.0 -1.0
outer loop
vertex 47.2697339598879 6.55267760701688 7.0
vertex 47.0872217766533 3.20946788493912 7.0
vertex 46.7905321150609 7.08722177665326 7.0
endloop
endfacet
facet normal 0.0 0.0 -1.0
outer loop
vertex 47.4795252315078 3.81069153441329 7.0
vertex 47.0872217766533 3.20946788493912 7.0
vertex 47.2697339598879 6.55267760701688 7.0
endloop
endfacet
facet normal 0.0 0.0 -1.0
outer loop
vertex 47.5942571862612 5.91232102438337 7.0
vertex 47.4795252315078 3.81069153441329 7.0
vertex 47.2697339598879 6.55267760701688 7.0
endloop
endfacet
facet normal 0.0 0.0 -1.0
outer loop
vertex 47.7028531394443 4.49296459039202 7.0
vertex 47.4795252315078 3.81069153441329 7.0
vertex 47.5942571862612 5.91232102438337 7.0
endloop
endfacet
facet normal 0.0 0.0 -1.0
outer loop
vertex 47.7419860726036 5.20979127161991 7.0
vertex 47.7028531394443 4.49296459039202 7.0
vertex 47.5942571862612 5.91232102438337 7.0
endloop
endfacet
facet normal -0.234394720821576 0.972141509684149 4.63838610813905e-017
outer loop
vertex 44.8417507320996 6.49162903203478 7.0
vertex 44.8417507320996 6.49162903203478 4.22994972382185e-015
vertex 44.4610809434253 6.39984508087881 4.22994972382185e-015
endloop
endfacet
facet normal -0.234394720821576 0.972141509684149 4.75151747663024e-017
outer loop
vertex 44.8417507320996 6.49162903203478 7.0
vertex 44.4610809434253 6.39984508087881 4.22994972382185e-015
vertex 44.4610809434253 6.39984508087881 7.0
endloop
endfacet
facet normal 0.234394720821577 -0.972141509684148 1.27838446395053e-016
outer loop
vertex 45.1582492679004 3.50837096796522 7.0
vertex 45.1582492679004 3.50837096796522 4.22994972382185e-015
vertex 45.5389190565747 3.60015491912119 4.22994972382185e-015
endloop
endfacet
facet normal 0.234394720821576 -0.972141509684148 1.02949545326989e-016
outer loop
vertex 45.1582492679004 3.50837096796522 7.0
vertex 45.5389190565747 3.60015491912119 4.22994972382185e-015
vertex 45.5389190565747 3.60015491912119 7.0
endloop
endfacet
facet normal -0.0252008228535996 -0.999682408831676 7.83854303127293e-018
outer loop
vertex 44.7667950531379 3.5182390703089 7.0
vertex 44.7667950531379 3.5182390703089 4.22994972382185e-015
vertex 45.1582492679004 3.50837096796522 4.22994972382185e-015
endloop
endfacet
facet normal -0.025200822853596 -0.999682408831676 2.08890295868484e-016
outer loop
vertex 44.7667950531379 3.5182390703089 7.0
vertex 45.1582492679004 3.50837096796522 4.22994972382185e-015
vertex 45.1582492679004 3.50837096796522 7.0
endloop
endfacet
facet normal 0.972141509684148 0.234394720821576 2.60202147529752e-017
outer loop
vertex 46.3998450808788 5.53891905657474 7.0
vertex 46.4916290320348 5.15824926790036 7.0
vertex 46.4916290320348 5.15824926790036 4.22994972382185e-015
endloop
endfacet
facet normal 0.972141509684149 0.234394720821576 4.86464884512144e-017
outer loop
vertex 46.3998450808788 5.53891905657474 4.22994972382185e-015
vertex 46.3998450808788 5.53891905657474 7.0
vertex 46.4916290320348 5.15824926790036 4.22994972382185e-015
endloop
endfacet
facet normal -0.999682408831676 0.025200822853596 -7.70102473247867e-018
outer loop
vertex 43.5182390703089 5.23320494686214 4.22994972382185e-015
vertex 43.5083709679652 4.84175073209963 4.22994972382185e-015
vertex 43.5083709679652 4.84175073209964 7.0
endloop
endfacet
facet normal -0.999682408831676 0.0252008228535996 1.93900801299909e-016
outer loop
vertex 43.5182390703089 5.23320494686214 7.0
vertex 43.5182390703089 5.23320494686214 4.22994972382185e-015
vertex 43.5083709679652 4.84175073209964 7.0
endloop
endfacet
facet normal -0.68906253758652 0.72470188304904 6.98089281784058e-017
outer loop
vertex 44.1171375978506 6.21266400081433 7.0
vertex 43.8333598659833 5.94284187311636 4.22994972382185e-015
vertex 43.8333598659833 5.94284187311636 7.0
endloop
endfacet
facet normal -0.68906253758652 0.724701883049041 6.37385865976752e-017
outer loop
vertex 44.1171375978506 6.21266400081433 7.0
vertex 44.1171375978506 6.21266400081433 4.22994972382185e-015
vertex 43.8333598659833 5.94284187311636 4.22994972382185e-015
endloop
endfacet
facet normal -1.13159825944154e-015 3.2654724694062e-019 1.0
outer loop
vertex 43.6290867312853 5.60876662988538 4.22994972382185e-015
vertex 40.0 20.0 0.0
vertex 40.0 0.0 0.0
endloop
endfacet
facet normal -1.13159825944154e-015 3.2654724694062e-019 1.0
outer loop
vertex 40.0 20.0 0.0
vertex 43.6290867312853 5.60876662988538 4.22994972382185e-015
vertex 43.8333598659833 5.94284187311636 4.22994972382185e-015
endloop
endfacet
facet normal 2.00696699542349e-016 -3.68778159964767e-016 1.0
outer loop
vertex 60.0 0.0 0.0
vertex 45.8828624021494 3.78733599918567 4.22994972382185e-015
vertex 45.5389190565747 3.60015491912119 4.22994972382185e-015
endloop
endfacet
facet normal -2.14321184039265e-015 6.32572571227301e-016 1.0
outer loop
vertex 43.6290867312853 5.60876662988538 4.22994972382185e-015
vertex 40.0 0.0 0.0
vertex 43.5182390703089 5.23320494686214 4.22994972382185e-015
endloop
endfacet
facet normal -2.27201967404251e-016 2.38953193112195e-016 1.0
outer loop
vertex 44.1171375978506 6.21266400081433 4.22994972382185e-015
vertex 40.0 20.0 0.0
vertex 43.8333598659833 5.94284187311636 4.22994972382185e-015
endloop
endfacet
facet normal 3.10149897481284e-016 -7.81851571600801e-018 1.0
outer loop
vertex 60.0 0.0 0.0
vertex 46.4916290320348 5.15824926790036 4.22994972382185e-015
vertex 46.4817609296911 4.76679505313786 4.22994972382185e-015
endloop
endfacet
facet normal 2.33694228069229e-016 -2.45781243212937e-016 1.0
outer loop
vertex 60.0 0.0 0.0
vertex 46.1666401340167 4.05715812688364 4.22994972382185e-015
vertex 45.8828624021494 3.78733599918567 4.22994972382185e-015
endloop
endfacet
facet normal 7.67662325050833e-018 3.04521216126708e-016 1.0
outer loop
vertex 60.0 20.0 0.0
vertex 44.8417507320996 6.49162903203478 4.22994972382185e-015
vertex 45.2332049468621 6.4817609296911 4.22994972382185e-015
endloop
endfacet
facet normal -4.4755555209474e-016 8.22378810215721e-016 1.0
outer loop
vertex 60.0 20.0 0.0
vertex 44.1171375978506 6.21266400081433 4.22994972382185e-015
vertex 44.4610809434253 6.39984508087881 4.22994972382185e-015
endloop
endfacet
facet normal 1.15318110632576e-016 1.88595166542396e-016 1.0
outer loop
vertex 60.0 20.0 0.0
vertex 45.6087666298854 6.37091326871469 4.22994972382185e-015
vertex 45.9428418731164 6.16664013401667 4.22994972382185e-015
endloop
endfacet
facet normal -7.01720735823399e-016 -3.81890933274535e-016 1.0
outer loop
vertex 43.7873359991857 4.11713759785061 4.22994972382185e-015
vertex 43.6001549191212 4.46108094342526 4.22994972382185e-015
vertex 40.0 0.0 0.0
endloop
endfacet
facet normal 6.98382765203025e-017 2.36618260037065e-016 1.0
outer loop
vertex 60.0 20.0 0.0
vertex 45.2332049468621 6.4817609296911 4.22994972382185e-015
vertex 45.6087666298854 6.37091326871469 4.22994972382185e-015
endloop
endfacet
facet normal 2.5302642734628e-032 3.06799640196749e-016 1.0
outer loop
vertex 60.0 20.0 0.0
vertex 40.0 20.0 0.0
vertex 44.1171375978506 6.21266400081433 4.22994972382185e-015
endloop
endfacet
facet normal 2.59281139340092e-016 -1.58539646903596e-016 1.0
outer loop
vertex 60.0 0.0 0.0
vertex 46.3709132687147 4.39123337011462 4.22994972382185e-015
vertex 46.1666401340167 4.05715812688364 4.22994972382185e-015
endloop
endfacet
facet normal 1.55454437165363e-016 1.47809508237447e-016 1.0
outer loop
vertex 60.0 20.0 0.0
vertex 45.9428418731164 6.16664013401667 4.22994972382185e-015
vertex 46.2126640008143 5.88286240214939 4.22994972382185e-015
endloop
endfacet
facet normal -1.24913020418484e-015 3.14891096598171e-017 1.0
outer loop
vertex 43.5182390703089 5.23320494686214 4.22994972382185e-015
vertex 40.0 0.0 0.0
vertex 43.5083709679652 4.84175073209963 4.22994972382185e-015
endloop
endfacet
facet normal 1.97015156509666e-016 1.07219721675131e-016 1.0
outer loop
vertex 60.0 20.0 0.0
vertex 46.2126640008143 5.88286240214939 4.22994972382185e-015
vertex 46.3998450808788 5.53891905657474 4.22994972382185e-015
endloop
endfacet
facet normal -9.04652331206628e-016 -2.18122288269158e-016 1.0
outer loop
vertex 43.6001549191212 4.46108094342526 4.22994972382185e-015
vertex 43.5083709679652 4.84175073209963 4.22994972382185e-015
vertex 40.0 0.0 0.0
endloop
endfacet
facet normal 3.13135442745322e-016 0.0 1.0
outer loop
vertex 60.0 20.0 0.0
vertex 46.4916290320348 5.15824926790036 4.22994972382185e-015
vertex 60.0 0.0 0.0
endloop
endfacet
facet normal -1.03504991069293e-016 4.2928227190943e-016 1.0
outer loop
vertex 60.0 20.0 0.0
vertex 44.4610809434253 6.39984508087881 4.22994972382185e-015
vertex 44.8417507320996 6.49162903203478 4.22994972382185e-015
endloop
endfacet
facet normal -5.49201380915029e-016 -5.22192788553457e-016 1.0
outer loop
vertex 44.0571581268836 3.83335986598333 4.22994972382185e-015
vertex 43.7873359991857 4.11713759785061 4.22994972382185e-015
vertex 40.0 0.0 0.0
endloop
endfacet
facet normal 1.4391225593991e-016 -5.9686957650387e-016 1.0
outer loop
vertex 60.0 0.0 0.0
vertex 45.5389190565747 3.60015491912119 4.22994972382185e-015
vertex 45.1582492679004 3.50837096796522 4.22994972382185e-015
endloop
endfacet
facet normal 2.47555256533645e-016 5.96884760758265e-017 1.0
outer loop
vertex 60.0 20.0 0.0
vertex 46.3998450808788 5.53891905657474 4.22994972382185e-015
vertex 46.4916290320348 5.15824926790036 4.22994972382185e-015
endloop
endfacet
facet normal -3.4021802325487e-017 -1.34959868173234e-015 1.0
outer loop
vertex 60.0 0.0 0.0
vertex 45.1582492679004 3.50837096796522 4.22994972382185e-015
vertex 44.7667950531379 3.5182390703089 4.22994972382185e-015
endloop
endfacet
facet normal 0.0 -1.20229172585775e-015 1.0
outer loop
vertex 60.0 0.0 0.0
vertex 44.7667950531379 3.5182390703089 4.22994972382185e-015
vertex 40.0 0.0 0.0
endloop
endfacet
facet normal -2.53489242745235e-016 -8.58843982769724e-016 1.0
outer loop
vertex 44.7667950531379 3.5182390703089 4.22994972382185e-015
vertex 44.3912333701146 3.62908673128531 4.22994972382185e-015
vertex 40.0 0.0 0.0
endloop
endfacet
facet normal -4.09626189292328e-016 -6.69916624248747e-016 1.0
outer loop
vertex 44.3912333701146 3.62908673128531 4.22994972382185e-015
vertex 44.0571581268836 3.83335986598333 4.22994972382185e-015
vertex 40.0 0.0 0.0
endloop
endfacet
facet normal 2.8341055271582e-016 -8.36491002268906e-017 1.0
outer loop
vertex 60.0 0.0 0.0
vertex 46.4817609296911 4.76679505313786 4.22994972382185e-015
vertex 46.3709132687147 4.39123337011462 4.22994972382185e-015
endloop
endfacet
facet normal -0.972141509684148 -0.234394720821576 6.7878821094718e-017
outer loop
vertex 43.5083709679652 4.84175073209964 7.0
vertex 43.5083709679652 4.84175073209963 4.22994972382185e-015
vertex 43.6001549191212 4.46108094342526 7.0
endloop
endfacet
facet normal -0.972141509684148 -0.234394720821576 6.7878821094718e-017
outer loop
vertex 43.5083709679652 4.84175073209963 4.22994972382185e-015
vertex 43.6001549191212 4.46108094342526 4.22994972382185e-015
vertex 43.6001549191212 4.46108094342526 7.0
endloop
endfacet
facet normal 0.878350773191452 0.47801665162835 5.75973326928454e-017
outer loop
vertex 46.2126640008143 5.88286240214939 4.22994972382185e-015
vertex 46.2126640008143 5.88286240214939 7.0
vertex 46.3998450808788 5.53891905657474 4.22994972382185e-015
endloop
endfacet
facet normal 0.878350773191452 0.478016651628349 9.26565786797951e-017
outer loop
vertex 46.2126640008143 5.88286240214939 7.0
vertex 46.3998450808788 5.53891905657474 7.0
vertex 46.3998450808788 5.53891905657474 4.22994972382185e-015
endloop
endfacet
facet normal 0.0252008228535977 0.999682408831676 -4.95065875659341e-018
outer loop
vertex 45.2332049468621 6.4817609296911 7.0
vertex 45.2332049468621 6.4817609296911 4.22994972382185e-015
vertex 44.8417507320996 6.49162903203478 4.22994972382185e-015
endloop
endfacet
facet normal 0.0252008228535978 0.999682408831676 -5.08817705538768e-018
outer loop
vertex 45.2332049468621 6.4817609296911 7.0
vertex 44.8417507320996 6.49162903203478 4.22994972382185e-015
vertex 44.8417507320996 6.49162903203478 7.0
endloop
endfacet
facet normal -0.853149950337852 0.521665757203328 9.02371142609559e-017
outer loop
vertex 43.8333598659833 5.94284187311636 4.22994972382185e-015
vertex 43.6290867312853 5.60876662988538 7.0
vertex 43.8333598659833 5.94284187311636 7.0
endloop
endfacet
facet normal -0.853149950337853 0.521665757203326 -4.12512522335792e-017
outer loop
vertex 43.8333598659833 5.94284187311636 4.22994972382185e-015
vertex 43.6290867312853 5.60876662988538 4.22994972382185e-015
vertex 43.6290867312853 5.60876662988538 7.0
endloop
endfacet
facet normal 0.959096603870617 -0.283078972097629 -1.14670095706545e-018
outer loop
vertex 46.4817609296911 4.76679505313786 7.0
vertex 46.3709132687147 4.39123337011462 7.0
vertex 46.4817609296911 4.76679505313786 4.22994972382185e-015
endloop
endfacet
facet normal 0.959096603870617 -0.283078972097627 5.50416459391412e-017
outer loop
vertex 46.4817609296911 4.76679505313786 4.22994972382185e-015
vertex 46.3709132687147 4.39123337011462 7.0
vertex 46.3709132687147 4.39123337011462 4.22994972382185e-015
endloop
endfacet
facet normal -0.959096603870617 0.283078972097626 1.08936590921217e-016
outer loop
vertex 43.6290867312853 5.60876662988538 4.22994972382185e-015
vertex 43.5182390703089 5.23320494686214 4.22994972382185e-015
vertex 43.5182390703089 5.23320494686214 7.0
endloop
endfacet
facet normal -0.959096603870617 0.283078972097626 7.68289641233847e-017
outer loop
vertex 43.6290867312853 5.60876662988538 7.0
vertex 43.6290867312853 5.60876662988538 4.22994972382185e-015
vertex 43.5182390703089 5.23320494686214 7.0
endloop
endfacet
facet normal 0.283078972097628 0.959096603870617 -5.61883468962069e-017
outer loop
vertex 45.6087666298854 6.37091326871469 7.0
vertex 45.6087666298854 6.37091326871469 4.22994972382185e-015
vertex 45.2332049468621 6.4817609296911 4.22994972382185e-015
endloop
endfacet
facet normal 0.283078972097628 0.959096603870617 -5.73350478532723e-017
outer loop
vertex 45.6087666298854 6.37091326871469 7.0
vertex 45.2332049468621 6.4817609296911 4.22994972382185e-015
vertex 45.2332049468621 6.4817609296911 7.0
endloop
endfacet
facet normal 0.521665757203326 0.853149950337853 6.70332848795673e-017
outer loop
vertex 45.9428418731164 6.16664013401667 7.0
vertex 45.9428418731164 6.16664013401667 4.22994972382185e-015
vertex 45.6087666298854 6.37091326871469 4.22994972382185e-015
endloop
endfacet
facet normal 0.521665757203329 0.853149950337851 -1.00549927319351e-016
outer loop
vertex 45.9428418731164 6.16664013401667 7.0
vertex 45.6087666298854 6.37091326871469 4.22994972382185e-015
vertex 45.6087666298854 6.37091326871469 7.0
endloop
endfacet
facet normal 0.72470188304904 0.689062537586521 -9.10551237109644e-018
outer loop
vertex 45.9428418731164 6.16664013401667 4.22994972382185e-015
vertex 45.9428418731164 6.16664013401667 7.0
vertex 46.2126640008143 5.88286240214939 4.22994972382185e-015
endloop
endfacet
facet normal 0.724701883049041 0.68906253758652 1.30512343985715e-016
outer loop
vertex 45.9428418731164 6.16664013401667 7.0
vertex 46.2126640008143 5.88286240214939 7.0
vertex 46.2126640008143 5.88286240214939 4.22994972382185e-015
endloop
endfacet
facet normal -0.72470188304904 -0.689062537586521 -3.0351707903655e-018
outer loop
vertex 43.7873359991857 4.11713759785061 4.22994972382185e-015
vertex 44.0571581268836 3.83335986598333 4.22994972382185e-015
vertex 44.0571581268836 3.83335986598333 7.0
endloop
endfacet
facet normal -0.72470188304904 -0.689062537586521 -9.10551237109644e-018
outer loop
vertex 43.7873359991857 4.11713759785061 7.0
vertex 43.7873359991857 4.11713759785061 4.22994972382185e-015
vertex 44.0571581268836 3.83335986598333 7.0
endloop
endfacet
facet normal -0.47801665162835 0.878350773191451 9.26565786797951e-017
outer loop
vertex 44.4610809434253 6.39984508087881 7.0
vertex 44.4610809434253 6.39984508087881 4.22994972382185e-015
vertex 44.1171375978506 6.21266400081433 4.22994972382185e-015
endloop
endfacet
facet normal -0.478016651628349 0.878350773191452 7.51269556863204e-018
outer loop
vertex 44.4610809434253 6.39984508087881 7.0
vertex 44.1171375978506 6.21266400081433 4.22994972382185e-015
vertex 44.1171375978506 6.21266400081433 7.0
endloop
endfacet
facet normal -0.878350773191451 -0.478016651628352 -8.01354193987416e-017
outer loop
vertex 43.6001549191212 4.46108094342526 4.22994972382185e-015
vertex 43.7873359991857 4.11713759785061 4.22994972382185e-015
vertex 43.7873359991857 4.11713759785061 7.0
endloop
endfacet
facet normal -0.878350773191452 -0.478016651628348 1.42741215804008e-016
outer loop
vertex 43.6001549191212 4.46108094342526 7.0
vertex 43.6001549191212 4.46108094342526 4.22994972382185e-015
vertex 43.7873359991857 4.11713759785061 7.0
endloop
endfacet
facet normal -0.521665757203325 -0.853149950337853 1.70161415463517e-016
outer loop
vertex 44.0571581268836 3.83335986598333 7.0
vertex 44.3912333701146 3.62908673128531 4.22994972382185e-015
vertex 44.3912333701146 3.62908673128531 7.0
endloop
endfacet
facet normal -0.521665757203327 -0.853149950337852 3.0938439175185e-017
outer loop
vertex 44.0571581268836 3.83335986598333 7.0
vertex 44.0571581268836 3.83335986598333 4.22994972382185e-015
vertex 44.3912333701146 3.62908673128531 4.22994972382185e-015
endloop
endfacet
facet normal 0.68906253758652 -0.72470188304904 8.80199529205987e-017
outer loop
vertex 45.8828624021494 3.78733599918567 7.0
vertex 45.8828624021494 3.78733599918567 4.22994972382185e-015
vertex 46.1666401340167 4.05715812688364 4.22994972382185e-015
endloop
endfacet
facet normal 0.689062537586521 -0.72470188304904 1.45688197937544e-016
outer loop
vertex 45.8828624021494 3.78733599918567 7.0
vertex 46.1666401340167 4.05715812688364 4.22994972382185e-015
vertex 46.1666401340167 4.05715812688364 7.0
endloop
endfacet
facet normal 0.853149950337853 -0.521665757203326 1.13440943642345e-016
outer loop
vertex 46.3709132687147 4.39123337011462 4.22994972382185e-015
vertex 46.1666401340167 4.05715812688364 7.0
vertex 46.1666401340167 4.05715812688364 4.22994972382185e-015
endloop
endfacet
facet normal 0.853149950337853 -0.521665757203326 1.05706333848548e-016
outer loop
vertex 46.3709132687147 4.39123337011462 7.0
vertex 46.1666401340167 4.05715812688364 7.0
vertex 46.3709132687147 4.39123337011462 4.22994972382185e-015
endloop
endfacet
facet normal 0.999682408831676 -0.0252008228535978 2.75036597588524e-019
outer loop
vertex 46.4916290320348 5.15824926790036 7.0
vertex 46.4817609296911 4.76679505313786 7.0
vertex 46.4817609296911 4.76679505313786 4.22994972382185e-015
endloop
endfacet
facet normal 0.999682408831676 -0.0252008228535977 -2.75036597588523e-018
outer loop
vertex 46.4916290320348 5.15824926790036 4.22994972382185e-015
vertex 46.4916290320348 5.15824926790036 7.0
vertex 46.4817609296911 4.76679505313786 4.22994972382185e-015
endloop
endfacet
facet normal -0.283078972097627 -0.959096603870617 1.96085863658191e-016
outer loop
vertex 44.3912333701146 3.62908673128531 7.0
vertex 44.3912333701146 3.62908673128531 4.22994972382185e-015
vertex 44.7667950531379 3.5182390703089 4.22994972382185e-015
endloop
endfacet
facet normal -0.283078972097629 -0.959096603870616 8.48558708228417e-017
outer loop
vertex 44.3912333701146 3.62908673128531 7.0
vertex 44.7667950531379 3.5182390703089 4.22994972382185e-015
vertex 44.7667950531379 3.5182390703089 7.0
endloop
endfacet
facet normal 0.478016651628348 -0.878350773191453 -1.75296229934746e-017
outer loop
vertex 45.5389190565747 3.60015491912119 7.0
vertex 45.5389190565747 3.60015491912119 4.22994972382185e-015
vertex 45.8828624021494 3.78733599918567 4.22994972382185e-015
endloop
endfacet
facet normal 0.47801665162835 -0.878350773191451 1.70287766222326e-016
outer loop
vertex 45.5389190565747 3.60015491912119 7.0
vertex 45.8828624021494 3.78733599918567 4.22994972382185e-015
vertex 45.8828624021494 3.78733599918567 7.0
endloop
endfacet
endsolid Calibration Cube
