solid OpenSCAD_Model
  facet normal -1 -0 -0
    outer loop
      vertex -12 0.7 0
      vertex -12 0.7 10
      vertex -12 8.7 0
    endloop
  endfacet
  facet normal -1 0 0
    outer loop
      vertex -12 8.7 0
      vertex -12 0.7 10
      vertex -12 8.7 10
    endloop
  endfacet
  facet normal 0 -1 0
    outer loop
      vertex -10.0588 0.7 4.1
      vertex -12 0.7 0
      vertex -4.01988 0.7 0
    endloop
  endfacet
  facet normal 0 -1 0
    outer loop
      vertex -6.94115 0.7 5.9
      vertex -6.94115 0.7 4.1
      vertex -4.01988 0.7 0
    endloop
  endfacet
  facet normal 0 -1 0
    outer loop
      vertex -8.5 0.7 3.2
      vertex -10.0588 0.7 4.1
      vertex -4.01988 0.7 0
    endloop
  endfacet
  facet normal 0 -1 0
    outer loop
      vertex -12 0.7 10
      vertex -12 0.7 0
      vertex -10.0588 0.7 4.1
    endloop
  endfacet
  facet normal 0 -1 0
    outer loop
      vertex -12 0.7 10
      vertex -10.0588 0.7 4.1
      vertex -10.0588 0.7 5.9
    endloop
  endfacet
  facet normal 0 -1 0
    outer loop
      vertex -6.94115 0.7 4.1
      vertex -8.5 0.7 3.2
      vertex -4.01988 0.7 0
    endloop
  endfacet
  facet normal 0 -1 0
    outer loop
      vertex -4.01988 0.7 10
      vertex -12 0.7 10
      vertex -8.5 0.7 6.8
    endloop
  endfacet
  facet normal 0 -1 0
    outer loop
      vertex -4.01988 0.7 10
      vertex -6.94115 0.7 5.9
      vertex -4.01988 0.7 0
    endloop
  endfacet
  facet normal 0 -1 0
    outer loop
      vertex -4.01988 0.7 10
      vertex -8.5 0.7 6.8
      vertex -6.94115 0.7 5.9
    endloop
  endfacet
  facet normal 0 -1 -0
    outer loop
      vertex -10.0588 0.7 5.9
      vertex -8.5 0.7 6.8
      vertex -12 0.7 10
    endloop
  endfacet
  facet normal -0 -0 -1
    outer loop
      vertex -12 0.7 0
      vertex -12 8.7 0
      vertex -4.01988 0.7 0
    endloop
  endfacet
  facet normal 0 -0 -1
    outer loop
      vertex 1.26697 3.89933 0
      vertex -12 8.7 0
      vertex 12 8.7 0
    endloop
  endfacet
  facet normal -0 0 -1
    outer loop
      vertex 4.01157 0.7 0
      vertex 12 8.7 0
      vertex 12 0.7 0
    endloop
  endfacet
  facet normal -0 0 -1
    outer loop
      vertex 3.97119 1.01963 0
      vertex 12 8.7 0
      vertex 4.01157 0.7 0
    endloop
  endfacet
  facet normal -0 0 -1
    outer loop
      vertex 3.59286 1.97519 0
      vertex 12 8.7 0
      vertex 3.97119 1.01963 0
    endloop
  endfacet
  facet normal -0 0 -1
    outer loop
      vertex 2.98877 2.80664 0
      vertex 12 8.7 0
      vertex 3.59286 1.97519 0
    endloop
  endfacet
  facet normal -0 0 -1
    outer loop
      vertex 2.19689 3.46174 0
      vertex 12 8.7 0
      vertex 2.98877 2.80664 0
    endloop
  endfacet
  facet normal -0 -0 -1
    outer loop
      vertex 0.257441 4.09191 0
      vertex -12 8.7 0
      vertex 1.26697 3.89933 0
    endloop
  endfacet
  facet normal 0 -0 -1
    outer loop
      vertex -0.768263 4.02738 0
      vertex -12 8.7 0
      vertex 0.257441 4.09191 0
    endloop
  endfacet
  facet normal 0 -0 -1
    outer loop
      vertex -1.74569 3.70979 0
      vertex -12 8.7 0
      vertex -0.768263 4.02738 0
    endloop
  endfacet
  facet normal 0 -0 -1
    outer loop
      vertex -2.61344 3.1591 0
      vertex -12 8.7 0
      vertex -1.74569 3.70979 0
    endloop
  endfacet
  facet normal 0 -0 -1
    outer loop
      vertex -3.31697 2.40992 0
      vertex -12 8.7 0
      vertex -2.61344 3.1591 0
    endloop
  endfacet
  facet normal 0 -0 -1
    outer loop
      vertex -3.81208 1.50931 0
      vertex -12 8.7 0
      vertex -3.31697 2.40992 0
    endloop
  endfacet
  facet normal 0 -0 -1
    outer loop
      vertex -4.01988 0.7 0
      vertex -12 8.7 0
      vertex -3.81208 1.50931 0
    endloop
  endfacet
  facet normal -0 0 -1
    outer loop
      vertex 1.26697 3.89933 0
      vertex 12 8.7 0
      vertex 2.19689 3.46174 0
    endloop
  endfacet
  facet normal 0 1 0
    outer loop
      vertex -6.94115 8.7 5.9
      vertex -12 8.7 10
      vertex 12 8.7 0
    endloop
  endfacet
  facet normal 0 1 0
    outer loop
      vertex 6.94115 8.7 5.9
      vertex -12 8.7 10
      vertex 12 8.7 10
    endloop
  endfacet
  facet normal 0 1 0
    outer loop
      vertex -12 8.7 0
      vertex -12 8.7 10
      vertex -10.0588 8.7 5.9
    endloop
  endfacet
  facet normal 0 1 0
    outer loop
      vertex -12 8.7 0
      vertex -10.0588 8.7 5.9
      vertex -10.0588 8.7 4.1
    endloop
  endfacet
  facet normal 0 1 0
    outer loop
      vertex -12 8.7 0
      vertex -10.0588 8.7 4.1
      vertex -8.5 8.7 3.2
    endloop
  endfacet
  facet normal 0 1 0
    outer loop
      vertex -12 8.7 0
      vertex -8.5 8.7 3.2
      vertex 12 8.7 0
    endloop
  endfacet
  facet normal 0 1 0
    outer loop
      vertex -6.94115 8.7 5.9
      vertex 12 8.7 0
      vertex -6.94115 8.7 4.1
    endloop
  endfacet
  facet normal 0 1 0
    outer loop
      vertex -8.5 8.7 6.8
      vertex -12 8.7 10
      vertex -6.94115 8.7 5.9
    endloop
  endfacet
  facet normal 0 1 -0
    outer loop
      vertex 10.0588 8.7 4.1
      vertex 12 8.7 0
      vertex 8.5 8.7 3.2
    endloop
  endfacet
  facet normal 0 1 0
    outer loop
      vertex -10.0588 8.7 5.9
      vertex -12 8.7 10
      vertex -8.5 8.7 6.8
    endloop
  endfacet
  facet normal 0 1 0
    outer loop
      vertex 6.94115 8.7 4.1
      vertex -12 8.7 10
      vertex 6.94115 8.7 5.9
    endloop
  endfacet
  facet normal -0 1 0
    outer loop
      vertex 8.5 8.7 6.8
      vertex 6.94115 8.7 5.9
      vertex 12 8.7 10
    endloop
  endfacet
  facet normal 0 1 0
    outer loop
      vertex 12 8.7 0
      vertex -12 8.7 10
      vertex 6.94115 8.7 4.1
    endloop
  endfacet
  facet normal 0 1 0
    outer loop
      vertex 12 8.7 0
      vertex 6.94115 8.7 4.1
      vertex 8.5 8.7 3.2
    endloop
  endfacet
  facet normal 0 1 0
    outer loop
      vertex 12 8.7 0
      vertex 10.0588 8.7 4.1
      vertex 12 8.7 10
    endloop
  endfacet
  facet normal 0 1 0
    outer loop
      vertex 10.0588 8.7 4.1
      vertex 10.0588 8.7 5.9
      vertex 12 8.7 10
    endloop
  endfacet
  facet normal 0 1 0
    outer loop
      vertex 10.0588 8.7 5.9
      vertex 8.5 8.7 6.8
      vertex 12 8.7 10
    endloop
  endfacet
  facet normal 0 1 -0
    outer loop
      vertex -6.94115 8.7 4.1
      vertex 12 8.7 0
      vertex -8.5 8.7 3.2
    endloop
  endfacet
  facet normal 0 -0 1
    outer loop
      vertex -12 8.7 10
      vertex -12 0.7 10
      vertex -4.01988 0.7 10
    endloop
  endfacet
  facet normal -0 0 1
    outer loop
      vertex -3.31697 2.40992 10
      vertex -12 8.7 10
      vertex -3.81208 1.50931 10
    endloop
  endfacet
  facet normal -0 0 1
    outer loop
      vertex -3.81208 1.50931 10
      vertex -12 8.7 10
      vertex -4.01988 0.7 10
    endloop
  endfacet
  facet normal -0 0 1
    outer loop
      vertex -2.61344 3.1591 10
      vertex -12 8.7 10
      vertex -3.31697 2.40992 10
    endloop
  endfacet
  facet normal -0 0 1
    outer loop
      vertex -1.74569 3.70979 10
      vertex -12 8.7 10
      vertex -2.61344 3.1591 10
    endloop
  endfacet
  facet normal -0 0 1
    outer loop
      vertex -0.768263 4.02738 10
      vertex -12 8.7 10
      vertex -1.74569 3.70979 10
    endloop
  endfacet
  facet normal -0 0 1
    outer loop
      vertex 0.257441 4.09191 10
      vertex -12 8.7 10
      vertex -0.768263 4.02738 10
    endloop
  endfacet
  facet normal 0 0 1
    outer loop
      vertex 1.26697 3.89933 10
      vertex -12 8.7 10
      vertex 0.257441 4.09191 10
    endloop
  endfacet
  facet normal 0 0 1
    outer loop
      vertex 12 0.7 10
      vertex -12 8.7 10
      vertex 1.26697 3.89933 10
    endloop
  endfacet
  facet normal 0 0 1
    outer loop
      vertex 12 0.7 10
      vertex 1.26697 3.89933 10
      vertex 2.19689 3.46174 10
    endloop
  endfacet
  facet normal 0 0 1
    outer loop
      vertex 12 0.7 10
      vertex 2.19689 3.46174 10
      vertex 2.98877 2.80664 10
    endloop
  endfacet
  facet normal 0 0 1
    outer loop
      vertex 12 0.7 10
      vertex 2.98877 2.80664 10
      vertex 3.59286 1.97519 10
    endloop
  endfacet
  facet normal 0 0 1
    outer loop
      vertex 12 0.7 10
      vertex 3.59286 1.97519 10
      vertex 3.97119 1.01963 10
    endloop
  endfacet
  facet normal -0 0 1
    outer loop
      vertex 12 0.7 10
      vertex 3.97119 1.01963 10
      vertex 4.01157 0.7 10
    endloop
  endfacet
  facet normal 0 0 1
    outer loop
      vertex 12 8.7 10
      vertex -12 8.7 10
      vertex 12 0.7 10
    endloop
  endfacet
  facet normal 0.968583 -0.248689 0
    outer loop
      vertex -3.81208 1.50931 0
      vertex -3.81208 1.50931 10
      vertex -4.01988 0.7 10
    endloop
  endfacet
  facet normal 0.968583 -0.248689 0
    outer loop
      vertex -4.01988 0.7 0
      vertex -3.81208 1.50931 0
      vertex -4.01988 0.7 10
    endloop
  endfacet
  facet normal 1 1.685e-23 7.58855e-08
    outer loop
      vertex -10.0588 0.7 4.1
      vertex -10.0588 8.7 4.1
      vertex -10.0588 8.7 5.9
    endloop
  endfacet
  facet normal 1 1.685e-23 7.58855e-08
    outer loop
      vertex -10.0588 0.7 5.9
      vertex -10.0588 0.7 4.1
      vertex -10.0588 8.7 5.9
    endloop
  endfacet
  facet normal 0.5 1.92296e-16 0.866025
    outer loop
      vertex -8.5 0.7 3.2
      vertex -8.5 8.7 3.2
      vertex -10.0588 8.7 4.1
    endloop
  endfacet
  facet normal 0.5 1.92296e-16 0.866025
    outer loop
      vertex -10.0588 0.7 4.1
      vertex -8.5 0.7 3.2
      vertex -10.0588 8.7 4.1
    endloop
  endfacet
  facet normal -0.5 1.92296e-16 0.866025
    outer loop
      vertex -6.94115 0.7 4.1
      vertex -6.94115 8.7 4.1
      vertex -8.5 8.7 3.2
    endloop
  endfacet
  facet normal -0.5 1.92296e-16 0.866025
    outer loop
      vertex -8.5 0.7 3.2
      vertex -6.94115 0.7 4.1
      vertex -8.5 8.7 3.2
    endloop
  endfacet
  facet normal -1 -1.685e-23 -7.58855e-08
    outer loop
      vertex -6.94115 8.7 4.1
      vertex -6.94115 0.7 4.1
      vertex -6.94115 8.7 5.9
    endloop
  endfacet
  facet normal -1 -1.685e-23 -7.58855e-08
    outer loop
      vertex -6.94115 8.7 5.9
      vertex -6.94115 0.7 4.1
      vertex -6.94115 0.7 5.9
    endloop
  endfacet
  facet normal -0.5 -1.92296e-16 -0.866025
    outer loop
      vertex -6.94115 8.7 5.9
      vertex -6.94115 0.7 5.9
      vertex -8.5 8.7 6.8
    endloop
  endfacet
  facet normal -0.5 -1.92296e-16 -0.866025
    outer loop
      vertex -8.5 8.7 6.8
      vertex -6.94115 0.7 5.9
      vertex -8.5 0.7 6.8
    endloop
  endfacet
  facet normal 0.5 -1.92296e-16 -0.866025
    outer loop
      vertex -8.5 8.7 6.8
      vertex -8.5 0.7 6.8
      vertex -10.0588 8.7 5.9
    endloop
  endfacet
  facet normal 0.5 -1.92296e-16 -0.866025
    outer loop
      vertex -10.0588 8.7 5.9
      vertex -8.5 0.7 6.8
      vertex -10.0588 0.7 5.9
    endloop
  endfacet
  facet normal 0.876307 -0.481754 0
    outer loop
      vertex -3.31697 2.40992 0
      vertex -3.31697 2.40992 10
      vertex -3.81208 1.50931 10
    endloop
  endfacet
  facet normal 0.876307 -0.481754 0
    outer loop
      vertex -3.81208 1.50931 0
      vertex -3.31697 2.40992 0
      vertex -3.81208 1.50931 10
    endloop
  endfacet
  facet normal 0.728968 -0.684548 0
    outer loop
      vertex -2.61344 3.1591 0
      vertex -2.61344 3.1591 10
      vertex -3.31697 2.40992 10
    endloop
  endfacet
  facet normal 0.728968 -0.684548 0
    outer loop
      vertex -3.31697 2.40992 0
      vertex -2.61344 3.1591 0
      vertex -3.31697 2.40992 10
    endloop
  endfacet
  facet normal 0.535827 -0.844328 0
    outer loop
      vertex -1.74569 3.70979 0
      vertex -1.74569 3.70979 10
      vertex -2.61344 3.1591 10
    endloop
  endfacet
  facet normal 0.535827 -0.844328 0
    outer loop
      vertex -2.61344 3.1591 0
      vertex -1.74569 3.70979 0
      vertex -2.61344 3.1591 10
    endloop
  endfacet
  facet normal 0.309017 -0.951056 0
    outer loop
      vertex -0.768263 4.02738 0
      vertex -0.768263 4.02738 10
      vertex -1.74569 3.70979 10
    endloop
  endfacet
  facet normal 0.309017 -0.951056 0
    outer loop
      vertex -1.74569 3.70979 0
      vertex -0.768263 4.02738 0
      vertex -1.74569 3.70979 10
    endloop
  endfacet
  facet normal 0.0627907 -0.998027 0
    outer loop
      vertex 0.257441 4.09191 0
      vertex 0.257441 4.09191 10
      vertex -0.768263 4.02738 10
    endloop
  endfacet
  facet normal 0.0627907 -0.998027 0
    outer loop
      vertex -0.768263 4.02738 0
      vertex 0.257441 4.09191 0
      vertex -0.768263 4.02738 10
    endloop
  endfacet
  facet normal -0.187381 -0.982287 -0
    outer loop
      vertex 1.26697 3.89933 0
      vertex 1.26697 3.89933 10
      vertex 0.257441 4.09191 10
    endloop
  endfacet
  facet normal -0.187381 -0.982287 -0
    outer loop
      vertex 0.257441 4.09191 0
      vertex 1.26697 3.89933 0
      vertex 0.257441 4.09191 10
    endloop
  endfacet
  facet normal -0.42578 -0.904827 -0
    outer loop
      vertex 2.19689 3.46174 0
      vertex 2.19689 3.46174 10
      vertex 1.26697 3.89933 10
    endloop
  endfacet
  facet normal -0.42578 -0.904827 -0
    outer loop
      vertex 1.26697 3.89933 0
      vertex 2.19689 3.46174 0
      vertex 1.26697 3.89933 10
    endloop
  endfacet
  facet normal -0.637424 -0.770513 -0
    outer loop
      vertex 2.98877 2.80664 0
      vertex 2.98877 2.80664 10
      vertex 2.19689 3.46174 10
    endloop
  endfacet
  facet normal -0.637424 -0.770513 -0
    outer loop
      vertex 2.19689 3.46174 0
      vertex 2.98877 2.80664 0
      vertex 2.19689 3.46174 10
    endloop
  endfacet
  facet normal -0.809017 -0.587785 0
    outer loop
      vertex 3.59286 1.97519 10
      vertex 2.98877 2.80664 10
      vertex 3.59286 1.97519 0
    endloop
  endfacet
  facet normal -0.809017 -0.587785 0
    outer loop
      vertex 3.59286 1.97519 0
      vertex 2.98877 2.80664 10
      vertex 2.98877 2.80664 0
    endloop
  endfacet
  facet normal -0.929776 -0.368125 0
    outer loop
      vertex 3.97119 1.01963 10
      vertex 3.59286 1.97519 10
      vertex 3.97119 1.01963 0
    endloop
  endfacet
  facet normal -0.929776 -0.368125 0
    outer loop
      vertex 3.97119 1.01963 0
      vertex 3.59286 1.97519 10
      vertex 3.59286 1.97519 0
    endloop
  endfacet
  facet normal -0.992115 -0.125333 0
    outer loop
      vertex 4.01157 0.7 10
      vertex 3.97119 1.01963 10
      vertex 4.01157 0.7 0
    endloop
  endfacet
  facet normal -0.992115 -0.125333 0
    outer loop
      vertex 4.01157 0.7 0
      vertex 3.97119 1.01963 10
      vertex 3.97119 1.01963 0
    endloop
  endfacet
  facet normal 0 -1 0
    outer loop
      vertex 6.94115 0.7 4.1
      vertex 4.01157 0.7 0
      vertex 12 0.7 0
    endloop
  endfacet
  facet normal 0 -1 0
    outer loop
      vertex 8.5 0.7 3.2
      vertex 6.94115 0.7 4.1
      vertex 12 0.7 0
    endloop
  endfacet
  facet normal 0 -1 0
    outer loop
      vertex 4.01157 0.7 10
      vertex 4.01157 0.7 0
      vertex 6.94115 0.7 4.1
    endloop
  endfacet
  facet normal 0 -1 0
    outer loop
      vertex 4.01157 0.7 10
      vertex 6.94115 0.7 4.1
      vertex 6.94115 0.7 5.9
    endloop
  endfacet
  facet normal 0 -1 0
    outer loop
      vertex 12 0.7 10
      vertex 4.01157 0.7 10
      vertex 8.5 0.7 6.8
    endloop
  endfacet
  facet normal 0 -1 0
    outer loop
      vertex 12 0.7 10
      vertex 10.0588 0.7 5.9
      vertex 12 0.7 0
    endloop
  endfacet
  facet normal 0 -1 0
    outer loop
      vertex 12 0.7 10
      vertex 8.5 0.7 6.8
      vertex 10.0588 0.7 5.9
    endloop
  endfacet
  facet normal 0 -1 0
    outer loop
      vertex 10.0588 0.7 5.9
      vertex 10.0588 0.7 4.1
      vertex 12 0.7 0
    endloop
  endfacet
  facet normal 0 -1 -0
    outer loop
      vertex 6.94115 0.7 5.9
      vertex 8.5 0.7 6.8
      vertex 4.01157 0.7 10
    endloop
  endfacet
  facet normal 0 -1 0
    outer loop
      vertex 10.0588 0.7 4.1
      vertex 8.5 0.7 3.2
      vertex 12 0.7 0
    endloop
  endfacet
  facet normal 1 0 -0
    outer loop
      vertex 12 0.7 10
      vertex 12 0.7 0
      vertex 12 8.7 0
    endloop
  endfacet
  facet normal 1 0 0
    outer loop
      vertex 12 8.7 10
      vertex 12 0.7 10
      vertex 12 8.7 0
    endloop
  endfacet
  facet normal 0.5 -1.92296e-16 -0.866025
    outer loop
      vertex 8.5 8.7 6.8
      vertex 8.5 0.7 6.8
      vertex 6.94115 8.7 5.9
    endloop
  endfacet
  facet normal 0.5 -1.92296e-16 -0.866025
    outer loop
      vertex 6.94115 8.7 5.9
      vertex 8.5 0.7 6.8
      vertex 6.94115 0.7 5.9
    endloop
  endfacet
  facet normal 1 1.685e-23 7.58855e-08
    outer loop
      vertex 6.94115 0.7 4.1
      vertex 6.94115 8.7 4.1
      vertex 6.94115 8.7 5.9
    endloop
  endfacet
  facet normal 1 1.685e-23 7.58855e-08
    outer loop
      vertex 6.94115 0.7 5.9
      vertex 6.94115 0.7 4.1
      vertex 6.94115 8.7 5.9
    endloop
  endfacet
  facet normal -0.5 -1.92296e-16 -0.866025
    outer loop
      vertex 10.0588 8.7 5.9
      vertex 10.0588 0.7 5.9
      vertex 8.5 8.7 6.8
    endloop
  endfacet
  facet normal -0.5 -1.92296e-16 -0.866025
    outer loop
      vertex 8.5 8.7 6.8
      vertex 10.0588 0.7 5.9
      vertex 8.5 0.7 6.8
    endloop
  endfacet
  facet normal -1 -1.685e-23 -7.58855e-08
    outer loop
      vertex 10.0588 8.7 4.1
      vertex 10.0588 0.7 4.1
      vertex 10.0588 8.7 5.9
    endloop
  endfacet
  facet normal -1 -1.685e-23 -7.58855e-08
    outer loop
      vertex 10.0588 8.7 5.9
      vertex 10.0588 0.7 4.1
      vertex 10.0588 0.7 5.9
    endloop
  endfacet
  facet normal -0.5 1.92296e-16 0.866025
    outer loop
      vertex 10.0588 0.7 4.1
      vertex 10.0588 8.7 4.1
      vertex 8.5 8.7 3.2
    endloop
  endfacet
  facet normal -0.5 1.92296e-16 0.866025
    outer loop
      vertex 8.5 0.7 3.2
      vertex 10.0588 0.7 4.1
      vertex 8.5 8.7 3.2
    endloop
  endfacet
  facet normal 0.5 1.92296e-16 0.866025
    outer loop
      vertex 8.5 0.7 3.2
      vertex 8.5 8.7 3.2
      vertex 6.94115 8.7 4.1
    endloop
  endfacet
  facet normal 0.5 1.92296e-16 0.866025
    outer loop
      vertex 6.94115 0.7 4.1
      vertex 8.5 0.7 3.2
      vertex 6.94115 8.7 4.1
    endloop
  endfacet
endsolid OpenSCAD_Model
