solid OpenSCAD_Model
  facet normal -1 0 0
    outer loop
      vertex 90 90 10
      vertex 90 110 10
      vertex 90 90 0
    endloop
  endfacet
  facet normal -1 -0 0
    outer loop
      vertex 90 90 0
      vertex 90 110 10
      vertex 90 110 0
    endloop
  endfacet
  facet normal 0 0 1
    outer loop
      vertex 90 90 10
      vertex 110 90 10
      vertex 110 110 10
    endloop
  endfacet
  facet normal 0 -0 1
    outer loop
      vertex 90 110 10
      vertex 90 90 10
      vertex 110 110 10
    endloop
  endfacet
  facet normal -0 -1 0
    outer loop
      vertex 90 90 0
      vertex 110 90 0
      vertex 110 90 10
    endloop
  endfacet
  facet normal 0 -1 0
    outer loop
      vertex 90 90 10
      vertex 90 90 0
      vertex 110 90 10
    endloop
  endfacet
  facet normal 0 0 -1
    outer loop
      vertex 90 110 0
      vertex 110 110 0
      vertex 90 90 0
    endloop
  endfacet
  facet normal -0 0 -1
    outer loop
      vertex 90 90 0
      vertex 110 110 0
      vertex 110 90 0
    endloop
  endfacet
  facet normal 0 1 -0
    outer loop
      vertex 90 110 10
      vertex 110 110 10
      vertex 90 110 0
    endloop
  endfacet
  facet normal 0 1 0
    outer loop
      vertex 90 110 0
      vertex 110 110 10
      vertex 110 110 0
    endloop
  endfacet
  facet normal 1 0 0
    outer loop
      vertex 110 90 0
      vertex 110 110 0
      vertex 110 110 10
    endloop
  endfacet
  facet normal 1 0 -0
    outer loop
      vertex 110 90 10
      vertex 110 90 0
      vertex 110 110 10
    endloop
  endfacet
endsolid OpenSCAD_Model
