solid OpenSCAD_Model
  facet normal -1.000000 -0.000000 -0.000000
    outer loop
      vertex 0.000000 0.000000 0.000000
      vertex 0.000000 0.000000 2.330000
      vertex 0.000000 28.250000 0.000000
    endloop
  endfacet
  facet normal -1.000000 0.000000 0.000000
    outer loop
      vertex 0.000000 28.250000 0.000000
      vertex 0.000000 0.000000 2.330000
      vertex 0.000000 28.250000 2.330000
    endloop
  endfacet
  facet normal 0.000000 -1.000000 0.000000
    outer loop
      vertex 0.000000 0.000000 2.330000
      vertex 0.000000 0.000000 0.000000
      vertex 28.250000 0.000000 0.000000
    endloop
  endfacet
  facet normal 0.000000 -1.000000 0.000000
    outer loop
      vertex 28.250000 0.000000 2.330000
      vertex 0.000000 0.000000 2.330000
      vertex 28.250000 0.000000 0.000000
    endloop
  endfacet
  facet normal 0.000000 -0.000000 -1.000000
    outer loop
      vertex 16.303308 25.544089 0.000000
      vertex 0.000000 28.250000 0.000000
      vertex 28.250000 28.250000 0.000000
    endloop
  endfacet
  facet normal 0.000000 -0.000000 -1.000000
    outer loop
      vertex 0.000000 0.000000 0.000000
      vertex 0.000000 28.250000 0.000000
      vertex 2.500000 14.125000 0.000000
    endloop
  endfacet
  facet normal 0.000000 0.000000 -1.000000
    outer loop
      vertex 0.000000 0.000000 0.000000
      vertex 2.500000 14.125000 0.000000
      vertex 2.522939 13.395060 0.000000
    endloop
  endfacet
  facet normal 0.000000 0.000000 -1.000000
    outer loop
      vertex 0.000000 0.000000 0.000000
      vertex 2.522939 13.395060 0.000000
      vertex 2.591667 12.668001 0.000000
    endloop
  endfacet
  facet normal 0.000000 0.000000 -1.000000
    outer loop
      vertex 0.000000 0.000000 0.000000
      vertex 2.591667 12.668001 0.000000
      vertex 2.705911 11.946692 0.000000
    endloop
  endfacet
  facet normal 0.000000 0.000000 -1.000000
    outer loop
      vertex 0.000000 0.000000 0.000000
      vertex 2.705911 11.946692 0.000000
      vertex 2.865221 11.233980 0.000000
    endloop
  endfacet
  facet normal 0.000000 0.000000 -1.000000
    outer loop
      vertex 0.000000 0.000000 0.000000
      vertex 2.865221 11.233980 0.000000
      vertex 3.068968 10.532677 0.000000
    endloop
  endfacet
  facet normal 0.000000 0.000000 -1.000000
    outer loop
      vertex 0.000000 0.000000 0.000000
      vertex 3.068968 10.532677 0.000000
      vertex 3.316348 9.845552 0.000000
    endloop
  endfacet
  facet normal 0.000000 0.000000 -1.000000
    outer loop
      vertex 0.000000 0.000000 0.000000
      vertex 3.316348 9.845552 0.000000
      vertex 3.606386 9.175316 0.000000
    endloop
  endfacet
  facet normal 0.000000 0.000000 -1.000000
    outer loop
      vertex 0.000000 0.000000 0.000000
      vertex 3.606386 9.175316 0.000000
      vertex 3.937935 8.524614 0.000000
    endloop
  endfacet
  facet normal 0.000000 0.000000 -1.000000
    outer loop
      vertex 0.000000 0.000000 0.000000
      vertex 3.937935 8.524614 0.000000
      vertex 4.309688 7.896014 0.000000
    endloop
  endfacet
  facet normal 0.000000 0.000000 -1.000000
    outer loop
      vertex 0.000000 0.000000 0.000000
      vertex 4.309688 7.896014 0.000000
      vertex 4.720177 7.291996 0.000000
    endloop
  endfacet
  facet normal 0.000000 0.000000 -1.000000
    outer loop
      vertex 0.000000 0.000000 0.000000
      vertex 4.720177 7.291996 0.000000
      vertex 5.167784 6.714946 0.000000
    endloop
  endfacet
  facet normal 0.000000 0.000000 -1.000000
    outer loop
      vertex 0.000000 0.000000 0.000000
      vertex 5.167784 6.714946 0.000000
      vertex 5.650740 6.167140 0.000000
    endloop
  endfacet
  facet normal 0.000000 0.000000 -1.000000
    outer loop
      vertex 0.000000 0.000000 0.000000
      vertex 5.650740 6.167140 0.000000
      vertex 6.167140 5.650740 0.000000
    endloop
  endfacet
  facet normal 0.000000 0.000000 -1.000000
    outer loop
      vertex 0.000000 0.000000 0.000000
      vertex 6.167140 5.650740 0.000000
      vertex 6.714946 5.167784 0.000000
    endloop
  endfacet
  facet normal 0.000000 0.000000 -1.000000
    outer loop
      vertex 0.000000 0.000000 0.000000
      vertex 6.714946 5.167784 0.000000
      vertex 7.291996 4.720177 0.000000
    endloop
  endfacet
  facet normal 0.000000 0.000000 -1.000000
    outer loop
      vertex 0.000000 0.000000 0.000000
      vertex 7.291996 4.720177 0.000000
      vertex 7.896014 4.309688 0.000000
    endloop
  endfacet
  facet normal 0.000000 0.000000 -1.000000
    outer loop
      vertex 0.000000 0.000000 0.000000
      vertex 7.896014 4.309688 0.000000
      vertex 8.524614 3.937935 0.000000
    endloop
  endfacet
  facet normal 0.000000 0.000000 -1.000000
    outer loop
      vertex 0.000000 0.000000 0.000000
      vertex 8.524614 3.937935 0.000000
      vertex 9.175316 3.606386 0.000000
    endloop
  endfacet
  facet normal 0.000000 0.000000 -1.000000
    outer loop
      vertex 0.000000 0.000000 0.000000
      vertex 9.175316 3.606386 0.000000
      vertex 9.845552 3.316348 0.000000
    endloop
  endfacet
  facet normal 0.000000 0.000000 -1.000000
    outer loop
      vertex 0.000000 0.000000 0.000000
      vertex 9.845552 3.316348 0.000000
      vertex 10.532677 3.068968 0.000000
    endloop
  endfacet
  facet normal 0.000000 0.000000 -1.000000
    outer loop
      vertex 0.000000 0.000000 0.000000
      vertex 10.532677 3.068968 0.000000
      vertex 11.233980 2.865221 0.000000
    endloop
  endfacet
  facet normal 0.000000 0.000000 -1.000000
    outer loop
      vertex 0.000000 0.000000 0.000000
      vertex 11.233980 2.865221 0.000000
      vertex 11.946692 2.705911 0.000000
    endloop
  endfacet
  facet normal -0.000000 0.000000 -1.000000
    outer loop
      vertex 0.000000 0.000000 0.000000
      vertex 11.946692 2.705911 0.000000
      vertex 28.250000 0.000000 0.000000
    endloop
  endfacet
  facet normal 0.000000 0.000000 -1.000000
    outer loop
      vertex 11.946692 2.705911 0.000000
      vertex 12.668001 2.591667 0.000000
      vertex 28.250000 0.000000 0.000000
    endloop
  endfacet
  facet normal 0.000000 0.000000 -1.000000
    outer loop
      vertex 14.125000 2.500000 0.000000
      vertex 28.250000 0.000000 0.000000
      vertex 13.395060 2.522939 0.000000
    endloop
  endfacet
  facet normal 0.000000 0.000000 -1.000000
    outer loop
      vertex 14.854940 2.522939 0.000000
      vertex 28.250000 0.000000 0.000000
      vertex 14.125000 2.500000 0.000000
    endloop
  endfacet
  facet normal 0.000000 0.000000 -1.000000
    outer loop
      vertex 15.581999 2.591667 0.000000
      vertex 28.250000 0.000000 0.000000
      vertex 14.854940 2.522939 0.000000
    endloop
  endfacet
  facet normal 0.000000 0.000000 -1.000000
    outer loop
      vertex 16.303308 2.705911 0.000000
      vertex 28.250000 0.000000 0.000000
      vertex 15.581999 2.591667 0.000000
    endloop
  endfacet
  facet normal 0.000000 0.000000 -1.000000
    outer loop
      vertex 17.016020 2.865221 0.000000
      vertex 28.250000 0.000000 0.000000
      vertex 16.303308 2.705911 0.000000
    endloop
  endfacet
  facet normal 0.000000 0.000000 -1.000000
    outer loop
      vertex 17.717323 3.068968 0.000000
      vertex 28.250000 0.000000 0.000000
      vertex 17.016020 2.865221 0.000000
    endloop
  endfacet
  facet normal 0.000000 0.000000 -1.000000
    outer loop
      vertex 18.404448 3.316348 0.000000
      vertex 28.250000 0.000000 0.000000
      vertex 17.717323 3.068968 0.000000
    endloop
  endfacet
  facet normal 0.000000 0.000000 -1.000000
    outer loop
      vertex 19.074684 3.606386 0.000000
      vertex 28.250000 0.000000 0.000000
      vertex 18.404448 3.316348 0.000000
    endloop
  endfacet
  facet normal 0.000000 0.000000 -1.000000
    outer loop
      vertex 19.725386 3.937935 0.000000
      vertex 28.250000 0.000000 0.000000
      vertex 19.074684 3.606386 0.000000
    endloop
  endfacet
  facet normal 0.000000 0.000000 -1.000000
    outer loop
      vertex 20.353986 4.309688 0.000000
      vertex 28.250000 0.000000 0.000000
      vertex 19.725386 3.937935 0.000000
    endloop
  endfacet
  facet normal 0.000000 0.000000 -1.000000
    outer loop
      vertex 20.958004 4.720177 0.000000
      vertex 28.250000 0.000000 0.000000
      vertex 20.353986 4.309688 0.000000
    endloop
  endfacet
  facet normal 0.000000 0.000000 -1.000000
    outer loop
      vertex 22.599260 6.167140 0.000000
      vertex 28.250000 0.000000 0.000000
      vertex 22.082860 5.650740 0.000000
    endloop
  endfacet
  facet normal 0.000000 -0.000000 -1.000000
    outer loop
      vertex 5.167784 21.535054 0.000000
      vertex 0.000000 28.250000 0.000000
      vertex 5.650740 22.082860 0.000000
    endloop
  endfacet
  facet normal -0.000000 0.000000 -1.000000
    outer loop
      vertex 20.958004 4.720177 0.000000
      vertex 21.535054 5.167784 0.000000
      vertex 28.250000 0.000000 0.000000
    endloop
  endfacet
  facet normal -0.000000 0.000000 -1.000000
    outer loop
      vertex 21.535054 5.167784 0.000000
      vertex 22.082860 5.650740 0.000000
      vertex 28.250000 0.000000 0.000000
    endloop
  endfacet
  facet normal -0.000000 0.000000 -1.000000
    outer loop
      vertex 25.727061 13.395060 0.000000
      vertex 28.250000 28.250000 0.000000
      vertex 25.658333 12.668001 0.000000
    endloop
  endfacet
  facet normal 0.000000 0.000000 -1.000000
    outer loop
      vertex 28.250000 0.000000 0.000000
      vertex 22.599260 6.167140 0.000000
      vertex 23.082216 6.714946 0.000000
    endloop
  endfacet
  facet normal 0.000000 0.000000 -1.000000
    outer loop
      vertex 28.250000 0.000000 0.000000
      vertex 23.082216 6.714946 0.000000
      vertex 23.529823 7.291996 0.000000
    endloop
  endfacet
  facet normal 0.000000 0.000000 -1.000000
    outer loop
      vertex 28.250000 0.000000 0.000000
      vertex 23.529823 7.291996 0.000000
      vertex 23.940312 7.896014 0.000000
    endloop
  endfacet
  facet normal 0.000000 0.000000 -1.000000
    outer loop
      vertex 28.250000 0.000000 0.000000
      vertex 23.940312 7.896014 0.000000
      vertex 24.312065 8.524614 0.000000
    endloop
  endfacet
  facet normal 0.000000 0.000000 -1.000000
    outer loop
      vertex 28.250000 0.000000 0.000000
      vertex 24.312065 8.524614 0.000000
      vertex 24.643614 9.175316 0.000000
    endloop
  endfacet
  facet normal 0.000000 0.000000 -1.000000
    outer loop
      vertex 28.250000 0.000000 0.000000
      vertex 24.643614 9.175316 0.000000
      vertex 24.933652 9.845552 0.000000
    endloop
  endfacet
  facet normal 0.000000 0.000000 -1.000000
    outer loop
      vertex 28.250000 0.000000 0.000000
      vertex 24.933652 9.845552 0.000000
      vertex 25.181032 10.532677 0.000000
    endloop
  endfacet
  facet normal 0.000000 0.000000 -1.000000
    outer loop
      vertex 28.250000 0.000000 0.000000
      vertex 25.181032 10.532677 0.000000
      vertex 25.384779 11.233980 0.000000
    endloop
  endfacet
  facet normal 0.000000 0.000000 -1.000000
    outer loop
      vertex 28.250000 0.000000 0.000000
      vertex 25.384779 11.233980 0.000000
      vertex 25.544089 11.946692 0.000000
    endloop
  endfacet
  facet normal 0.000000 0.000000 -1.000000
    outer loop
      vertex 28.250000 0.000000 0.000000
      vertex 25.544089 11.946692 0.000000
      vertex 28.250000 28.250000 0.000000
    endloop
  endfacet
  facet normal 0.000000 0.000000 -1.000000
    outer loop
      vertex 25.544089 11.946692 0.000000
      vertex 25.658333 12.668001 0.000000
      vertex 28.250000 28.250000 0.000000
    endloop
  endfacet
  facet normal -0.000000 0.000000 -1.000000
    outer loop
      vertex 25.750000 14.125000 0.000000
      vertex 28.250000 28.250000 0.000000
      vertex 25.727061 13.395060 0.000000
    endloop
  endfacet
  facet normal -0.000000 0.000000 -1.000000
    outer loop
      vertex 25.727061 14.854940 0.000000
      vertex 28.250000 28.250000 0.000000
      vertex 25.750000 14.125000 0.000000
    endloop
  endfacet
  facet normal -0.000000 0.000000 -1.000000
    outer loop
      vertex 25.658333 15.581999 0.000000
      vertex 28.250000 28.250000 0.000000
      vertex 25.727061 14.854940 0.000000
    endloop
  endfacet
  facet normal -0.000000 0.000000 -1.000000
    outer loop
      vertex 25.544089 16.303308 0.000000
      vertex 28.250000 28.250000 0.000000
      vertex 25.658333 15.581999 0.000000
    endloop
  endfacet
  facet normal -0.000000 0.000000 -1.000000
    outer loop
      vertex 25.384779 17.016020 0.000000
      vertex 28.250000 28.250000 0.000000
      vertex 25.544089 16.303308 0.000000
    endloop
  endfacet
  facet normal -0.000000 0.000000 -1.000000
    outer loop
      vertex 25.181032 17.717323 0.000000
      vertex 28.250000 28.250000 0.000000
      vertex 25.384779 17.016020 0.000000
    endloop
  endfacet
  facet normal 0.000000 -0.000000 -1.000000
    outer loop
      vertex 5.650740 22.082860 0.000000
      vertex 0.000000 28.250000 0.000000
      vertex 6.167140 22.599260 0.000000
    endloop
  endfacet
  facet normal -0.000000 -0.000000 -1.000000
    outer loop
      vertex 14.854940 25.727061 0.000000
      vertex 0.000000 28.250000 0.000000
      vertex 15.581999 25.658333 0.000000
    endloop
  endfacet
  facet normal 0.000000 -0.000000 -1.000000
    outer loop
      vertex 25.181032 17.717323 0.000000
      vertex 24.933652 18.404448 0.000000
      vertex 28.250000 28.250000 0.000000
    endloop
  endfacet
  facet normal 0.000000 -0.000000 -1.000000
    outer loop
      vertex 8.524614 24.312065 0.000000
      vertex 0.000000 28.250000 0.000000
      vertex 9.175316 24.643614 0.000000
    endloop
  endfacet
  facet normal 0.000000 -0.000000 -1.000000
    outer loop
      vertex 24.933652 18.404448 0.000000
      vertex 24.643614 19.074684 0.000000
      vertex 28.250000 28.250000 0.000000
    endloop
  endfacet
  facet normal 0.000000 -0.000000 -1.000000
    outer loop
      vertex 24.643614 19.074684 0.000000
      vertex 24.312065 19.725386 0.000000
      vertex 28.250000 28.250000 0.000000
    endloop
  endfacet
  facet normal 0.000000 -0.000000 -1.000000
    outer loop
      vertex 9.175316 24.643614 0.000000
      vertex 0.000000 28.250000 0.000000
      vertex 9.845552 24.933652 0.000000
    endloop
  endfacet
  facet normal 0.000000 -0.000000 -1.000000
    outer loop
      vertex 24.312065 19.725386 0.000000
      vertex 23.940312 20.353986 0.000000
      vertex 28.250000 28.250000 0.000000
    endloop
  endfacet
  facet normal 0.000000 -0.000000 -1.000000
    outer loop
      vertex 23.940312 20.353986 0.000000
      vertex 23.529823 20.958004 0.000000
      vertex 28.250000 28.250000 0.000000
    endloop
  endfacet
  facet normal 0.000000 -0.000000 -1.000000
    outer loop
      vertex 9.845552 24.933652 0.000000
      vertex 0.000000 28.250000 0.000000
      vertex 10.532677 25.181032 0.000000
    endloop
  endfacet
  facet normal 0.000000 -0.000000 -1.000000
    outer loop
      vertex 23.529823 20.958004 0.000000
      vertex 23.082216 21.535054 0.000000
      vertex 28.250000 28.250000 0.000000
    endloop
  endfacet
  facet normal 0.000000 -0.000000 -1.000000
    outer loop
      vertex 23.082216 21.535054 0.000000
      vertex 22.599260 22.082860 0.000000
      vertex 28.250000 28.250000 0.000000
    endloop
  endfacet
  facet normal 0.000000 -0.000000 -1.000000
    outer loop
      vertex 22.599260 22.082860 0.000000
      vertex 22.082860 22.599260 0.000000
      vertex 28.250000 28.250000 0.000000
    endloop
  endfacet
  facet normal 0.000000 -0.000000 -1.000000
    outer loop
      vertex 10.532677 25.181032 0.000000
      vertex 0.000000 28.250000 0.000000
      vertex 11.233980 25.384779 0.000000
    endloop
  endfacet
  facet normal 0.000000 -0.000000 -1.000000
    outer loop
      vertex 22.082860 22.599260 0.000000
      vertex 21.535054 23.082216 0.000000
      vertex 28.250000 28.250000 0.000000
    endloop
  endfacet
  facet normal 0.000000 -0.000000 -1.000000
    outer loop
      vertex 11.233980 25.384779 0.000000
      vertex 0.000000 28.250000 0.000000
      vertex 11.946692 25.544089 0.000000
    endloop
  endfacet
  facet normal 0.000000 -0.000000 -1.000000
    outer loop
      vertex 21.535054 23.082216 0.000000
      vertex 20.958004 23.529823 0.000000
      vertex 28.250000 28.250000 0.000000
    endloop
  endfacet
  facet normal 0.000000 -0.000000 -1.000000
    outer loop
      vertex 20.958004 23.529823 0.000000
      vertex 20.353986 23.940312 0.000000
      vertex 28.250000 28.250000 0.000000
    endloop
  endfacet
  facet normal 0.000000 -0.000000 -1.000000
    outer loop
      vertex 11.946692 25.544089 0.000000
      vertex 0.000000 28.250000 0.000000
      vertex 12.668001 25.658333 0.000000
    endloop
  endfacet
  facet normal 0.000000 -0.000000 -1.000000
    outer loop
      vertex 20.353986 23.940312 0.000000
      vertex 19.725386 24.312065 0.000000
      vertex 28.250000 28.250000 0.000000
    endloop
  endfacet
  facet normal 0.000000 -0.000000 -1.000000
    outer loop
      vertex 19.725386 24.312065 0.000000
      vertex 19.074684 24.643614 0.000000
      vertex 28.250000 28.250000 0.000000
    endloop
  endfacet
  facet normal 0.000000 -0.000000 -1.000000
    outer loop
      vertex 12.668001 25.658333 0.000000
      vertex 0.000000 28.250000 0.000000
      vertex 13.395060 25.727061 0.000000
    endloop
  endfacet
  facet normal 0.000000 -0.000000 -1.000000
    outer loop
      vertex 19.074684 24.643614 0.000000
      vertex 18.404448 24.933652 0.000000
      vertex 28.250000 28.250000 0.000000
    endloop
  endfacet
  facet normal 0.000000 -0.000000 -1.000000
    outer loop
      vertex 13.395060 25.727061 0.000000
      vertex 0.000000 28.250000 0.000000
      vertex 14.125000 25.750000 0.000000
    endloop
  endfacet
  facet normal 0.000000 -0.000000 -1.000000
    outer loop
      vertex 18.404448 24.933652 0.000000
      vertex 17.717323 25.181032 0.000000
      vertex 28.250000 28.250000 0.000000
    endloop
  endfacet
  facet normal -0.000000 -0.000000 -1.000000
    outer loop
      vertex 14.125000 25.750000 0.000000
      vertex 0.000000 28.250000 0.000000
      vertex 14.854940 25.727061 0.000000
    endloop
  endfacet
  facet normal 0.000000 -0.000000 -1.000000
    outer loop
      vertex 17.717323 25.181032 0.000000
      vertex 17.016020 25.384779 0.000000
      vertex 28.250000 28.250000 0.000000
    endloop
  endfacet
  facet normal -0.000000 -0.000000 -1.000000
    outer loop
      vertex 15.581999 25.658333 0.000000
      vertex 0.000000 28.250000 0.000000
      vertex 16.303308 25.544089 0.000000
    endloop
  endfacet
  facet normal 0.000000 -0.000000 -1.000000
    outer loop
      vertex 17.016020 25.384779 0.000000
      vertex 16.303308 25.544089 0.000000
      vertex 28.250000 28.250000 0.000000
    endloop
  endfacet
  facet normal 0.000000 -0.000000 -1.000000
    outer loop
      vertex 7.896014 23.940312 0.000000
      vertex 0.000000 28.250000 0.000000
      vertex 8.524614 24.312065 0.000000
    endloop
  endfacet
  facet normal 0.000000 -0.000000 -1.000000
    outer loop
      vertex 7.291996 23.529823 0.000000
      vertex 0.000000 28.250000 0.000000
      vertex 7.896014 23.940312 0.000000
    endloop
  endfacet
  facet normal 0.000000 -0.000000 -1.000000
    outer loop
      vertex 6.714946 23.082216 0.000000
      vertex 0.000000 28.250000 0.000000
      vertex 7.291996 23.529823 0.000000
    endloop
  endfacet
  facet normal 0.000000 -0.000000 -1.000000
    outer loop
      vertex 6.167140 22.599260 0.000000
      vertex 0.000000 28.250000 0.000000
      vertex 6.714946 23.082216 0.000000
    endloop
  endfacet
  facet normal 0.000000 -0.000000 -1.000000
    outer loop
      vertex 4.720177 20.958004 0.000000
      vertex 0.000000 28.250000 0.000000
      vertex 5.167784 21.535054 0.000000
    endloop
  endfacet
  facet normal 0.000000 -0.000000 -1.000000
    outer loop
      vertex 4.309688 20.353986 0.000000
      vertex 0.000000 28.250000 0.000000
      vertex 4.720177 20.958004 0.000000
    endloop
  endfacet
  facet normal 0.000000 -0.000000 -1.000000
    outer loop
      vertex 3.937935 19.725386 0.000000
      vertex 0.000000 28.250000 0.000000
      vertex 4.309688 20.353986 0.000000
    endloop
  endfacet
  facet normal 0.000000 -0.000000 -1.000000
    outer loop
      vertex 3.606386 19.074684 0.000000
      vertex 0.000000 28.250000 0.000000
      vertex 3.937935 19.725386 0.000000
    endloop
  endfacet
  facet normal 0.000000 -0.000000 -1.000000
    outer loop
      vertex 3.316348 18.404448 0.000000
      vertex 0.000000 28.250000 0.000000
      vertex 3.606386 19.074684 0.000000
    endloop
  endfacet
  facet normal 0.000000 -0.000000 -1.000000
    outer loop
      vertex 3.068968 17.717323 0.000000
      vertex 0.000000 28.250000 0.000000
      vertex 3.316348 18.404448 0.000000
    endloop
  endfacet
  facet normal 0.000000 -0.000000 -1.000000
    outer loop
      vertex 2.865221 17.016020 0.000000
      vertex 0.000000 28.250000 0.000000
      vertex 3.068968 17.717323 0.000000
    endloop
  endfacet
  facet normal 0.000000 -0.000000 -1.000000
    outer loop
      vertex 2.705911 16.303308 0.000000
      vertex 0.000000 28.250000 0.000000
      vertex 2.865221 17.016020 0.000000
    endloop
  endfacet
  facet normal 0.000000 -0.000000 -1.000000
    outer loop
      vertex 2.591667 15.581999 0.000000
      vertex 0.000000 28.250000 0.000000
      vertex 2.705911 16.303308 0.000000
    endloop
  endfacet
  facet normal 0.000000 -0.000000 -1.000000
    outer loop
      vertex 2.522939 14.854940 0.000000
      vertex 0.000000 28.250000 0.000000
      vertex 2.591667 15.581999 0.000000
    endloop
  endfacet
  facet normal 0.000000 -0.000000 -1.000000
    outer loop
      vertex 2.500000 14.125000 0.000000
      vertex 0.000000 28.250000 0.000000
      vertex 2.522939 14.854940 0.000000
    endloop
  endfacet
  facet normal 0.000000 0.000000 -1.000000
    outer loop
      vertex 13.395060 2.522939 0.000000
      vertex 28.250000 0.000000 0.000000
      vertex 12.668001 2.591667 0.000000
    endloop
  endfacet
  facet normal 0.000000 1.000000 0.000000
    outer loop
      vertex 0.000000 28.250000 0.000000
      vertex 0.000000 28.250000 2.330000
      vertex 28.250000 28.250000 0.000000
    endloop
  endfacet
  facet normal 0.000000 1.000000 0.000000
    outer loop
      vertex 28.250000 28.250000 0.000000
      vertex 0.000000 28.250000 2.330000
      vertex 28.250000 28.250000 2.330000
    endloop
  endfacet
  facet normal 0.000000 -0.000000 1.000000
    outer loop
      vertex 16.303308 2.705911 2.330000
      vertex 0.000000 0.000000 2.330000
      vertex 28.250000 0.000000 2.330000
    endloop
  endfacet
  facet normal 0.000000 0.000000 1.000000
    outer loop
      vertex 15.581999 2.591667 2.330000
      vertex 14.854940 2.522939 2.330000
      vertex 0.000000 0.000000 2.330000
    endloop
  endfacet
  facet normal 0.000000 -0.000000 1.000000
    outer loop
      vertex 0.000000 28.250000 2.330000
      vertex 0.000000 0.000000 2.330000
      vertex 2.522939 13.395060 2.330000
    endloop
  endfacet
  facet normal 0.000000 -0.000000 1.000000
    outer loop
      vertex 20.353986 4.309688 2.330000
      vertex 19.725386 3.937935 2.330000
      vertex 28.250000 0.000000 2.330000
    endloop
  endfacet
  facet normal 0.000000 0.000000 1.000000
    outer loop
      vertex 0.000000 28.250000 2.330000
      vertex 2.522939 13.395060 2.330000
      vertex 2.500000 14.125000 2.330000
    endloop
  endfacet
  facet normal -0.000000 0.000000 1.000000
    outer loop
      vertex 13.395060 2.522939 2.330000
      vertex 12.668001 2.591667 2.330000
      vertex 0.000000 0.000000 2.330000
    endloop
  endfacet
  facet normal 0.000000 0.000000 1.000000
    outer loop
      vertex 0.000000 28.250000 2.330000
      vertex 2.500000 14.125000 2.330000
      vertex 2.522939 14.854940 2.330000
    endloop
  endfacet
  facet normal 0.000000 0.000000 1.000000
    outer loop
      vertex 0.000000 28.250000 2.330000
      vertex 2.522939 14.854940 2.330000
      vertex 2.591667 15.581999 2.330000
    endloop
  endfacet
  facet normal 0.000000 0.000000 1.000000
    outer loop
      vertex 0.000000 28.250000 2.330000
      vertex 2.591667 15.581999 2.330000
      vertex 2.705911 16.303308 2.330000
    endloop
  endfacet
  facet normal 0.000000 0.000000 1.000000
    outer loop
      vertex 0.000000 28.250000 2.330000
      vertex 2.705911 16.303308 2.330000
      vertex 2.865221 17.016020 2.330000
    endloop
  endfacet
  facet normal 0.000000 0.000000 1.000000
    outer loop
      vertex 0.000000 28.250000 2.330000
      vertex 2.865221 17.016020 2.330000
      vertex 3.068968 17.717323 2.330000
    endloop
  endfacet
  facet normal 0.000000 0.000000 1.000000
    outer loop
      vertex 0.000000 28.250000 2.330000
      vertex 3.068968 17.717323 2.330000
      vertex 3.316348 18.404448 2.330000
    endloop
  endfacet
  facet normal 0.000000 0.000000 1.000000
    outer loop
      vertex 0.000000 28.250000 2.330000
      vertex 3.316348 18.404448 2.330000
      vertex 3.606386 19.074684 2.330000
    endloop
  endfacet
  facet normal 0.000000 0.000000 1.000000
    outer loop
      vertex 0.000000 28.250000 2.330000
      vertex 3.606386 19.074684 2.330000
      vertex 3.937935 19.725386 2.330000
    endloop
  endfacet
  facet normal 0.000000 -0.000000 1.000000
    outer loop
      vertex 21.535054 5.167784 2.330000
      vertex 20.958004 4.720177 2.330000
      vertex 28.250000 0.000000 2.330000
    endloop
  endfacet
  facet normal 0.000000 0.000000 1.000000
    outer loop
      vertex 0.000000 28.250000 2.330000
      vertex 3.937935 19.725386 2.330000
      vertex 4.309688 20.353986 2.330000
    endloop
  endfacet
  facet normal 0.000000 -0.000000 1.000000
    outer loop
      vertex 20.958004 4.720177 2.330000
      vertex 20.353986 4.309688 2.330000
      vertex 28.250000 0.000000 2.330000
    endloop
  endfacet
  facet normal 0.000000 0.000000 1.000000
    outer loop
      vertex 0.000000 28.250000 2.330000
      vertex 4.309688 20.353986 2.330000
      vertex 4.720177 20.958004 2.330000
    endloop
  endfacet
  facet normal 0.000000 0.000000 1.000000
    outer loop
      vertex 0.000000 28.250000 2.330000
      vertex 4.720177 20.958004 2.330000
      vertex 5.167784 21.535054 2.330000
    endloop
  endfacet
  facet normal 0.000000 0.000000 1.000000
    outer loop
      vertex 12.668001 25.658333 2.330000
      vertex 13.395060 25.727061 2.330000
      vertex 28.250000 28.250000 2.330000
    endloop
  endfacet
  facet normal 0.000000 0.000000 1.000000
    outer loop
      vertex 0.000000 28.250000 2.330000
      vertex 5.167784 21.535054 2.330000
      vertex 5.650740 22.082860 2.330000
    endloop
  endfacet
  facet normal -0.000000 0.000000 1.000000
    outer loop
      vertex 6.714946 23.082216 2.330000
      vertex 0.000000 28.250000 2.330000
      vertex 6.167140 22.599260 2.330000
    endloop
  endfacet
  facet normal -0.000000 0.000000 1.000000
    outer loop
      vertex 7.291996 23.529823 2.330000
      vertex 0.000000 28.250000 2.330000
      vertex 6.714946 23.082216 2.330000
    endloop
  endfacet
  facet normal -0.000000 0.000000 1.000000
    outer loop
      vertex 7.896014 23.940312 2.330000
      vertex 0.000000 28.250000 2.330000
      vertex 7.291996 23.529823 2.330000
    endloop
  endfacet
  facet normal 0.000000 0.000000 1.000000
    outer loop
      vertex 16.303308 25.544089 2.330000
      vertex 17.016020 25.384779 2.330000
      vertex 28.250000 28.250000 2.330000
    endloop
  endfacet
  facet normal -0.000000 0.000000 1.000000
    outer loop
      vertex 8.524614 24.312065 2.330000
      vertex 0.000000 28.250000 2.330000
      vertex 7.896014 23.940312 2.330000
    endloop
  endfacet
  facet normal -0.000000 0.000000 1.000000
    outer loop
      vertex 9.175316 24.643614 2.330000
      vertex 0.000000 28.250000 2.330000
      vertex 8.524614 24.312065 2.330000
    endloop
  endfacet
  facet normal -0.000000 0.000000 1.000000
    outer loop
      vertex 9.845552 24.933652 2.330000
      vertex 0.000000 28.250000 2.330000
      vertex 9.175316 24.643614 2.330000
    endloop
  endfacet
  facet normal -0.000000 0.000000 1.000000
    outer loop
      vertex 10.532677 25.181032 2.330000
      vertex 0.000000 28.250000 2.330000
      vertex 9.845552 24.933652 2.330000
    endloop
  endfacet
  facet normal -0.000000 0.000000 1.000000
    outer loop
      vertex 11.233980 25.384779 2.330000
      vertex 0.000000 28.250000 2.330000
      vertex 10.532677 25.181032 2.330000
    endloop
  endfacet
  facet normal -0.000000 0.000000 1.000000
    outer loop
      vertex 11.946692 25.544089 2.330000
      vertex 0.000000 28.250000 2.330000
      vertex 11.233980 25.384779 2.330000
    endloop
  endfacet
  facet normal 0.000000 0.000000 1.000000
    outer loop
      vertex 28.250000 28.250000 2.330000
      vertex 0.000000 28.250000 2.330000
      vertex 11.946692 25.544089 2.330000
    endloop
  endfacet
  facet normal 0.000000 0.000000 1.000000
    outer loop
      vertex 13.395060 25.727061 2.330000
      vertex 14.125000 25.750000 2.330000
      vertex 28.250000 28.250000 2.330000
    endloop
  endfacet
  facet normal 0.000000 0.000000 1.000000
    outer loop
      vertex 28.250000 28.250000 2.330000
      vertex 11.946692 25.544089 2.330000
      vertex 12.668001 25.658333 2.330000
    endloop
  endfacet
  facet normal 0.000000 0.000000 1.000000
    outer loop
      vertex 14.125000 25.750000 2.330000
      vertex 14.854940 25.727061 2.330000
      vertex 28.250000 28.250000 2.330000
    endloop
  endfacet
  facet normal 0.000000 0.000000 1.000000
    outer loop
      vertex 15.581999 25.658333 2.330000
      vertex 16.303308 25.544089 2.330000
      vertex 28.250000 28.250000 2.330000
    endloop
  endfacet
  facet normal 0.000000 -0.000000 1.000000
    outer loop
      vertex 25.727061 13.395060 2.330000
      vertex 25.658333 12.668001 2.330000
      vertex 28.250000 0.000000 2.330000
    endloop
  endfacet
  facet normal 0.000000 0.000000 1.000000
    outer loop
      vertex 17.016020 25.384779 2.330000
      vertex 17.717323 25.181032 2.330000
      vertex 28.250000 28.250000 2.330000
    endloop
  endfacet
  facet normal 0.000000 0.000000 1.000000
    outer loop
      vertex 25.658333 15.581999 2.330000
      vertex 25.727061 14.854940 2.330000
      vertex 28.250000 0.000000 2.330000
    endloop
  endfacet
  facet normal 0.000000 0.000000 1.000000
    outer loop
      vertex 28.250000 28.250000 2.330000
      vertex 17.717323 25.181032 2.330000
      vertex 18.404448 24.933652 2.330000
    endloop
  endfacet
  facet normal 0.000000 0.000000 1.000000
    outer loop
      vertex 28.250000 28.250000 2.330000
      vertex 18.404448 24.933652 2.330000
      vertex 19.074684 24.643614 2.330000
    endloop
  endfacet
  facet normal 0.000000 -0.000000 1.000000
    outer loop
      vertex 24.643614 9.175316 2.330000
      vertex 24.312065 8.524614 2.330000
      vertex 28.250000 0.000000 2.330000
    endloop
  endfacet
  facet normal 0.000000 0.000000 1.000000
    outer loop
      vertex 28.250000 28.250000 2.330000
      vertex 19.074684 24.643614 2.330000
      vertex 19.725386 24.312065 2.330000
    endloop
  endfacet
  facet normal 0.000000 0.000000 1.000000
    outer loop
      vertex 28.250000 28.250000 2.330000
      vertex 19.725386 24.312065 2.330000
      vertex 20.353986 23.940312 2.330000
    endloop
  endfacet
  facet normal 0.000000 -0.000000 1.000000
    outer loop
      vertex 24.933652 9.845552 2.330000
      vertex 24.643614 9.175316 2.330000
      vertex 28.250000 0.000000 2.330000
    endloop
  endfacet
  facet normal 0.000000 0.000000 1.000000
    outer loop
      vertex 28.250000 28.250000 2.330000
      vertex 20.353986 23.940312 2.330000
      vertex 20.958004 23.529823 2.330000
    endloop
  endfacet
  facet normal 0.000000 0.000000 1.000000
    outer loop
      vertex 28.250000 28.250000 2.330000
      vertex 20.958004 23.529823 2.330000
      vertex 21.535054 23.082216 2.330000
    endloop
  endfacet
  facet normal 0.000000 -0.000000 1.000000
    outer loop
      vertex 25.181032 10.532677 2.330000
      vertex 24.933652 9.845552 2.330000
      vertex 28.250000 0.000000 2.330000
    endloop
  endfacet
  facet normal 0.000000 0.000000 1.000000
    outer loop
      vertex 28.250000 28.250000 2.330000
      vertex 21.535054 23.082216 2.330000
      vertex 22.082860 22.599260 2.330000
    endloop
  endfacet
  facet normal 0.000000 -0.000000 1.000000
    outer loop
      vertex 22.599260 6.167140 2.330000
      vertex 22.082860 5.650740 2.330000
      vertex 28.250000 0.000000 2.330000
    endloop
  endfacet
  facet normal 0.000000 0.000000 1.000000
    outer loop
      vertex 28.250000 28.250000 2.330000
      vertex 22.082860 22.599260 2.330000
      vertex 22.599260 22.082860 2.330000
    endloop
  endfacet
  facet normal 0.000000 0.000000 1.000000
    outer loop
      vertex 28.250000 28.250000 2.330000
      vertex 22.599260 22.082860 2.330000
      vertex 23.082216 21.535054 2.330000
    endloop
  endfacet
  facet normal 0.000000 -0.000000 1.000000
    outer loop
      vertex 25.544089 11.946692 2.330000
      vertex 25.384779 11.233980 2.330000
      vertex 28.250000 0.000000 2.330000
    endloop
  endfacet
  facet normal 0.000000 0.000000 1.000000
    outer loop
      vertex 28.250000 28.250000 2.330000
      vertex 23.082216 21.535054 2.330000
      vertex 23.529823 20.958004 2.330000
    endloop
  endfacet
  facet normal 0.000000 0.000000 1.000000
    outer loop
      vertex 28.250000 28.250000 2.330000
      vertex 23.529823 20.958004 2.330000
      vertex 23.940312 20.353986 2.330000
    endloop
  endfacet
  facet normal 0.000000 0.000000 1.000000
    outer loop
      vertex 28.250000 28.250000 2.330000
      vertex 23.940312 20.353986 2.330000
      vertex 24.312065 19.725386 2.330000
    endloop
  endfacet
  facet normal 0.000000 -0.000000 1.000000
    outer loop
      vertex 25.658333 12.668001 2.330000
      vertex 25.544089 11.946692 2.330000
      vertex 28.250000 0.000000 2.330000
    endloop
  endfacet
  facet normal 0.000000 0.000000 1.000000
    outer loop
      vertex 28.250000 28.250000 2.330000
      vertex 24.312065 19.725386 2.330000
      vertex 24.643614 19.074684 2.330000
    endloop
  endfacet
  facet normal 0.000000 0.000000 1.000000
    outer loop
      vertex 28.250000 28.250000 2.330000
      vertex 24.643614 19.074684 2.330000
      vertex 24.933652 18.404448 2.330000
    endloop
  endfacet
  facet normal 0.000000 -0.000000 1.000000
    outer loop
      vertex 25.750000 14.125000 2.330000
      vertex 25.727061 13.395060 2.330000
      vertex 28.250000 0.000000 2.330000
    endloop
  endfacet
  facet normal 0.000000 0.000000 1.000000
    outer loop
      vertex 28.250000 28.250000 2.330000
      vertex 24.933652 18.404448 2.330000
      vertex 25.181032 17.717323 2.330000
    endloop
  endfacet
  facet normal 0.000000 0.000000 1.000000
    outer loop
      vertex 25.727061 14.854940 2.330000
      vertex 25.750000 14.125000 2.330000
      vertex 28.250000 0.000000 2.330000
    endloop
  endfacet
  facet normal 0.000000 0.000000 1.000000
    outer loop
      vertex 28.250000 28.250000 2.330000
      vertex 25.181032 17.717323 2.330000
      vertex 25.384779 17.016020 2.330000
    endloop
  endfacet
  facet normal 0.000000 0.000000 1.000000
    outer loop
      vertex 28.250000 28.250000 2.330000
      vertex 25.544089 16.303308 2.330000
      vertex 28.250000 0.000000 2.330000
    endloop
  endfacet
  facet normal 0.000000 0.000000 1.000000
    outer loop
      vertex 28.250000 28.250000 2.330000
      vertex 25.384779 17.016020 2.330000
      vertex 25.544089 16.303308 2.330000
    endloop
  endfacet
  facet normal 0.000000 0.000000 1.000000
    outer loop
      vertex 25.544089 16.303308 2.330000
      vertex 25.658333 15.581999 2.330000
      vertex 28.250000 0.000000 2.330000
    endloop
  endfacet
  facet normal 0.000000 -0.000000 1.000000
    outer loop
      vertex 24.312065 8.524614 2.330000
      vertex 23.940312 7.896014 2.330000
      vertex 28.250000 0.000000 2.330000
    endloop
  endfacet
  facet normal 0.000000 -0.000000 1.000000
    outer loop
      vertex 23.940312 7.896014 2.330000
      vertex 23.529823 7.291996 2.330000
      vertex 28.250000 0.000000 2.330000
    endloop
  endfacet
  facet normal 0.000000 -0.000000 1.000000
    outer loop
      vertex 23.529823 7.291996 2.330000
      vertex 23.082216 6.714946 2.330000
      vertex 28.250000 0.000000 2.330000
    endloop
  endfacet
  facet normal 0.000000 -0.000000 1.000000
    outer loop
      vertex 23.082216 6.714946 2.330000
      vertex 22.599260 6.167140 2.330000
      vertex 28.250000 0.000000 2.330000
    endloop
  endfacet
  facet normal 0.000000 -0.000000 1.000000
    outer loop
      vertex 19.725386 3.937935 2.330000
      vertex 19.074684 3.606386 2.330000
      vertex 28.250000 0.000000 2.330000
    endloop
  endfacet
  facet normal 0.000000 -0.000000 1.000000
    outer loop
      vertex 19.074684 3.606386 2.330000
      vertex 18.404448 3.316348 2.330000
      vertex 28.250000 0.000000 2.330000
    endloop
  endfacet
  facet normal 0.000000 -0.000000 1.000000
    outer loop
      vertex 18.404448 3.316348 2.330000
      vertex 17.717323 3.068968 2.330000
      vertex 28.250000 0.000000 2.330000
    endloop
  endfacet
  facet normal 0.000000 -0.000000 1.000000
    outer loop
      vertex 17.717323 3.068968 2.330000
      vertex 17.016020 2.865221 2.330000
      vertex 28.250000 0.000000 2.330000
    endloop
  endfacet
  facet normal 0.000000 -0.000000 1.000000
    outer loop
      vertex 17.016020 2.865221 2.330000
      vertex 16.303308 2.705911 2.330000
      vertex 28.250000 0.000000 2.330000
    endloop
  endfacet
  facet normal 0.000000 -0.000000 1.000000
    outer loop
      vertex 15.581999 2.591667 2.330000
      vertex 0.000000 0.000000 2.330000
      vertex 16.303308 2.705911 2.330000
    endloop
  endfacet
  facet normal 0.000000 0.000000 1.000000
    outer loop
      vertex 14.854940 2.522939 2.330000
      vertex 14.125000 2.500000 2.330000
      vertex 0.000000 0.000000 2.330000
    endloop
  endfacet
  facet normal -0.000000 0.000000 1.000000
    outer loop
      vertex 14.125000 2.500000 2.330000
      vertex 13.395060 2.522939 2.330000
      vertex 0.000000 0.000000 2.330000
    endloop
  endfacet
  facet normal 0.000000 -0.000000 1.000000
    outer loop
      vertex 11.946692 2.705911 2.330000
      vertex 0.000000 0.000000 2.330000
      vertex 12.668001 2.591667 2.330000
    endloop
  endfacet
  facet normal 0.000000 -0.000000 1.000000
    outer loop
      vertex 11.233980 2.865221 2.330000
      vertex 0.000000 0.000000 2.330000
      vertex 11.946692 2.705911 2.330000
    endloop
  endfacet
  facet normal 0.000000 -0.000000 1.000000
    outer loop
      vertex 10.532677 3.068968 2.330000
      vertex 0.000000 0.000000 2.330000
      vertex 11.233980 2.865221 2.330000
    endloop
  endfacet
  facet normal 0.000000 -0.000000 1.000000
    outer loop
      vertex 9.845552 3.316348 2.330000
      vertex 0.000000 0.000000 2.330000
      vertex 10.532677 3.068968 2.330000
    endloop
  endfacet
  facet normal 0.000000 -0.000000 1.000000
    outer loop
      vertex 9.175316 3.606386 2.330000
      vertex 0.000000 0.000000 2.330000
      vertex 9.845552 3.316348 2.330000
    endloop
  endfacet
  facet normal 0.000000 -0.000000 1.000000
    outer loop
      vertex 8.524614 3.937935 2.330000
      vertex 0.000000 0.000000 2.330000
      vertex 9.175316 3.606386 2.330000
    endloop
  endfacet
  facet normal 0.000000 -0.000000 1.000000
    outer loop
      vertex 7.896014 4.309688 2.330000
      vertex 0.000000 0.000000 2.330000
      vertex 8.524614 3.937935 2.330000
    endloop
  endfacet
  facet normal 0.000000 -0.000000 1.000000
    outer loop
      vertex 7.291996 4.720177 2.330000
      vertex 0.000000 0.000000 2.330000
      vertex 7.896014 4.309688 2.330000
    endloop
  endfacet
  facet normal 0.000000 -0.000000 1.000000
    outer loop
      vertex 6.714946 5.167784 2.330000
      vertex 0.000000 0.000000 2.330000
      vertex 7.291996 4.720177 2.330000
    endloop
  endfacet
  facet normal 0.000000 -0.000000 1.000000
    outer loop
      vertex 6.167140 5.650740 2.330000
      vertex 0.000000 0.000000 2.330000
      vertex 6.714946 5.167784 2.330000
    endloop
  endfacet
  facet normal 0.000000 -0.000000 1.000000
    outer loop
      vertex 5.650740 6.167140 2.330000
      vertex 0.000000 0.000000 2.330000
      vertex 6.167140 5.650740 2.330000
    endloop
  endfacet
  facet normal 0.000000 -0.000000 1.000000
    outer loop
      vertex 5.167784 6.714946 2.330000
      vertex 0.000000 0.000000 2.330000
      vertex 5.650740 6.167140 2.330000
    endloop
  endfacet
  facet normal 0.000000 -0.000000 1.000000
    outer loop
      vertex 4.720177 7.291996 2.330000
      vertex 0.000000 0.000000 2.330000
      vertex 5.167784 6.714946 2.330000
    endloop
  endfacet
  facet normal 0.000000 -0.000000 1.000000
    outer loop
      vertex 4.309688 7.896014 2.330000
      vertex 0.000000 0.000000 2.330000
      vertex 4.720177 7.291996 2.330000
    endloop
  endfacet
  facet normal 0.000000 -0.000000 1.000000
    outer loop
      vertex 3.937935 8.524614 2.330000
      vertex 0.000000 0.000000 2.330000
      vertex 4.309688 7.896014 2.330000
    endloop
  endfacet
  facet normal 0.000000 -0.000000 1.000000
    outer loop
      vertex 3.606386 9.175316 2.330000
      vertex 0.000000 0.000000 2.330000
      vertex 3.937935 8.524614 2.330000
    endloop
  endfacet
  facet normal 0.000000 -0.000000 1.000000
    outer loop
      vertex 3.316348 9.845552 2.330000
      vertex 0.000000 0.000000 2.330000
      vertex 3.606386 9.175316 2.330000
    endloop
  endfacet
  facet normal 0.000000 -0.000000 1.000000
    outer loop
      vertex 3.068968 10.532677 2.330000
      vertex 0.000000 0.000000 2.330000
      vertex 3.316348 9.845552 2.330000
    endloop
  endfacet
  facet normal 0.000000 -0.000000 1.000000
    outer loop
      vertex 2.865221 11.233980 2.330000
      vertex 0.000000 0.000000 2.330000
      vertex 3.068968 10.532677 2.330000
    endloop
  endfacet
  facet normal 0.000000 -0.000000 1.000000
    outer loop
      vertex 2.705911 11.946692 2.330000
      vertex 0.000000 0.000000 2.330000
      vertex 2.865221 11.233980 2.330000
    endloop
  endfacet
  facet normal 0.000000 -0.000000 1.000000
    outer loop
      vertex 2.591667 12.668001 2.330000
      vertex 0.000000 0.000000 2.330000
      vertex 2.705911 11.946692 2.330000
    endloop
  endfacet
  facet normal 0.000000 -0.000000 1.000000
    outer loop
      vertex 2.522939 13.395060 2.330000
      vertex 0.000000 0.000000 2.330000
      vertex 2.591667 12.668001 2.330000
    endloop
  endfacet
  facet normal 0.000000 0.000000 1.000000
    outer loop
      vertex 5.650740 22.082860 2.330000
      vertex 6.167140 22.599260 2.330000
      vertex 0.000000 28.250000 2.330000
    endloop
  endfacet
  facet normal 0.000000 0.000000 1.000000
    outer loop
      vertex 14.854940 25.727061 2.330000
      vertex 15.581999 25.658333 2.330000
      vertex 28.250000 28.250000 2.330000
    endloop
  endfacet
  facet normal 0.000000 -0.000000 1.000000
    outer loop
      vertex 25.384779 11.233980 2.330000
      vertex 25.181032 10.532677 2.330000
      vertex 28.250000 0.000000 2.330000
    endloop
  endfacet
  facet normal 0.000000 -0.000000 1.000000
    outer loop
      vertex 22.082860 5.650740 2.330000
      vertex 21.535054 5.167784 2.330000
      vertex 28.250000 0.000000 2.330000
    endloop
  endfacet
  facet normal 1.000000 0.000000 -0.000000
    outer loop
      vertex 28.250000 0.000000 2.330000
      vertex 28.250000 0.000000 0.000000
      vertex 28.250000 28.250000 0.000000
    endloop
  endfacet
  facet normal 1.000000 0.000000 0.000000
    outer loop
      vertex 28.250000 28.250000 2.330000
      vertex 28.250000 0.000000 2.330000
      vertex 28.250000 28.250000 0.000000
    endloop
  endfacet
  facet normal 0.999507 0.031410 0.000000
    outer loop
      vertex 2.500000 14.125000 2.330000
      vertex 2.522939 13.395060 2.330000
      vertex 2.522939 13.395060 0.000000
    endloop
  endfacet
  facet normal 0.999507 0.031410 0.000000
    outer loop
      vertex 2.500000 14.125000 0.000000
      vertex 2.500000 14.125000 2.330000
      vertex 2.522939 13.395060 0.000000
    endloop
  endfacet
  facet normal 0.999507 -0.031410 0.000000
    outer loop
      vertex 2.522939 14.854940 0.000000
      vertex 2.522939 14.854940 2.330000
      vertex 2.500000 14.125000 2.330000
    endloop
  endfacet
  facet normal 0.999507 -0.031410 0.000000
    outer loop
      vertex 2.500000 14.125000 0.000000
      vertex 2.522939 14.854940 0.000000
      vertex 2.500000 14.125000 2.330000
    endloop
  endfacet
  facet normal 0.995562 -0.094109 0.000000
    outer loop
      vertex 2.591667 15.581999 0.000000
      vertex 2.591667 15.581999 2.330000
      vertex 2.522939 14.854940 2.330000
    endloop
  endfacet
  facet normal 0.995562 -0.094109 0.000000
    outer loop
      vertex 2.522939 14.854940 0.000000
      vertex 2.591667 15.581999 0.000000
      vertex 2.522939 14.854940 2.330000
    endloop
  endfacet
  facet normal 0.987688 -0.156434 0.000000
    outer loop
      vertex 2.705911 16.303308 0.000000
      vertex 2.705911 16.303308 2.330000
      vertex 2.591667 15.581999 2.330000
    endloop
  endfacet
  facet normal 0.987688 -0.156434 0.000000
    outer loop
      vertex 2.591667 15.581999 0.000000
      vertex 2.705911 16.303308 0.000000
      vertex 2.591667 15.581999 2.330000
    endloop
  endfacet
  facet normal 0.975917 -0.218143 0.000000
    outer loop
      vertex 2.865221 17.016020 0.000000
      vertex 2.865221 17.016020 2.330000
      vertex 2.705911 16.303308 2.330000
    endloop
  endfacet
  facet normal 0.975917 -0.218143 0.000000
    outer loop
      vertex 2.705911 16.303308 0.000000
      vertex 2.865221 17.016020 0.000000
      vertex 2.705911 16.303308 2.330000
    endloop
  endfacet
  facet normal 0.960294 -0.278991 0.000000
    outer loop
      vertex 3.068968 17.717323 0.000000
      vertex 3.068968 17.717323 2.330000
      vertex 2.865221 17.016020 2.330000
    endloop
  endfacet
  facet normal 0.960294 -0.278991 0.000000
    outer loop
      vertex 2.865221 17.016020 0.000000
      vertex 3.068968 17.717323 0.000000
      vertex 2.865221 17.016020 2.330000
    endloop
  endfacet
  facet normal 0.940881 -0.338738 0.000000
    outer loop
      vertex 3.316348 18.404448 0.000000
      vertex 3.316348 18.404448 2.330000
      vertex 3.068968 17.717323 2.330000
    endloop
  endfacet
  facet normal 0.940881 -0.338738 0.000000
    outer loop
      vertex 3.068968 17.717323 0.000000
      vertex 3.316348 18.404448 0.000000
      vertex 3.068968 17.717323 2.330000
    endloop
  endfacet
  facet normal 0.917754 -0.397149 0.000000
    outer loop
      vertex 3.606386 19.074684 0.000000
      vertex 3.606386 19.074684 2.330000
      vertex 3.316348 18.404448 2.330000
    endloop
  endfacet
  facet normal 0.917754 -0.397149 0.000000
    outer loop
      vertex 3.316348 18.404448 0.000000
      vertex 3.606386 19.074684 0.000000
      vertex 3.316348 18.404448 2.330000
    endloop
  endfacet
  facet normal 0.891007 -0.453990 0.000000
    outer loop
      vertex 3.937935 19.725386 0.000000
      vertex 3.937935 19.725386 2.330000
      vertex 3.606386 19.074684 2.330000
    endloop
  endfacet
  facet normal 0.891007 -0.453990 0.000000
    outer loop
      vertex 3.606386 19.074684 0.000000
      vertex 3.937935 19.725386 0.000000
      vertex 3.606386 19.074684 2.330000
    endloop
  endfacet
  facet normal 0.860742 -0.509041 0.000000
    outer loop
      vertex 4.309688 20.353986 0.000000
      vertex 4.309688 20.353986 2.330000
      vertex 3.937935 19.725386 2.330000
    endloop
  endfacet
  facet normal 0.860742 -0.509041 0.000000
    outer loop
      vertex 3.937935 19.725386 0.000000
      vertex 4.309688 20.353986 0.000000
      vertex 3.937935 19.725386 2.330000
    endloop
  endfacet
  facet normal 0.827081 -0.562082 0.000000
    outer loop
      vertex 4.720177 20.958004 0.000000
      vertex 4.720177 20.958004 2.330000
      vertex 4.309688 20.353986 2.330000
    endloop
  endfacet
  facet normal 0.827081 -0.562082 0.000000
    outer loop
      vertex 4.309688 20.353986 0.000000
      vertex 4.720177 20.958004 0.000000
      vertex 4.309688 20.353986 2.330000
    endloop
  endfacet
  facet normal 0.790154 -0.612908 0.000000
    outer loop
      vertex 5.167784 21.535054 0.000000
      vertex 5.167784 21.535054 2.330000
      vertex 4.720177 20.958004 2.330000
    endloop
  endfacet
  facet normal 0.790154 -0.612908 0.000000
    outer loop
      vertex 4.720177 20.958004 0.000000
      vertex 5.167784 21.535054 0.000000
      vertex 4.720177 20.958004 2.330000
    endloop
  endfacet
  facet normal 0.750111 -0.661312 0.000000
    outer loop
      vertex 5.650740 22.082860 0.000000
      vertex 5.650740 22.082860 2.330000
      vertex 5.167784 21.535054 2.330000
    endloop
  endfacet
  facet normal 0.750111 -0.661312 0.000000
    outer loop
      vertex 5.167784 21.535054 0.000000
      vertex 5.650740 22.082860 0.000000
      vertex 5.167784 21.535054 2.330000
    endloop
  endfacet
  facet normal 0.707107 -0.707107 0.000000
    outer loop
      vertex 6.167140 22.599260 0.000000
      vertex 6.167140 22.599260 2.330000
      vertex 5.650740 22.082860 2.330000
    endloop
  endfacet
  facet normal 0.707107 -0.707107 0.000000
    outer loop
      vertex 5.650740 22.082860 0.000000
      vertex 6.167140 22.599260 0.000000
      vertex 5.650740 22.082860 2.330000
    endloop
  endfacet
  facet normal 0.661312 -0.750111 0.000000
    outer loop
      vertex 6.714946 23.082216 0.000000
      vertex 6.714946 23.082216 2.330000
      vertex 6.167140 22.599260 2.330000
    endloop
  endfacet
  facet normal 0.661312 -0.750111 0.000000
    outer loop
      vertex 6.167140 22.599260 0.000000
      vertex 6.714946 23.082216 0.000000
      vertex 6.167140 22.599260 2.330000
    endloop
  endfacet
  facet normal 0.612908 -0.790154 0.000000
    outer loop
      vertex 7.291996 23.529823 0.000000
      vertex 7.291996 23.529823 2.330000
      vertex 6.714946 23.082216 2.330000
    endloop
  endfacet
  facet normal 0.612908 -0.790154 0.000000
    outer loop
      vertex 6.714946 23.082216 0.000000
      vertex 7.291996 23.529823 0.000000
      vertex 6.714946 23.082216 2.330000
    endloop
  endfacet
  facet normal 0.562082 -0.827081 0.000000
    outer loop
      vertex 7.896014 23.940312 0.000000
      vertex 7.896014 23.940312 2.330000
      vertex 7.291996 23.529823 2.330000
    endloop
  endfacet
  facet normal 0.562082 -0.827081 0.000000
    outer loop
      vertex 7.291996 23.529823 0.000000
      vertex 7.896014 23.940312 0.000000
      vertex 7.291996 23.529823 2.330000
    endloop
  endfacet
  facet normal 0.509041 -0.860742 0.000000
    outer loop
      vertex 8.524614 24.312065 0.000000
      vertex 8.524614 24.312065 2.330000
      vertex 7.896014 23.940312 2.330000
    endloop
  endfacet
  facet normal 0.509041 -0.860742 0.000000
    outer loop
      vertex 7.896014 23.940312 0.000000
      vertex 8.524614 24.312065 0.000000
      vertex 7.896014 23.940312 2.330000
    endloop
  endfacet
  facet normal 0.453990 -0.891007 0.000000
    outer loop
      vertex 9.175316 24.643614 0.000000
      vertex 9.175316 24.643614 2.330000
      vertex 8.524614 24.312065 2.330000
    endloop
  endfacet
  facet normal 0.453990 -0.891007 0.000000
    outer loop
      vertex 8.524614 24.312065 0.000000
      vertex 9.175316 24.643614 0.000000
      vertex 8.524614 24.312065 2.330000
    endloop
  endfacet
  facet normal 0.397149 -0.917754 0.000000
    outer loop
      vertex 9.845552 24.933652 0.000000
      vertex 9.845552 24.933652 2.330000
      vertex 9.175316 24.643614 2.330000
    endloop
  endfacet
  facet normal 0.397149 -0.917754 0.000000
    outer loop
      vertex 9.175316 24.643614 0.000000
      vertex 9.845552 24.933652 0.000000
      vertex 9.175316 24.643614 2.330000
    endloop
  endfacet
  facet normal 0.338738 -0.940881 0.000000
    outer loop
      vertex 10.532677 25.181032 0.000000
      vertex 10.532677 25.181032 2.330000
      vertex 9.845552 24.933652 2.330000
    endloop
  endfacet
  facet normal 0.338738 -0.940881 0.000000
    outer loop
      vertex 9.845552 24.933652 0.000000
      vertex 10.532677 25.181032 0.000000
      vertex 9.845552 24.933652 2.330000
    endloop
  endfacet
  facet normal 0.278991 -0.960294 0.000000
    outer loop
      vertex 11.233980 25.384779 0.000000
      vertex 11.233980 25.384779 2.330000
      vertex 10.532677 25.181032 2.330000
    endloop
  endfacet
  facet normal 0.278991 -0.960294 0.000000
    outer loop
      vertex 10.532677 25.181032 0.000000
      vertex 11.233980 25.384779 0.000000
      vertex 10.532677 25.181032 2.330000
    endloop
  endfacet
  facet normal 0.218143 -0.975917 0.000000
    outer loop
      vertex 11.946692 25.544089 0.000000
      vertex 11.946692 25.544089 2.330000
      vertex 11.233980 25.384779 2.330000
    endloop
  endfacet
  facet normal 0.218143 -0.975917 0.000000
    outer loop
      vertex 11.233980 25.384779 0.000000
      vertex 11.946692 25.544089 0.000000
      vertex 11.233980 25.384779 2.330000
    endloop
  endfacet
  facet normal 0.156434 -0.987688 0.000000
    outer loop
      vertex 12.668001 25.658333 0.000000
      vertex 12.668001 25.658333 2.330000
      vertex 11.946692 25.544089 2.330000
    endloop
  endfacet
  facet normal 0.156434 -0.987688 0.000000
    outer loop
      vertex 11.946692 25.544089 0.000000
      vertex 12.668001 25.658333 0.000000
      vertex 11.946692 25.544089 2.330000
    endloop
  endfacet
  facet normal 0.094109 -0.995562 0.000000
    outer loop
      vertex 13.395060 25.727061 0.000000
      vertex 13.395060 25.727061 2.330000
      vertex 12.668001 25.658333 2.330000
    endloop
  endfacet
  facet normal 0.094109 -0.995562 0.000000
    outer loop
      vertex 12.668001 25.658333 0.000000
      vertex 13.395060 25.727061 0.000000
      vertex 12.668001 25.658333 2.330000
    endloop
  endfacet
  facet normal 0.031410 -0.999507 0.000000
    outer loop
      vertex 14.125000 25.750000 0.000000
      vertex 14.125000 25.750000 2.330000
      vertex 13.395060 25.727061 2.330000
    endloop
  endfacet
  facet normal 0.031410 -0.999507 0.000000
    outer loop
      vertex 13.395060 25.727061 0.000000
      vertex 14.125000 25.750000 0.000000
      vertex 13.395060 25.727061 2.330000
    endloop
  endfacet
  facet normal -0.031410 -0.999507 -0.000000
    outer loop
      vertex 14.854940 25.727061 0.000000
      vertex 14.854940 25.727061 2.330000
      vertex 14.125000 25.750000 2.330000
    endloop
  endfacet
  facet normal -0.031410 -0.999507 -0.000000
    outer loop
      vertex 14.125000 25.750000 0.000000
      vertex 14.854940 25.727061 0.000000
      vertex 14.125000 25.750000 2.330000
    endloop
  endfacet
  facet normal -0.094109 -0.995562 -0.000000
    outer loop
      vertex 15.581999 25.658333 0.000000
      vertex 15.581999 25.658333 2.330000
      vertex 14.854940 25.727061 2.330000
    endloop
  endfacet
  facet normal -0.094109 -0.995562 -0.000000
    outer loop
      vertex 14.854940 25.727061 0.000000
      vertex 15.581999 25.658333 0.000000
      vertex 14.854940 25.727061 2.330000
    endloop
  endfacet
  facet normal -0.156434 -0.987688 -0.000000
    outer loop
      vertex 16.303308 25.544089 0.000000
      vertex 16.303308 25.544089 2.330000
      vertex 15.581999 25.658333 2.330000
    endloop
  endfacet
  facet normal -0.156434 -0.987688 -0.000000
    outer loop
      vertex 15.581999 25.658333 0.000000
      vertex 16.303308 25.544089 0.000000
      vertex 15.581999 25.658333 2.330000
    endloop
  endfacet
  facet normal -0.218143 -0.975917 -0.000000
    outer loop
      vertex 17.016020 25.384779 0.000000
      vertex 17.016020 25.384779 2.330000
      vertex 16.303308 25.544089 2.330000
    endloop
  endfacet
  facet normal -0.218143 -0.975917 -0.000000
    outer loop
      vertex 16.303308 25.544089 0.000000
      vertex 17.016020 25.384779 0.000000
      vertex 16.303308 25.544089 2.330000
    endloop
  endfacet
  facet normal -0.278991 -0.960294 -0.000000
    outer loop
      vertex 17.717323 25.181032 0.000000
      vertex 17.717323 25.181032 2.330000
      vertex 17.016020 25.384779 2.330000
    endloop
  endfacet
  facet normal -0.278991 -0.960294 -0.000000
    outer loop
      vertex 17.016020 25.384779 0.000000
      vertex 17.717323 25.181032 0.000000
      vertex 17.016020 25.384779 2.330000
    endloop
  endfacet
  facet normal -0.338738 -0.940881 -0.000000
    outer loop
      vertex 18.404448 24.933652 0.000000
      vertex 18.404448 24.933652 2.330000
      vertex 17.717323 25.181032 2.330000
    endloop
  endfacet
  facet normal -0.338738 -0.940881 -0.000000
    outer loop
      vertex 17.717323 25.181032 0.000000
      vertex 18.404448 24.933652 0.000000
      vertex 17.717323 25.181032 2.330000
    endloop
  endfacet
  facet normal -0.397149 -0.917754 -0.000000
    outer loop
      vertex 19.074684 24.643614 0.000000
      vertex 19.074684 24.643614 2.330000
      vertex 18.404448 24.933652 2.330000
    endloop
  endfacet
  facet normal -0.397149 -0.917754 -0.000000
    outer loop
      vertex 18.404448 24.933652 0.000000
      vertex 19.074684 24.643614 0.000000
      vertex 18.404448 24.933652 2.330000
    endloop
  endfacet
  facet normal -0.453990 -0.891007 -0.000000
    outer loop
      vertex 19.725386 24.312065 0.000000
      vertex 19.725386 24.312065 2.330000
      vertex 19.074684 24.643614 2.330000
    endloop
  endfacet
  facet normal -0.453990 -0.891007 -0.000000
    outer loop
      vertex 19.074684 24.643614 0.000000
      vertex 19.725386 24.312065 0.000000
      vertex 19.074684 24.643614 2.330000
    endloop
  endfacet
  facet normal -0.509041 -0.860742 -0.000000
    outer loop
      vertex 20.353986 23.940312 0.000000
      vertex 20.353986 23.940312 2.330000
      vertex 19.725386 24.312065 2.330000
    endloop
  endfacet
  facet normal -0.509041 -0.860742 -0.000000
    outer loop
      vertex 19.725386 24.312065 0.000000
      vertex 20.353986 23.940312 0.000000
      vertex 19.725386 24.312065 2.330000
    endloop
  endfacet
  facet normal -0.562082 -0.827081 -0.000000
    outer loop
      vertex 20.958004 23.529823 0.000000
      vertex 20.958004 23.529823 2.330000
      vertex 20.353986 23.940312 2.330000
    endloop
  endfacet
  facet normal -0.562082 -0.827081 -0.000000
    outer loop
      vertex 20.353986 23.940312 0.000000
      vertex 20.958004 23.529823 0.000000
      vertex 20.353986 23.940312 2.330000
    endloop
  endfacet
  facet normal -0.612908 -0.790154 -0.000000
    outer loop
      vertex 21.535054 23.082216 0.000000
      vertex 21.535054 23.082216 2.330000
      vertex 20.958004 23.529823 2.330000
    endloop
  endfacet
  facet normal -0.612908 -0.790154 -0.000000
    outer loop
      vertex 20.958004 23.529823 0.000000
      vertex 21.535054 23.082216 0.000000
      vertex 20.958004 23.529823 2.330000
    endloop
  endfacet
  facet normal -0.661312 -0.750111 -0.000000
    outer loop
      vertex 22.082860 22.599260 0.000000
      vertex 22.082860 22.599260 2.330000
      vertex 21.535054 23.082216 2.330000
    endloop
  endfacet
  facet normal -0.661312 -0.750111 -0.000000
    outer loop
      vertex 21.535054 23.082216 0.000000
      vertex 22.082860 22.599260 0.000000
      vertex 21.535054 23.082216 2.330000
    endloop
  endfacet
  facet normal -0.707107 -0.707107 -0.000000
    outer loop
      vertex 22.599260 22.082860 0.000000
      vertex 22.599260 22.082860 2.330000
      vertex 22.082860 22.599260 2.330000
    endloop
  endfacet
  facet normal -0.707107 -0.707107 -0.000000
    outer loop
      vertex 22.082860 22.599260 0.000000
      vertex 22.599260 22.082860 0.000000
      vertex 22.082860 22.599260 2.330000
    endloop
  endfacet
  facet normal -0.750111 -0.661312 0.000000
    outer loop
      vertex 23.082216 21.535054 2.330000
      vertex 22.599260 22.082860 2.330000
      vertex 23.082216 21.535054 0.000000
    endloop
  endfacet
  facet normal -0.750111 -0.661312 0.000000
    outer loop
      vertex 23.082216 21.535054 0.000000
      vertex 22.599260 22.082860 2.330000
      vertex 22.599260 22.082860 0.000000
    endloop
  endfacet
  facet normal -0.790154 -0.612908 0.000000
    outer loop
      vertex 23.529823 20.958004 2.330000
      vertex 23.082216 21.535054 2.330000
      vertex 23.529823 20.958004 0.000000
    endloop
  endfacet
  facet normal -0.790154 -0.612908 0.000000
    outer loop
      vertex 23.529823 20.958004 0.000000
      vertex 23.082216 21.535054 2.330000
      vertex 23.082216 21.535054 0.000000
    endloop
  endfacet
  facet normal -0.827081 -0.562082 0.000000
    outer loop
      vertex 23.940312 20.353986 2.330000
      vertex 23.529823 20.958004 2.330000
      vertex 23.940312 20.353986 0.000000
    endloop
  endfacet
  facet normal -0.827081 -0.562082 0.000000
    outer loop
      vertex 23.940312 20.353986 0.000000
      vertex 23.529823 20.958004 2.330000
      vertex 23.529823 20.958004 0.000000
    endloop
  endfacet
  facet normal -0.860742 -0.509041 0.000000
    outer loop
      vertex 24.312065 19.725386 2.330000
      vertex 23.940312 20.353986 2.330000
      vertex 24.312065 19.725386 0.000000
    endloop
  endfacet
  facet normal -0.860742 -0.509041 0.000000
    outer loop
      vertex 24.312065 19.725386 0.000000
      vertex 23.940312 20.353986 2.330000
      vertex 23.940312 20.353986 0.000000
    endloop
  endfacet
  facet normal -0.891007 -0.453990 0.000000
    outer loop
      vertex 24.643614 19.074684 2.330000
      vertex 24.312065 19.725386 2.330000
      vertex 24.643614 19.074684 0.000000
    endloop
  endfacet
  facet normal -0.891007 -0.453990 0.000000
    outer loop
      vertex 24.643614 19.074684 0.000000
      vertex 24.312065 19.725386 2.330000
      vertex 24.312065 19.725386 0.000000
    endloop
  endfacet
  facet normal -0.917754 -0.397149 0.000000
    outer loop
      vertex 24.933652 18.404448 2.330000
      vertex 24.643614 19.074684 2.330000
      vertex 24.933652 18.404448 0.000000
    endloop
  endfacet
  facet normal -0.917754 -0.397149 0.000000
    outer loop
      vertex 24.933652 18.404448 0.000000
      vertex 24.643614 19.074684 2.330000
      vertex 24.643614 19.074684 0.000000
    endloop
  endfacet
  facet normal -0.940881 -0.338738 0.000000
    outer loop
      vertex 25.181032 17.717323 2.330000
      vertex 24.933652 18.404448 2.330000
      vertex 25.181032 17.717323 0.000000
    endloop
  endfacet
  facet normal -0.940881 -0.338738 0.000000
    outer loop
      vertex 25.181032 17.717323 0.000000
      vertex 24.933652 18.404448 2.330000
      vertex 24.933652 18.404448 0.000000
    endloop
  endfacet
  facet normal -0.960294 -0.278991 0.000000
    outer loop
      vertex 25.384779 17.016020 2.330000
      vertex 25.181032 17.717323 2.330000
      vertex 25.384779 17.016020 0.000000
    endloop
  endfacet
  facet normal -0.960294 -0.278991 0.000000
    outer loop
      vertex 25.384779 17.016020 0.000000
      vertex 25.181032 17.717323 2.330000
      vertex 25.181032 17.717323 0.000000
    endloop
  endfacet
  facet normal -0.975917 -0.218143 0.000000
    outer loop
      vertex 25.544089 16.303308 2.330000
      vertex 25.384779 17.016020 2.330000
      vertex 25.544089 16.303308 0.000000
    endloop
  endfacet
  facet normal -0.975917 -0.218143 0.000000
    outer loop
      vertex 25.544089 16.303308 0.000000
      vertex 25.384779 17.016020 2.330000
      vertex 25.384779 17.016020 0.000000
    endloop
  endfacet
  facet normal -0.987688 -0.156434 0.000000
    outer loop
      vertex 25.658333 15.581999 2.330000
      vertex 25.544089 16.303308 2.330000
      vertex 25.658333 15.581999 0.000000
    endloop
  endfacet
  facet normal -0.987688 -0.156434 0.000000
    outer loop
      vertex 25.658333 15.581999 0.000000
      vertex 25.544089 16.303308 2.330000
      vertex 25.544089 16.303308 0.000000
    endloop
  endfacet
  facet normal -0.995562 -0.094109 0.000000
    outer loop
      vertex 25.727061 14.854940 2.330000
      vertex 25.658333 15.581999 2.330000
      vertex 25.727061 14.854940 0.000000
    endloop
  endfacet
  facet normal -0.995562 -0.094109 0.000000
    outer loop
      vertex 25.727061 14.854940 0.000000
      vertex 25.658333 15.581999 2.330000
      vertex 25.658333 15.581999 0.000000
    endloop
  endfacet
  facet normal -0.999507 -0.031410 0.000000
    outer loop
      vertex 25.750000 14.125000 2.330000
      vertex 25.727061 14.854940 2.330000
      vertex 25.750000 14.125000 0.000000
    endloop
  endfacet
  facet normal -0.999507 -0.031410 0.000000
    outer loop
      vertex 25.750000 14.125000 0.000000
      vertex 25.727061 14.854940 2.330000
      vertex 25.727061 14.854940 0.000000
    endloop
  endfacet
  facet normal -0.999507 0.031410 0.000000
    outer loop
      vertex 25.750000 14.125000 2.330000
      vertex 25.750000 14.125000 0.000000
      vertex 25.727061 13.395060 2.330000
    endloop
  endfacet
  facet normal -0.999507 0.031410 0.000000
    outer loop
      vertex 25.727061 13.395060 2.330000
      vertex 25.750000 14.125000 0.000000
      vertex 25.727061 13.395060 0.000000
    endloop
  endfacet
  facet normal -0.995562 0.094109 0.000000
    outer loop
      vertex 25.727061 13.395060 2.330000
      vertex 25.727061 13.395060 0.000000
      vertex 25.658333 12.668001 2.330000
    endloop
  endfacet
  facet normal -0.995562 0.094109 0.000000
    outer loop
      vertex 25.658333 12.668001 2.330000
      vertex 25.727061 13.395060 0.000000
      vertex 25.658333 12.668001 0.000000
    endloop
  endfacet
  facet normal -0.987688 0.156434 0.000000
    outer loop
      vertex 25.658333 12.668001 2.330000
      vertex 25.658333 12.668001 0.000000
      vertex 25.544089 11.946692 2.330000
    endloop
  endfacet
  facet normal -0.987688 0.156434 0.000000
    outer loop
      vertex 25.544089 11.946692 2.330000
      vertex 25.658333 12.668001 0.000000
      vertex 25.544089 11.946692 0.000000
    endloop
  endfacet
  facet normal -0.975917 0.218143 0.000000
    outer loop
      vertex 25.544089 11.946692 2.330000
      vertex 25.544089 11.946692 0.000000
      vertex 25.384779 11.233980 2.330000
    endloop
  endfacet
  facet normal -0.975917 0.218143 0.000000
    outer loop
      vertex 25.384779 11.233980 2.330000
      vertex 25.544089 11.946692 0.000000
      vertex 25.384779 11.233980 0.000000
    endloop
  endfacet
  facet normal -0.960294 0.278991 0.000000
    outer loop
      vertex 25.384779 11.233980 2.330000
      vertex 25.384779 11.233980 0.000000
      vertex 25.181032 10.532677 2.330000
    endloop
  endfacet
  facet normal -0.960294 0.278991 0.000000
    outer loop
      vertex 25.181032 10.532677 2.330000
      vertex 25.384779 11.233980 0.000000
      vertex 25.181032 10.532677 0.000000
    endloop
  endfacet
  facet normal -0.940881 0.338738 0.000000
    outer loop
      vertex 25.181032 10.532677 2.330000
      vertex 25.181032 10.532677 0.000000
      vertex 24.933652 9.845552 2.330000
    endloop
  endfacet
  facet normal -0.940881 0.338738 0.000000
    outer loop
      vertex 24.933652 9.845552 2.330000
      vertex 25.181032 10.532677 0.000000
      vertex 24.933652 9.845552 0.000000
    endloop
  endfacet
  facet normal -0.917754 0.397149 0.000000
    outer loop
      vertex 24.933652 9.845552 2.330000
      vertex 24.933652 9.845552 0.000000
      vertex 24.643614 9.175316 2.330000
    endloop
  endfacet
  facet normal -0.917754 0.397149 0.000000
    outer loop
      vertex 24.643614 9.175316 2.330000
      vertex 24.933652 9.845552 0.000000
      vertex 24.643614 9.175316 0.000000
    endloop
  endfacet
  facet normal -0.891007 0.453990 0.000000
    outer loop
      vertex 24.643614 9.175316 2.330000
      vertex 24.643614 9.175316 0.000000
      vertex 24.312065 8.524614 2.330000
    endloop
  endfacet
  facet normal -0.891007 0.453990 0.000000
    outer loop
      vertex 24.312065 8.524614 2.330000
      vertex 24.643614 9.175316 0.000000
      vertex 24.312065 8.524614 0.000000
    endloop
  endfacet
  facet normal -0.860742 0.509041 0.000000
    outer loop
      vertex 24.312065 8.524614 2.330000
      vertex 24.312065 8.524614 0.000000
      vertex 23.940312 7.896014 2.330000
    endloop
  endfacet
  facet normal -0.860742 0.509041 0.000000
    outer loop
      vertex 23.940312 7.896014 2.330000
      vertex 24.312065 8.524614 0.000000
      vertex 23.940312 7.896014 0.000000
    endloop
  endfacet
  facet normal -0.827081 0.562082 0.000000
    outer loop
      vertex 23.940312 7.896014 2.330000
      vertex 23.940312 7.896014 0.000000
      vertex 23.529823 7.291996 2.330000
    endloop
  endfacet
  facet normal -0.827081 0.562082 0.000000
    outer loop
      vertex 23.529823 7.291996 2.330000
      vertex 23.940312 7.896014 0.000000
      vertex 23.529823 7.291996 0.000000
    endloop
  endfacet
  facet normal -0.790154 0.612908 0.000000
    outer loop
      vertex 23.529823 7.291996 2.330000
      vertex 23.529823 7.291996 0.000000
      vertex 23.082216 6.714946 2.330000
    endloop
  endfacet
  facet normal -0.790154 0.612908 0.000000
    outer loop
      vertex 23.082216 6.714946 2.330000
      vertex 23.529823 7.291996 0.000000
      vertex 23.082216 6.714946 0.000000
    endloop
  endfacet
  facet normal -0.750111 0.661312 0.000000
    outer loop
      vertex 23.082216 6.714946 2.330000
      vertex 23.082216 6.714946 0.000000
      vertex 22.599260 6.167140 2.330000
    endloop
  endfacet
  facet normal -0.750111 0.661312 0.000000
    outer loop
      vertex 22.599260 6.167140 2.330000
      vertex 23.082216 6.714946 0.000000
      vertex 22.599260 6.167140 0.000000
    endloop
  endfacet
  facet normal -0.707107 0.707107 0.000000
    outer loop
      vertex 22.599260 6.167140 2.330000
      vertex 22.599260 6.167140 0.000000
      vertex 22.082860 5.650740 2.330000
    endloop
  endfacet
  facet normal -0.707107 0.707107 0.000000
    outer loop
      vertex 22.082860 5.650740 2.330000
      vertex 22.599260 6.167140 0.000000
      vertex 22.082860 5.650740 0.000000
    endloop
  endfacet
  facet normal -0.661312 0.750111 0.000000
    outer loop
      vertex 22.082860 5.650740 2.330000
      vertex 22.082860 5.650740 0.000000
      vertex 21.535054 5.167784 2.330000
    endloop
  endfacet
  facet normal -0.661312 0.750111 0.000000
    outer loop
      vertex 21.535054 5.167784 2.330000
      vertex 22.082860 5.650740 0.000000
      vertex 21.535054 5.167784 0.000000
    endloop
  endfacet
  facet normal -0.612908 0.790154 0.000000
    outer loop
      vertex 21.535054 5.167784 2.330000
      vertex 21.535054 5.167784 0.000000
      vertex 20.958004 4.720177 2.330000
    endloop
  endfacet
  facet normal -0.612908 0.790154 0.000000
    outer loop
      vertex 20.958004 4.720177 2.330000
      vertex 21.535054 5.167784 0.000000
      vertex 20.958004 4.720177 0.000000
    endloop
  endfacet
  facet normal -0.562082 0.827081 0.000000
    outer loop
      vertex 20.958004 4.720177 2.330000
      vertex 20.958004 4.720177 0.000000
      vertex 20.353986 4.309688 2.330000
    endloop
  endfacet
  facet normal -0.562082 0.827081 0.000000
    outer loop
      vertex 20.353986 4.309688 2.330000
      vertex 20.958004 4.720177 0.000000
      vertex 20.353986 4.309688 0.000000
    endloop
  endfacet
  facet normal -0.509041 0.860742 0.000000
    outer loop
      vertex 20.353986 4.309688 2.330000
      vertex 20.353986 4.309688 0.000000
      vertex 19.725386 3.937935 2.330000
    endloop
  endfacet
  facet normal -0.509041 0.860742 0.000000
    outer loop
      vertex 19.725386 3.937935 2.330000
      vertex 20.353986 4.309688 0.000000
      vertex 19.725386 3.937935 0.000000
    endloop
  endfacet
  facet normal -0.453990 0.891007 0.000000
    outer loop
      vertex 19.725386 3.937935 2.330000
      vertex 19.725386 3.937935 0.000000
      vertex 19.074684 3.606386 2.330000
    endloop
  endfacet
  facet normal -0.453990 0.891007 0.000000
    outer loop
      vertex 19.074684 3.606386 2.330000
      vertex 19.725386 3.937935 0.000000
      vertex 19.074684 3.606386 0.000000
    endloop
  endfacet
  facet normal -0.397149 0.917754 0.000000
    outer loop
      vertex 19.074684 3.606386 2.330000
      vertex 19.074684 3.606386 0.000000
      vertex 18.404448 3.316348 2.330000
    endloop
  endfacet
  facet normal -0.397149 0.917754 0.000000
    outer loop
      vertex 18.404448 3.316348 2.330000
      vertex 19.074684 3.606386 0.000000
      vertex 18.404448 3.316348 0.000000
    endloop
  endfacet
  facet normal -0.338738 0.940881 0.000000
    outer loop
      vertex 18.404448 3.316348 2.330000
      vertex 18.404448 3.316348 0.000000
      vertex 17.717323 3.068968 2.330000
    endloop
  endfacet
  facet normal -0.338738 0.940881 0.000000
    outer loop
      vertex 17.717323 3.068968 2.330000
      vertex 18.404448 3.316348 0.000000
      vertex 17.717323 3.068968 0.000000
    endloop
  endfacet
  facet normal -0.278991 0.960294 0.000000
    outer loop
      vertex 17.717323 3.068968 2.330000
      vertex 17.717323 3.068968 0.000000
      vertex 17.016020 2.865221 2.330000
    endloop
  endfacet
  facet normal -0.278991 0.960294 0.000000
    outer loop
      vertex 17.016020 2.865221 2.330000
      vertex 17.717323 3.068968 0.000000
      vertex 17.016020 2.865221 0.000000
    endloop
  endfacet
  facet normal -0.218143 0.975917 0.000000
    outer loop
      vertex 17.016020 2.865221 2.330000
      vertex 17.016020 2.865221 0.000000
      vertex 16.303308 2.705911 2.330000
    endloop
  endfacet
  facet normal -0.218143 0.975917 0.000000
    outer loop
      vertex 16.303308 2.705911 2.330000
      vertex 17.016020 2.865221 0.000000
      vertex 16.303308 2.705911 0.000000
    endloop
  endfacet
  facet normal -0.156434 0.987688 0.000000
    outer loop
      vertex 16.303308 2.705911 2.330000
      vertex 16.303308 2.705911 0.000000
      vertex 15.581999 2.591667 2.330000
    endloop
  endfacet
  facet normal -0.156434 0.987688 0.000000
    outer loop
      vertex 15.581999 2.591667 2.330000
      vertex 16.303308 2.705911 0.000000
      vertex 15.581999 2.591667 0.000000
    endloop
  endfacet
  facet normal -0.094109 0.995562 0.000000
    outer loop
      vertex 15.581999 2.591667 2.330000
      vertex 15.581999 2.591667 0.000000
      vertex 14.854940 2.522939 2.330000
    endloop
  endfacet
  facet normal -0.094109 0.995562 0.000000
    outer loop
      vertex 14.854940 2.522939 2.330000
      vertex 15.581999 2.591667 0.000000
      vertex 14.854940 2.522939 0.000000
    endloop
  endfacet
  facet normal -0.031410 0.999507 0.000000
    outer loop
      vertex 14.854940 2.522939 2.330000
      vertex 14.854940 2.522939 0.000000
      vertex 14.125000 2.500000 2.330000
    endloop
  endfacet
  facet normal -0.031410 0.999507 0.000000
    outer loop
      vertex 14.125000 2.500000 2.330000
      vertex 14.854940 2.522939 0.000000
      vertex 14.125000 2.500000 0.000000
    endloop
  endfacet
  facet normal 0.031410 0.999507 -0.000000
    outer loop
      vertex 14.125000 2.500000 2.330000
      vertex 14.125000 2.500000 0.000000
      vertex 13.395060 2.522939 2.330000
    endloop
  endfacet
  facet normal 0.031410 0.999507 -0.000000
    outer loop
      vertex 13.395060 2.522939 2.330000
      vertex 14.125000 2.500000 0.000000
      vertex 13.395060 2.522939 0.000000
    endloop
  endfacet
  facet normal 0.094109 0.995562 -0.000000
    outer loop
      vertex 13.395060 2.522939 2.330000
      vertex 13.395060 2.522939 0.000000
      vertex 12.668001 2.591667 2.330000
    endloop
  endfacet
  facet normal 0.094109 0.995562 -0.000000
    outer loop
      vertex 12.668001 2.591667 2.330000
      vertex 13.395060 2.522939 0.000000
      vertex 12.668001 2.591667 0.000000
    endloop
  endfacet
  facet normal 0.156434 0.987688 -0.000000
    outer loop
      vertex 12.668001 2.591667 2.330000
      vertex 12.668001 2.591667 0.000000
      vertex 11.946692 2.705911 2.330000
    endloop
  endfacet
  facet normal 0.156434 0.987688 -0.000000
    outer loop
      vertex 11.946692 2.705911 2.330000
      vertex 12.668001 2.591667 0.000000
      vertex 11.946692 2.705911 0.000000
    endloop
  endfacet
  facet normal 0.218143 0.975917 -0.000000
    outer loop
      vertex 11.946692 2.705911 2.330000
      vertex 11.946692 2.705911 0.000000
      vertex 11.233980 2.865221 2.330000
    endloop
  endfacet
  facet normal 0.218143 0.975917 -0.000000
    outer loop
      vertex 11.233980 2.865221 2.330000
      vertex 11.946692 2.705911 0.000000
      vertex 11.233980 2.865221 0.000000
    endloop
  endfacet
  facet normal 0.278991 0.960294 -0.000000
    outer loop
      vertex 11.233980 2.865221 2.330000
      vertex 11.233980 2.865221 0.000000
      vertex 10.532677 3.068968 2.330000
    endloop
  endfacet
  facet normal 0.278991 0.960294 -0.000000
    outer loop
      vertex 10.532677 3.068968 2.330000
      vertex 11.233980 2.865221 0.000000
      vertex 10.532677 3.068968 0.000000
    endloop
  endfacet
  facet normal 0.338738 0.940881 -0.000000
    outer loop
      vertex 10.532677 3.068968 2.330000
      vertex 10.532677 3.068968 0.000000
      vertex 9.845552 3.316348 2.330000
    endloop
  endfacet
  facet normal 0.338738 0.940881 -0.000000
    outer loop
      vertex 9.845552 3.316348 2.330000
      vertex 10.532677 3.068968 0.000000
      vertex 9.845552 3.316348 0.000000
    endloop
  endfacet
  facet normal 0.397149 0.917754 -0.000000
    outer loop
      vertex 9.845552 3.316348 2.330000
      vertex 9.845552 3.316348 0.000000
      vertex 9.175316 3.606386 2.330000
    endloop
  endfacet
  facet normal 0.397149 0.917754 -0.000000
    outer loop
      vertex 9.175316 3.606386 2.330000
      vertex 9.845552 3.316348 0.000000
      vertex 9.175316 3.606386 0.000000
    endloop
  endfacet
  facet normal 0.453990 0.891007 -0.000000
    outer loop
      vertex 9.175316 3.606386 2.330000
      vertex 9.175316 3.606386 0.000000
      vertex 8.524614 3.937935 2.330000
    endloop
  endfacet
  facet normal 0.453990 0.891007 -0.000000
    outer loop
      vertex 8.524614 3.937935 2.330000
      vertex 9.175316 3.606386 0.000000
      vertex 8.524614 3.937935 0.000000
    endloop
  endfacet
  facet normal 0.509041 0.860742 -0.000000
    outer loop
      vertex 8.524614 3.937935 2.330000
      vertex 8.524614 3.937935 0.000000
      vertex 7.896014 4.309688 2.330000
    endloop
  endfacet
  facet normal 0.509041 0.860742 -0.000000
    outer loop
      vertex 7.896014 4.309688 2.330000
      vertex 8.524614 3.937935 0.000000
      vertex 7.896014 4.309688 0.000000
    endloop
  endfacet
  facet normal 0.562082 0.827081 -0.000000
    outer loop
      vertex 7.896014 4.309688 2.330000
      vertex 7.896014 4.309688 0.000000
      vertex 7.291996 4.720177 2.330000
    endloop
  endfacet
  facet normal 0.562082 0.827081 -0.000000
    outer loop
      vertex 7.291996 4.720177 2.330000
      vertex 7.896014 4.309688 0.000000
      vertex 7.291996 4.720177 0.000000
    endloop
  endfacet
  facet normal 0.612908 0.790154 -0.000000
    outer loop
      vertex 7.291996 4.720177 2.330000
      vertex 7.291996 4.720177 0.000000
      vertex 6.714946 5.167784 2.330000
    endloop
  endfacet
  facet normal 0.612908 0.790154 -0.000000
    outer loop
      vertex 6.714946 5.167784 2.330000
      vertex 7.291996 4.720177 0.000000
      vertex 6.714946 5.167784 0.000000
    endloop
  endfacet
  facet normal 0.661312 0.750111 -0.000000
    outer loop
      vertex 6.714946 5.167784 2.330000
      vertex 6.714946 5.167784 0.000000
      vertex 6.167140 5.650740 2.330000
    endloop
  endfacet
  facet normal 0.661312 0.750111 -0.000000
    outer loop
      vertex 6.167140 5.650740 2.330000
      vertex 6.714946 5.167784 0.000000
      vertex 6.167140 5.650740 0.000000
    endloop
  endfacet
  facet normal 0.707107 0.707107 -0.000000
    outer loop
      vertex 6.167140 5.650740 2.330000
      vertex 6.167140 5.650740 0.000000
      vertex 5.650740 6.167140 2.330000
    endloop
  endfacet
  facet normal 0.707107 0.707107 -0.000000
    outer loop
      vertex 5.650740 6.167140 2.330000
      vertex 6.167140 5.650740 0.000000
      vertex 5.650740 6.167140 0.000000
    endloop
  endfacet
  facet normal 0.750111 0.661312 0.000000
    outer loop
      vertex 5.167784 6.714946 2.330000
      vertex 5.650740 6.167140 2.330000
      vertex 5.650740 6.167140 0.000000
    endloop
  endfacet
  facet normal 0.750111 0.661312 0.000000
    outer loop
      vertex 5.167784 6.714946 0.000000
      vertex 5.167784 6.714946 2.330000
      vertex 5.650740 6.167140 0.000000
    endloop
  endfacet
  facet normal 0.790154 0.612908 0.000000
    outer loop
      vertex 4.720177 7.291996 2.330000
      vertex 5.167784 6.714946 2.330000
      vertex 5.167784 6.714946 0.000000
    endloop
  endfacet
  facet normal 0.790154 0.612908 0.000000
    outer loop
      vertex 4.720177 7.291996 0.000000
      vertex 4.720177 7.291996 2.330000
      vertex 5.167784 6.714946 0.000000
    endloop
  endfacet
  facet normal 0.827081 0.562082 0.000000
    outer loop
      vertex 4.309688 7.896014 2.330000
      vertex 4.720177 7.291996 2.330000
      vertex 4.720177 7.291996 0.000000
    endloop
  endfacet
  facet normal 0.827081 0.562082 0.000000
    outer loop
      vertex 4.309688 7.896014 0.000000
      vertex 4.309688 7.896014 2.330000
      vertex 4.720177 7.291996 0.000000
    endloop
  endfacet
  facet normal 0.860742 0.509041 0.000000
    outer loop
      vertex 3.937935 8.524614 2.330000
      vertex 4.309688 7.896014 2.330000
      vertex 4.309688 7.896014 0.000000
    endloop
  endfacet
  facet normal 0.860742 0.509041 0.000000
    outer loop
      vertex 3.937935 8.524614 0.000000
      vertex 3.937935 8.524614 2.330000
      vertex 4.309688 7.896014 0.000000
    endloop
  endfacet
  facet normal 0.891007 0.453990 0.000000
    outer loop
      vertex 3.606386 9.175316 2.330000
      vertex 3.937935 8.524614 2.330000
      vertex 3.937935 8.524614 0.000000
    endloop
  endfacet
  facet normal 0.891007 0.453990 0.000000
    outer loop
      vertex 3.606386 9.175316 0.000000
      vertex 3.606386 9.175316 2.330000
      vertex 3.937935 8.524614 0.000000
    endloop
  endfacet
  facet normal 0.917754 0.397149 0.000000
    outer loop
      vertex 3.316348 9.845552 2.330000
      vertex 3.606386 9.175316 2.330000
      vertex 3.606386 9.175316 0.000000
    endloop
  endfacet
  facet normal 0.917754 0.397149 0.000000
    outer loop
      vertex 3.316348 9.845552 0.000000
      vertex 3.316348 9.845552 2.330000
      vertex 3.606386 9.175316 0.000000
    endloop
  endfacet
  facet normal 0.940881 0.338738 0.000000
    outer loop
      vertex 3.068968 10.532677 2.330000
      vertex 3.316348 9.845552 2.330000
      vertex 3.316348 9.845552 0.000000
    endloop
  endfacet
  facet normal 0.940881 0.338738 0.000000
    outer loop
      vertex 3.068968 10.532677 0.000000
      vertex 3.068968 10.532677 2.330000
      vertex 3.316348 9.845552 0.000000
    endloop
  endfacet
  facet normal 0.960294 0.278991 0.000000
    outer loop
      vertex 2.865221 11.233980 2.330000
      vertex 3.068968 10.532677 2.330000
      vertex 3.068968 10.532677 0.000000
    endloop
  endfacet
  facet normal 0.960294 0.278991 0.000000
    outer loop
      vertex 2.865221 11.233980 0.000000
      vertex 2.865221 11.233980 2.330000
      vertex 3.068968 10.532677 0.000000
    endloop
  endfacet
  facet normal 0.975917 0.218143 0.000000
    outer loop
      vertex 2.705911 11.946692 2.330000
      vertex 2.865221 11.233980 2.330000
      vertex 2.865221 11.233980 0.000000
    endloop
  endfacet
  facet normal 0.975917 0.218143 0.000000
    outer loop
      vertex 2.705911 11.946692 0.000000
      vertex 2.705911 11.946692 2.330000
      vertex 2.865221 11.233980 0.000000
    endloop
  endfacet
  facet normal 0.987688 0.156434 0.000000
    outer loop
      vertex 2.591667 12.668001 2.330000
      vertex 2.705911 11.946692 2.330000
      vertex 2.705911 11.946692 0.000000
    endloop
  endfacet
  facet normal 0.987688 0.156434 0.000000
    outer loop
      vertex 2.591667 12.668001 0.000000
      vertex 2.591667 12.668001 2.330000
      vertex 2.705911 11.946692 0.000000
    endloop
  endfacet
  facet normal 0.995562 0.094109 0.000000
    outer loop
      vertex 2.522939 13.395060 2.330000
      vertex 2.591667 12.668001 2.330000
      vertex 2.591667 12.668001 0.000000
    endloop
  endfacet
  facet normal 0.995562 0.094109 0.000000
    outer loop
      vertex 2.522939 13.395060 0.000000
      vertex 2.522939 13.395060 2.330000
      vertex 2.591667 12.668001 0.000000
    endloop
  endfacet
endsolid OpenSCAD_Model
