solid OpenSCAD_Model
  facet normal -0.991445 2.07019e-17 0.130526
    outer loop
      vertex -5 -7 3.5
      vertex -4.82963 -7 4.7941
      vertex -5 -4.2 3.5
    endloop
  endfacet
  facet normal -0.991445 4.46552e-17 0.130526
    outer loop
      vertex -5 -4.2 3.5
      vertex -4.82963 -7 4.7941
      vertex -4.82963 -4.2 4.7941
    endloop
  endfacet
  facet normal 0 -1 6.86332e-16
    outer loop
      vertex -4.82963 -7 4.7941
      vertex -5 -7 3.5
      vertex -3 -7 3.5
    endloop
  endfacet
  facet normal 0 -1 0
    outer loop
      vertex -3.5628 -7 7
      vertex -4.82963 -7 4.7941
      vertex -3 -7 7
    endloop
  endfacet
  facet normal -3.05954e-16 -1 2.53765e-16
    outer loop
      vertex -3 -7 7
      vertex -4.82963 -7 4.7941
      vertex -3 -7 3.5
    endloop
  endfacet
  facet normal -0 -1 0
    outer loop
      vertex -4.33013 -7 6
      vertex -4.82963 -7 4.7941
      vertex -3.5628 -7 7
    endloop
  endfacet
  facet normal 0 -1 0
    outer loop
      vertex -3 -7 3.5
      vertex -5 -7 3.5
      vertex -4.82963 -7 2.20591
    endloop
  endfacet
  facet normal 0 -1 -0
    outer loop
      vertex -3.5628 -7 0
      vertex -3 -7 3.5
      vertex -4.33013 -7 1
    endloop
  endfacet
  facet normal 0 -1 -0
    outer loop
      vertex -4.33013 -7 1
      vertex -3 -7 3.5
      vertex -4.82963 -7 2.20591
    endloop
  endfacet
  facet normal -0 -1 0
    outer loop
      vertex 1.55 -7 3.5
      vertex 1.34234 -7 2.725
      vertex 10.0904 -7 3.5
    endloop
  endfacet
  facet normal 0 -1 0
    outer loop
      vertex 1.27304 -7 0
      vertex -3 -7 3.5
      vertex -3.5628 -7 0
    endloop
  endfacet
  facet normal 0 -1 0
    outer loop
      vertex -1.34234 -7 2.725
      vertex -3 -7 3.5
      vertex 1.27304 -7 0
    endloop
  endfacet
  facet normal 0 -1 -0
    outer loop
      vertex -1.55 -7 3.5
      vertex -1.34234 -7 4.275
      vertex -3 -7 3.5
    endloop
  endfacet
  facet normal 0 -1 0
    outer loop
      vertex 0.775 -7 4.84234
      vertex 1.34234 -7 4.275
      vertex 6.77533 -7 4.81591
    endloop
  endfacet
  facet normal 0 -1 0
    outer loop
      vertex -0.775 -7 2.15766
      vertex -1.34234 -7 2.725
      vertex 1.27304 -7 0
    endloop
  endfacet
  facet normal 0 -1 0
    outer loop
      vertex -1.55 -7 3.5
      vertex -3 -7 3.5
      vertex -1.34234 -7 2.725
    endloop
  endfacet
  facet normal 0 -1 0
    outer loop
      vertex 1.34234 -7 4.275
      vertex 1.55 -7 3.5
      vertex 10.0904 -7 3.5
    endloop
  endfacet
  facet normal 0 -1 0
    outer loop
      vertex 1.27304 -7 7
      vertex -1.34234 -7 4.275
      vertex -0.775 -7 4.84234
    endloop
  endfacet
  facet normal 0 -1 0
    outer loop
      vertex 1.27304 -7 7
      vertex 0 -7 5.05
      vertex 6.77533 -7 4.81591
    endloop
  endfacet
  facet normal 0 -1 0
    outer loop
      vertex 1.27304 -7 7
      vertex -0.775 -7 4.84234
      vertex 0 -7 5.05
    endloop
  endfacet
  facet normal 0 -1 0
    outer loop
      vertex 0 -7 5.05
      vertex 0.775 -7 4.84234
      vertex 6.77533 -7 4.81591
    endloop
  endfacet
  facet normal 0 -1 0
    outer loop
      vertex 10.0904 -7 3.5
      vertex 1.34234 -7 2.725
      vertex 1.27304 -7 0
    endloop
  endfacet
  facet normal 0 -1 0
    outer loop
      vertex 1.34234 -7 2.725
      vertex 0.775 -7 2.15766
      vertex 1.27304 -7 0
    endloop
  endfacet
  facet normal 0 -1 0
    outer loop
      vertex 0.775 -7 2.15766
      vertex 0 -7 1.95
      vertex 1.27304 -7 0
    endloop
  endfacet
  facet normal 0 -1 0
    outer loop
      vertex 0 -7 1.95
      vertex -0.775 -7 2.15766
      vertex 1.27304 -7 0
    endloop
  endfacet
  facet normal 0 -1 0
    outer loop
      vertex -3 -7 7
      vertex -1.34234 -7 4.275
      vertex 1.27304 -7 7
    endloop
  endfacet
  facet normal -0 -1 0
    outer loop
      vertex 1.34234 -7 4.275
      vertex 10.0904 -7 3.5
      vertex 6.77533 -7 4.81591
    endloop
  endfacet
  facet normal 0 -1 0
    outer loop
      vertex -3 -7 7
      vertex -3 -7 3.5
      vertex -1.34234 -7 4.275
    endloop
  endfacet
  facet normal -0.991445 -2.07019e-17 -0.130526
    outer loop
      vertex -5 -7 3.5
      vertex -5 -4.2 3.5
      vertex -4.82963 -7 2.20591
    endloop
  endfacet
  facet normal -0.991445 -2.07019e-17 -0.130526
    outer loop
      vertex -4.82963 -7 2.20591
      vertex -5 -4.2 3.5
      vertex -4.82963 -4.2 2.20591
    endloop
  endfacet
  facet normal 0 1 -0
    outer loop
      vertex -4.33013 -4.2 6
      vertex -3.5628 -4.2 7
      vertex -4.82963 -4.2 4.7941
    endloop
  endfacet
  facet normal 0 1 0
    outer loop
      vertex -4.82963 -4.2 4.7941
      vertex -3.5628 -4.2 7
      vertex 3.5 -4.2 7
    endloop
  endfacet
  facet normal 0 1 0
    outer loop
      vertex 0.775 -4.2 4.84234
      vertex 3.5 -4.2 7
      vertex 1.17157 -4.2 4.67157
    endloop
  endfacet
  facet normal 0 1 0
    outer loop
      vertex 1.17157 -4.2 4.67157
      vertex 3.5 -4.2 7
      vertex 3.5 -4.2 1.16425e-06
    endloop
  endfacet
  facet normal 0 1 -0
    outer loop
      vertex 1.34234 -4.2 2.725
      vertex 3.5 -4.2 1.16425e-06
      vertex 1.17157 -4.2 2.32843
    endloop
  endfacet
  facet normal 0 1 0
    outer loop
      vertex -1.34234 -4.2 2.725
      vertex -4.82963 -4.2 4.7941
      vertex -1.55 -4.2 3.5
    endloop
  endfacet
  facet normal 0 1 -0
    outer loop
      vertex -0.775 -4.2 2.15766
      vertex 3.5 -4.2 0
      vertex -3.5628 -4.2 0
    endloop
  endfacet
  facet normal 0 1 0
    outer loop
      vertex -4.82963 -4.2 4.7941
      vertex -3.5628 -4.2 0
      vertex -4.33013 -4.2 1
    endloop
  endfacet
  facet normal 0 1 -0
    outer loop
      vertex -4.82963 -4.2 4.7941
      vertex -4.33013 -4.2 1
      vertex -4.82963 -4.2 2.20591
    endloop
  endfacet
  facet normal 0 1 0
    outer loop
      vertex -4.82963 -4.2 4.7941
      vertex -4.82963 -4.2 2.20591
      vertex -5 -4.2 3.5
    endloop
  endfacet
  facet normal 0 1 -0
    outer loop
      vertex 0.775 -4.2 2.15766
      vertex 3.5 -4.2 0
      vertex 0 -4.2 1.95
    endloop
  endfacet
  facet normal 0 1 0
    outer loop
      vertex -4.82963 -4.2 4.7941
      vertex -1.34234 -4.2 2.725
      vertex -3.5628 -4.2 0
    endloop
  endfacet
  facet normal -0 1 -0
    outer loop
      vertex 0 -4.2 1.95
      vertex 3.5 -4.2 0
      vertex -0.775 -4.2 2.15766
    endloop
  endfacet
  facet normal 0 1 -0
    outer loop
      vertex -1.34234 -4.2 2.725
      vertex -0.775 -4.2 2.15766
      vertex -3.5628 -4.2 0
    endloop
  endfacet
  facet normal 0 1 -0
    outer loop
      vertex 1.55 -4.2 3.5
      vertex 3.5 -4.2 1.16425e-06
      vertex 1.34234 -4.2 2.725
    endloop
  endfacet
  facet normal 0 1 0
    outer loop
      vertex 1.34234 -4.2 4.275
      vertex 3.5 -4.2 1.16425e-06
      vertex 1.55 -4.2 3.5
    endloop
  endfacet
  facet normal 0 1 0
    outer loop
      vertex 1.17157 -4.2 4.67157
      vertex 3.5 -4.2 1.16425e-06
      vertex 1.34234 -4.2 4.275
    endloop
  endfacet
  facet normal 0 1 0
    outer loop
      vertex 0 -4.2 5.05
      vertex 3.5 -4.2 7
      vertex 0.775 -4.2 4.84234
    endloop
  endfacet
  facet normal 0 1 0
    outer loop
      vertex -1.34234 -4.2 4.275
      vertex -4.82963 -4.2 4.7941
      vertex -0.775 -4.2 4.84234
    endloop
  endfacet
  facet normal 0 1 0
    outer loop
      vertex -4.82963 -4.2 4.7941
      vertex 3.5 -4.2 7
      vertex 0 -4.2 5.05
    endloop
  endfacet
  facet normal 0 1 0
    outer loop
      vertex -4.82963 -4.2 4.7941
      vertex 0 -4.2 5.05
      vertex -0.775 -4.2 4.84234
    endloop
  endfacet
  facet normal 0 1 0
    outer loop
      vertex 0.775 -4.2 4.84234
      vertex 1.17157 -4.2 4.67157
      vertex 1.34234 -4.2 4.275
    endloop
  endfacet
  facet normal -0 1 0
    outer loop
      vertex -1.34234 -4.2 4.275
      vertex -1.55 -4.2 3.5
      vertex -4.82963 -4.2 4.7941
    endloop
  endfacet
  facet normal 0 1 0
    outer loop
      vertex 3.5 -4.2 0
      vertex 0.775 -4.2 2.15766
      vertex 1.17157 -4.2 2.32843
    endloop
  endfacet
  facet normal 0 1 0
    outer loop
      vertex 1.34234 -4.2 2.725
      vertex 1.17157 -4.2 2.32843
      vertex 0.775 -4.2 2.15766
    endloop
  endfacet
  facet normal -0.92388 1.2139e-16 0.382683
    outer loop
      vertex -4.82963 -7 4.7941
      vertex -4.33013 -7 6
      vertex -4.82963 -4.2 4.7941
    endloop
  endfacet
  facet normal -0.92388 0 0.382683
    outer loop
      vertex -4.82963 -4.2 4.7941
      vertex -4.33013 -7 6
      vertex -4.33013 -4.2 6
    endloop
  endfacet
  facet normal -0.793353 0 0.608761
    outer loop
      vertex -4.33013 -7 6
      vertex -3.5628 -7 7
      vertex -4.33013 -4.2 6
    endloop
  endfacet
  facet normal -0.793353 1.23312e-16 0.608761
    outer loop
      vertex -4.33013 -4.2 6
      vertex -3.5628 -7 7
      vertex -3.5628 -4.2 7
    endloop
  endfacet
  facet normal 0 -0 1
    outer loop
      vertex -3.5628 -4.2 7
      vertex -3.5628 -7 7
      vertex -3 -7 7
    endloop
  endfacet
  facet normal 0 0 1
    outer loop
      vertex 1.27304 -7 7
      vertex -3.5628 -4.2 7
      vertex -3 -7 7
    endloop
  endfacet
  facet normal 0 0 1
    outer loop
      vertex 3.5 4.2 7
      vertex 8.64393 2.1 7
      vertex 23 2.02073 7
    endloop
  endfacet
  facet normal 0 0 1
    outer loop
      vertex 1.27304 7 7
      vertex -3.5628 7 7
      vertex -3.5628 4.2 7
    endloop
  endfacet
  facet normal 0 0 1
    outer loop
      vertex 23 2.02073 7
      vertex 1.27304 7 7
      vertex 3.5 4.2 7
    endloop
  endfacet
  facet normal 0 0 1
    outer loop
      vertex 8.64393 2.1 7
      vertex 8.64393 -2.1 7
      vertex 23 2.02073 7
    endloop
  endfacet
  facet normal -0 0 1
    outer loop
      vertex 23 -2.02073 7
      vertex 23 2.02073 7
      vertex 8.64393 -2.1 7
    endloop
  endfacet
  facet normal 0 0 1
    outer loop
      vertex 1.27304 -7 7
      vertex 23 -2.02073 7
      vertex 3.5 -4.2 7
    endloop
  endfacet
  facet normal 0 0 1
    outer loop
      vertex 1.27304 -7 7
      vertex 3.5 -4.2 7
      vertex -3.5628 -4.2 7
    endloop
  endfacet
  facet normal 0 0 1
    outer loop
      vertex -3.5628 4.2 7
      vertex 3.5 4.2 7
      vertex 1.27304 7 7
    endloop
  endfacet
  facet normal 0 -0 1
    outer loop
      vertex 8.64393 -2.1 7
      vertex 3.5 -4.2 7
      vertex 23 -2.02073 7
    endloop
  endfacet
  facet normal 0.194674 -0.849457 0.490434
    outer loop
      vertex 23 -2.02073 7
      vertex 1.27304 -7 7
      vertex 6.77533 -7 4.81591
    endloop
  endfacet
  facet normal 0.194674 -0.849457 0.490434
    outer loop
      vertex 23 -2.02073 7
      vertex 6.77533 -7 4.81591
      vertex 10.0904 -7 3.5
    endloop
  endfacet
  facet normal 0.194674 -0.849457 0.490434
    outer loop
      vertex 23 -4.04145 3.5
      vertex 23 -2.02073 7
      vertex 10.0904 -7 3.5
    endloop
  endfacet
  facet normal 0.194674 -0.849457 -0.490434
    outer loop
      vertex 10.0904 -7 3.5
      vertex 1.27304 -7 0
      vertex 23 -2.02073 0
    endloop
  endfacet
  facet normal 0.194674 -0.849457 -0.490434
    outer loop
      vertex 23 -4.04145 3.5
      vertex 10.0904 -7 3.5
      vertex 23 -2.02073 0
    endloop
  endfacet
  facet normal 0 0 -1
    outer loop
      vertex -3.5628 7 0
      vertex -3 7 0
      vertex -3.5628 4.2 0
    endloop
  endfacet
  facet normal 0 0 -1
    outer loop
      vertex -3.5628 4.2 0
      vertex -3 7 0
      vertex 1.27304 7 0
    endloop
  endfacet
  facet normal -0 -0 -1
    outer loop
      vertex 3.5 4.2 0
      vertex 1.27304 7 0
      vertex 23 2.02073 0
    endloop
  endfacet
  facet normal 0 0 -1
    outer loop
      vertex 8.64393 2.1 0
      vertex 23 2.02073 0
      vertex 23 -2.02073 0
    endloop
  endfacet
  facet normal -0 0 -1
    outer loop
      vertex 3.5 -4.2 0
      vertex 23 -2.02073 0
      vertex 1.27304 -7 0
    endloop
  endfacet
  facet normal 0 0 -1
    outer loop
      vertex -3.5628 -4.2 0
      vertex 1.27304 -7 0
      vertex -3.5628 -7 0
    endloop
  endfacet
  facet normal 0 0 -1
    outer loop
      vertex 8.64393 2.1 0
      vertex 23 -2.02073 0
      vertex 8.64393 -2.1 0
    endloop
  endfacet
  facet normal -0 0 -1
    outer loop
      vertex 8.64393 -2.1 0
      vertex 23 -2.02073 0
      vertex 3.5 -4.2 0
    endloop
  endfacet
  facet normal 0 0 -1
    outer loop
      vertex 3.5 4.2 0
      vertex 23 2.02073 0
      vertex 8.64393 2.1 0
    endloop
  endfacet
  facet normal 0 0 -1
    outer loop
      vertex -3.5628 4.2 0
      vertex 1.27304 7 0
      vertex 3.5 4.2 0
    endloop
  endfacet
  facet normal 0 0 -1
    outer loop
      vertex 3.5 -4.2 0
      vertex 1.27304 -7 0
      vertex -3.5628 -4.2 0
    endloop
  endfacet
  facet normal -0.793353 -9.65516e-17 -0.608761
    outer loop
      vertex -4.33013 -7 1
      vertex -4.33013 -4.2 1
      vertex -3.5628 -7 0
    endloop
  endfacet
  facet normal -0.793353 -1.25828e-16 -0.608761
    outer loop
      vertex -3.5628 -7 0
      vertex -4.33013 -4.2 1
      vertex -3.5628 -4.2 0
    endloop
  endfacet
  facet normal -0.92388 -6.06948e-17 -0.382683
    outer loop
      vertex -4.82963 -7 2.20591
      vertex -4.82963 -4.2 2.20591
      vertex -4.33013 -7 1
    endloop
  endfacet
  facet normal -0.92388 -6.06948e-17 -0.382683
    outer loop
      vertex -4.33013 -7 1
      vertex -4.82963 -4.2 2.20591
      vertex -4.33013 -4.2 1
    endloop
  endfacet
  facet normal 0.965926 4.10496e-17 0.258819
    outer loop
      vertex -1.34234 -7 2.725
      vertex -1.34234 -4.2 2.725
      vertex -1.55 -4.2 3.5
    endloop
  endfacet
  facet normal 0.965926 4.10496e-17 0.258819
    outer loop
      vertex -1.55 -7 3.5
      vertex -1.34234 -7 2.725
      vertex -1.55 -4.2 3.5
    endloop
  endfacet
  facet normal 0.707107 1.12149e-16 0.707107
    outer loop
      vertex -0.775 -7 2.15766
      vertex -0.775 -4.2 2.15766
      vertex -1.34234 -4.2 2.725
    endloop
  endfacet
  facet normal 0.707107 1.12149e-16 0.707107
    outer loop
      vertex -1.34234 -7 2.725
      vertex -0.775 -7 2.15766
      vertex -1.34234 -4.2 2.725
    endloop
  endfacet
  facet normal 0.258819 1.53199e-16 0.965926
    outer loop
      vertex 0 -7 1.95
      vertex 0 -4.2 1.95
      vertex -0.775 -4.2 2.15766
    endloop
  endfacet
  facet normal 0.258819 1.53199e-16 0.965926
    outer loop
      vertex -0.775 -7 2.15766
      vertex 0 -7 1.95
      vertex -0.775 -4.2 2.15766
    endloop
  endfacet
  facet normal -0.258819 1.53199e-16 0.965926
    outer loop
      vertex 0.775 -7 2.15766
      vertex 0.775 -4.2 2.15766
      vertex 0 -4.2 1.95
    endloop
  endfacet
  facet normal -0.258819 1.53199e-16 0.965926
    outer loop
      vertex 0 -7 1.95
      vertex 0.775 -7 2.15766
      vertex 0 -4.2 1.95
    endloop
  endfacet
  facet normal -0.707107 1.12149e-16 0.707107
    outer loop
      vertex 1.34234 -4.2 2.725
      vertex 0.775 -4.2 2.15766
      vertex 1.34234 -7 2.725
    endloop
  endfacet
  facet normal -0.707107 1.21077e-16 0.707107
    outer loop
      vertex 1.34234 -7 2.725
      vertex 0.775 -4.2 2.15766
      vertex 0.775 -7 2.15766
    endloop
  endfacet
  facet normal -0.965926 4.10496e-17 0.258819
    outer loop
      vertex 1.55 -4.2 3.5
      vertex 1.34234 -4.2 2.725
      vertex 1.55 -7 3.5
    endloop
  endfacet
  facet normal -0.965926 4.84306e-17 0.258819
    outer loop
      vertex 1.55 -7 3.5
      vertex 1.34234 -4.2 2.725
      vertex 1.34234 -7 2.725
    endloop
  endfacet
  facet normal -0.965926 -4.10496e-17 -0.258819
    outer loop
      vertex 1.55 -4.2 3.5
      vertex 1.55 -7 3.5
      vertex 1.34234 -4.2 4.275
    endloop
  endfacet
  facet normal -0.965926 -8.20992e-17 -0.258819
    outer loop
      vertex 1.34234 -4.2 4.275
      vertex 1.55 -7 3.5
      vertex 1.34234 -7 4.275
    endloop
  endfacet
  facet normal -0.707107 -2.24299e-16 -0.707107
    outer loop
      vertex 1.34234 -4.2 4.275
      vertex 1.34234 -7 4.275
      vertex 0.775 -4.2 4.84234
    endloop
  endfacet
  facet normal -0.707107 0 -0.707107
    outer loop
      vertex 0.775 -4.2 4.84234
      vertex 1.34234 -7 4.275
      vertex 0.775 -7 4.84234
    endloop
  endfacet
  facet normal -0.258819 0 -0.965926
    outer loop
      vertex 0.775 -4.2 4.84234
      vertex 0.775 -7 4.84234
      vertex 0 -4.2 5.05
    endloop
  endfacet
  facet normal -0.258819 0 -0.965926
    outer loop
      vertex 0 -4.2 5.05
      vertex 0.775 -7 4.84234
      vertex 0 -7 5.05
    endloop
  endfacet
  facet normal 0.258819 0 -0.965926
    outer loop
      vertex 0 -4.2 5.05
      vertex 0 -7 5.05
      vertex -0.775 -4.2 4.84234
    endloop
  endfacet
  facet normal 0.258819 0 -0.965926
    outer loop
      vertex -0.775 -4.2 4.84234
      vertex 0 -7 5.05
      vertex -0.775 -7 4.84234
    endloop
  endfacet
  facet normal 0.707107 0 -0.707107
    outer loop
      vertex -1.34234 -4.2 4.275
      vertex -0.775 -4.2 4.84234
      vertex -0.775 -7 4.84234
    endloop
  endfacet
  facet normal 0.707107 -2.24299e-16 -0.707107
    outer loop
      vertex -1.34234 -7 4.275
      vertex -1.34234 -4.2 4.275
      vertex -0.775 -7 4.84234
    endloop
  endfacet
  facet normal 0.965926 -7.2646e-17 -0.258819
    outer loop
      vertex -1.55 -4.2 3.5
      vertex -1.34234 -4.2 4.275
      vertex -1.34234 -7 4.275
    endloop
  endfacet
  facet normal 0.965926 -4.10496e-17 -0.258819
    outer loop
      vertex -1.55 -7 3.5
      vertex -1.55 -4.2 3.5
      vertex -1.34234 -7 4.275
    endloop
  endfacet
  facet normal 3.77026e-08 9.2352e-08 3.77026e-08
    outer loop
      vertex 3.5 -4.2 6.29823e-08
      vertex 3.5 -4.2 0
      vertex 1.17157 -4.2 2.32843
    endloop
  endfacet
  facet normal -1.13108e-07 2.77056e-07 -1.13108e-07
    outer loop
      vertex 3.5 -4.2 1.16425e-06
      vertex 3.5 -4.2 6.29823e-08
      vertex 1.17157 -4.2 2.32843
    endloop
  endfacet
  facet normal 3.76233e-08 6.51654e-08 -0
    outer loop
      vertex 3.5 -4.2 7
      vertex 3.5 -4.2 6.29823e-08
      vertex 3.5 -4.2 1.16425e-06
    endloop
  endfacet
  facet normal -0.353553 0.866025 0.353553
    outer loop
      vertex 8.64393 -2.1 7
      vertex 7.13731 -2.1 5.49338
      vertex 3.5 -4.2 7
    endloop
  endfacet
  facet normal -0.707107 -3.6203e-08 0.707107
    outer loop
      vertex 7.13731 -2.1 5.49338
      vertex 8.64393 -2.1 7
      vertex 8.64393 2.1 7
    endloop
  endfacet
  facet normal -0.707107 -3.6203e-08 0.707107
    outer loop
      vertex 7.13731 2.1 5.49338
      vertex 7.13731 -2.1 5.49338
      vertex 8.64393 2.1 7
    endloop
  endfacet
  facet normal -0.353553 -0.866025 0.353553
    outer loop
      vertex 7.13731 2.1 5.49338
      vertex 8.64393 2.1 7
      vertex 3.5 4.2 7
    endloop
  endfacet
  facet normal -0.5 -0.866025 0
    outer loop
      vertex 3.5 4.2 0
      vertex 7.13731 2.1 1.50662
      vertex 7.13731 2.1 5.49338
    endloop
  endfacet
  facet normal -0.5 -0.866025 0
    outer loop
      vertex 3.5 4.2 7
      vertex 3.5 4.2 0
      vertex 7.13731 2.1 5.49338
    endloop
  endfacet
  facet normal 3.54716e-08 -6.14386e-08 0
    outer loop
      vertex 3.5 4.2 1.03828e-06
      vertex 3.5 4.2 0
      vertex 3.5 4.2 7
    endloop
  endfacet
  facet normal 0 -1 0
    outer loop
      vertex -4.82963 4.2 2.2059
      vertex -4.33013 4.2 1
      vertex -3.5628 4.2 0
    endloop
  endfacet
  facet normal 0 -1 0
    outer loop
      vertex 0 4.2 1.95
      vertex -4.82963 4.2 2.2059
      vertex 3.5 4.2 0
    endloop
  endfacet
  facet normal 0 -1 0
    outer loop
      vertex 3.5 4.2 0
      vertex -4.82963 4.2 2.2059
      vertex -3.5628 4.2 0
    endloop
  endfacet
  facet normal 0 -1 0
    outer loop
      vertex -0.775 4.2 2.15766
      vertex -1.34234 4.2 2.725
      vertex -4.82963 4.2 2.2059
    endloop
  endfacet
  facet normal 0 -1 0
    outer loop
      vertex 3.5 4.2 7
      vertex 1.17157 4.2 2.32843
      vertex 3.5 4.2 1.03828e-06
    endloop
  endfacet
  facet normal -0 -1 0
    outer loop
      vertex -4.33013 4.2 6
      vertex -4.82963 4.2 2.2059
      vertex -3.5628 4.2 7
    endloop
  endfacet
  facet normal -0 -1 0
    outer loop
      vertex -4.82963 4.2 4.79409
      vertex -4.82963 4.2 2.2059
      vertex -4.33013 4.2 6
    endloop
  endfacet
  facet normal -0 -1 0
    outer loop
      vertex -5 4.2 3.5
      vertex -4.82963 4.2 2.2059
      vertex -4.82963 4.2 4.79409
    endloop
  endfacet
  facet normal 0 -1 0
    outer loop
      vertex 0.775 4.2 4.84234
      vertex 1.34234 4.2 4.275
      vertex 1.17157 4.2 4.67157
    endloop
  endfacet
  facet normal 0 -1 0
    outer loop
      vertex -3.5628 4.2 7
      vertex -4.82963 4.2 2.2059
      vertex -1.34234 4.2 4.275
    endloop
  endfacet
  facet normal 0 -1 0
    outer loop
      vertex -3.5628 4.2 7
      vertex -0.775 4.2 4.84234
      vertex 3.5 4.2 7
    endloop
  endfacet
  facet normal 0 -1 0
    outer loop
      vertex -3.5628 4.2 7
      vertex -1.34234 4.2 4.275
      vertex -0.775 4.2 4.84234
    endloop
  endfacet
  facet normal 0 -1 0
    outer loop
      vertex -0.775 4.2 4.84234
      vertex 0 4.2 5.05
      vertex 3.5 4.2 7
    endloop
  endfacet
  facet normal 0 -1 0
    outer loop
      vertex 3.5 4.2 7
      vertex 1.17157 4.2 4.67157
      vertex 1.34234 4.2 4.275
    endloop
  endfacet
  facet normal 0 -1 0
    outer loop
      vertex 3.5 4.2 7
      vertex 1.34234 4.2 4.275
      vertex 1.55 4.2 3.5
    endloop
  endfacet
  facet normal 0 -1 0
    outer loop
      vertex 3.5 4.2 7
      vertex 1.34234 4.2 2.725
      vertex 1.17157 4.2 2.32843
    endloop
  endfacet
  facet normal 0 -1 0
    outer loop
      vertex 3.5 4.2 7
      vertex 1.55 4.2 3.5
      vertex 1.34234 4.2 2.725
    endloop
  endfacet
  facet normal 0 -1 0
    outer loop
      vertex 1.17157 4.2 2.32843
      vertex 0.775 4.2 2.15766
      vertex 3.5 4.2 0
    endloop
  endfacet
  facet normal 0 -1 0
    outer loop
      vertex 0.775 4.2 2.15766
      vertex 0 4.2 1.95
      vertex 3.5 4.2 0
    endloop
  endfacet
  facet normal 0 -1 0
    outer loop
      vertex -0.775 4.2 2.15766
      vertex -4.82963 4.2 2.2059
      vertex 0 4.2 1.95
    endloop
  endfacet
  facet normal 0 -1 0
    outer loop
      vertex -1.55 4.2 3.5
      vertex -4.82963 4.2 2.2059
      vertex -1.34234 4.2 2.725
    endloop
  endfacet
  facet normal -0 -1 0
    outer loop
      vertex 0 4.2 5.05
      vertex 0.775 4.2 4.84234
      vertex 3.5 4.2 7
    endloop
  endfacet
  facet normal 0 -1 -0
    outer loop
      vertex 1.17157 4.2 4.67157
      vertex 3.5 4.2 7
      vertex 0.775 4.2 4.84234
    endloop
  endfacet
  facet normal 0 -1 -0
    outer loop
      vertex -1.55 4.2 3.5
      vertex -1.34234 4.2 4.275
      vertex -4.82963 4.2 2.2059
    endloop
  endfacet
  facet normal 0 -1 0
    outer loop
      vertex 1.34234 4.2 2.725
      vertex 0.775 4.2 2.15766
      vertex 1.17157 4.2 2.32843
    endloop
  endfacet
  facet normal -0.793353 0 0.608761
    outer loop
      vertex -4.33013 4.2 6
      vertex -3.5628 4.2 7
      vertex -4.33013 7 6
    endloop
  endfacet
  facet normal -0.793353 1.5414e-16 0.608761
    outer loop
      vertex -4.33013 7 6
      vertex -3.5628 4.2 7
      vertex -3.5628 7 7
    endloop
  endfacet
  facet normal 0 1 0
    outer loop
      vertex -5 7 3.5
      vertex -4.82963 7 4.79409
      vertex -3 7 3.5
    endloop
  endfacet
  facet normal 0 1 0
    outer loop
      vertex -3 7 3.5
      vertex -4.82963 7 4.79409
      vertex -4.33013 7 6
    endloop
  endfacet
  facet normal 0 1 0
    outer loop
      vertex -3 7 3.5
      vertex -4.33013 7 6
      vertex -3.5628 7 7
    endloop
  endfacet
  facet normal 0 1 0
    outer loop
      vertex -3 7 3.5
      vertex -3.5628 7 7
      vertex 1.27304 7 7
    endloop
  endfacet
  facet normal 0 1 0
    outer loop
      vertex 1.55 7 3.5
      vertex 1.27304 7 7
      vertex 10.0904 7 3.5
    endloop
  endfacet
  facet normal 0 1 0
    outer loop
      vertex -1.34234 7 2.725
      vertex -3 7 3.5
      vertex -1.55 7 3.5
    endloop
  endfacet
  facet normal -0 1 -0
    outer loop
      vertex -0.775 7 2.15766
      vertex 1.27304 7 0
      vertex -1.34234 7 2.725
    endloop
  endfacet
  facet normal -0 1 -0
    outer loop
      vertex 0 7 1.95
      vertex 1.27304 7 0
      vertex -0.775 7 2.15766
    endloop
  endfacet
  facet normal 0 1 -0
    outer loop
      vertex 1.55 7 3.5
      vertex 6.77533 7 2.18409
      vertex 1.34234 7 2.725
    endloop
  endfacet
  facet normal 0 1 0
    outer loop
      vertex 6.77533 7 2.18409
      vertex 1.27304 7 0
      vertex 0 7 1.95
    endloop
  endfacet
  facet normal 0 1 0
    outer loop
      vertex 6.77533 7 2.18409
      vertex 0 7 1.95
      vertex 0.775 7 2.15766
    endloop
  endfacet
  facet normal 0 1 0
    outer loop
      vertex 1.55 7 3.5
      vertex 10.0904 7 3.5
      vertex 6.77533 7 2.18409
    endloop
  endfacet
  facet normal 0 1 0
    outer loop
      vertex 1.34234 7 4.275
      vertex 1.27304 7 7
      vertex 1.55 7 3.5
    endloop
  endfacet
  facet normal 0 1 0
    outer loop
      vertex -0.775 7 4.84234
      vertex 1.27304 7 7
      vertex 0 7 5.05
    endloop
  endfacet
  facet normal 0 1 0
    outer loop
      vertex 0.775 7 4.84234
      vertex 1.27304 7 7
      vertex 1.34234 7 4.275
    endloop
  endfacet
  facet normal 0 1 0
    outer loop
      vertex 0 7 5.05
      vertex 1.27304 7 7
      vertex 0.775 7 4.84234
    endloop
  endfacet
  facet normal 0 1 0
    outer loop
      vertex -3 7 3.5
      vertex 1.27304 7 7
      vertex -0.775 7 4.84234
    endloop
  endfacet
  facet normal 0 1 0
    outer loop
      vertex -3 7 3.5
      vertex -0.775 7 4.84234
      vertex -1.34234 7 4.275
    endloop
  endfacet
  facet normal 0 1 0
    outer loop
      vertex -3 7 3.5
      vertex -1.34234 7 4.275
      vertex -1.55 7 3.5
    endloop
  endfacet
  facet normal 0 1 -0
    outer loop
      vertex 1.34234 7 2.725
      vertex 6.77533 7 2.18409
      vertex 0.775 7 2.15766
    endloop
  endfacet
  facet normal 0 1 0
    outer loop
      vertex -3 7 3.5
      vertex -1.34234 7 2.725
      vertex 1.27304 7 0
    endloop
  endfacet
  facet normal 0 1 0
    outer loop
      vertex -3 7 3.5
      vertex 1.27304 7 0
      vertex -3 7 0
    endloop
  endfacet
  facet normal 0.194674 0.849457 0.490434
    outer loop
      vertex 1.27304 7 7
      vertex 23 2.02073 7
      vertex 10.0904 7 3.5
    endloop
  endfacet
  facet normal 0.194674 0.849457 0.490434
    outer loop
      vertex 10.0904 7 3.5
      vertex 23 2.02073 7
      vertex 23 4.04145 3.5
    endloop
  endfacet
  facet normal 1 -0 0
    outer loop
      vertex 23 -2.42487 4.9
      vertex 23 -2.02073 7
      vertex 23 -4.04145 3.5
    endloop
  endfacet
  facet normal 1 0 0
    outer loop
      vertex 23 0 6.3
      vertex 23 1.4 5.92487
      vertex 23 2.02073 7
    endloop
  endfacet
  facet normal 1 -0 0
    outer loop
      vertex 23 -1.4 5.92487
      vertex 23 -2.02073 7
      vertex 23 -2.42487 4.9
    endloop
  endfacet
  facet normal 1 0 0
    outer loop
      vertex 23 2.02073 7
      vertex 23 -2.02073 7
      vertex 23 -1.4 5.92487
    endloop
  endfacet
  facet normal 1 0 0
    outer loop
      vertex 23 2.02073 7
      vertex 23 -1.4 5.92487
      vertex 23 0 6.3
    endloop
  endfacet
  facet normal 1 0 0
    outer loop
      vertex 23 2.42487 4.9
      vertex 23 2.02073 7
      vertex 23 1.4 5.92487
    endloop
  endfacet
  facet normal 1 -3.36116e-14 -6.46856e-15
    outer loop
      vertex 23 2.8 3.5
      vertex 23 2.02073 7
      vertex 23 2.42487 4.9
    endloop
  endfacet
  facet normal 1 -0 1.01506e-15
    outer loop
      vertex 23 4.04145 3.5
      vertex 23 2.02073 7
      vertex 23 2.8 3.5
    endloop
  endfacet
  facet normal 1 -2.86174e-15 3.30445e-15
    outer loop
      vertex 23 -2.8 3.5
      vertex 23 -2.42487 4.9
      vertex 23 -4.04145 3.5
    endloop
  endfacet
  facet normal 1 -0 -0
    outer loop
      vertex 23 -2.8 3.5
      vertex 23 -4.04145 3.5
      vertex 23 -2.02073 0
    endloop
  endfacet
  facet normal 1 -0 -0
    outer loop
      vertex 23 -2.42487 2.1
      vertex 23 -2.8 3.5
      vertex 23 -2.02073 0
    endloop
  endfacet
  facet normal 1 0 -0
    outer loop
      vertex 23 1.4 1.07513
      vertex 23 0 0.7
      vertex 23 2.02073 0
    endloop
  endfacet
  facet normal 1 0 0
    outer loop
      vertex 23 4.04145 3.5
      vertex 23 2.42487 2.1
      vertex 23 2.02073 0
    endloop
  endfacet
  facet normal 1 0 0
    outer loop
      vertex 23 2.42487 2.1
      vertex 23 1.4 1.07513
      vertex 23 2.02073 0
    endloop
  endfacet
  facet normal 1 -0 0
    outer loop
      vertex 23 2.02073 0
      vertex 23 0 0.7
      vertex 23 -2.02073 0
    endloop
  endfacet
  facet normal 1 -0 0
    outer loop
      vertex 23 0 0.7
      vertex 23 -1.4 1.07513
      vertex 23 -2.02073 0
    endloop
  endfacet
  facet normal 1 -0 0
    outer loop
      vertex 23 -1.4 1.07513
      vertex 23 -2.42487 2.1
      vertex 23 -2.02073 0
    endloop
  endfacet
  facet normal 1 0 -0
    outer loop
      vertex 23 2.8 3.5
      vertex 23 2.42487 2.1
      vertex 23 4.04145 3.5
    endloop
  endfacet
  facet normal -0.793353 -1.20689e-16 -0.608761
    outer loop
      vertex -4.33013 4.2 1
      vertex -4.33013 7 1
      vertex -3.5628 4.2 0
    endloop
  endfacet
  facet normal -0.793353 -1.25828e-16 -0.608761
    outer loop
      vertex -3.5628 4.2 0
      vertex -4.33013 7 1
      vertex -3.5628 7 0
    endloop
  endfacet
  facet normal -1.13108e-07 -2.77056e-07 -1.13108e-07
    outer loop
      vertex 1.17157 4.2 2.32843
      vertex 3.5 4.2 0
      vertex 3.5 4.2 1.03828e-06
    endloop
  endfacet
  facet normal -0.353553 -0.866025 -0.353553
    outer loop
      vertex 8.64393 2.1 0
      vertex 7.13731 2.1 1.50662
      vertex 3.5 4.2 0
    endloop
  endfacet
  facet normal -0.707107 -3.6203e-08 -0.707107
    outer loop
      vertex 8.64393 -2.1 0
      vertex 7.13731 -2.1 1.50662
      vertex 8.64393 2.1 0
    endloop
  endfacet
  facet normal -0.707107 -3.6203e-08 -0.707107
    outer loop
      vertex 8.64393 2.1 0
      vertex 7.13731 -2.1 1.50662
      vertex 7.13731 2.1 1.50662
    endloop
  endfacet
  facet normal -0.353553 0.866025 -0.353553
    outer loop
      vertex 8.64393 -2.1 0
      vertex 3.5 -4.2 0
      vertex 7.13731 -2.1 1.50662
    endloop
  endfacet
  facet normal -9.99719e-09 2.4488e-08 -9.99719e-09
    outer loop
      vertex 7.13731 -2.1 1.50662
      vertex 3.5 -4.2 0
      vertex 3.5 -4.2 6.29823e-08
    endloop
  endfacet
  facet normal 0.194674 0.849457 -0.490434
    outer loop
      vertex 6.77533 7 2.18409
      vertex 10.0904 7 3.5
      vertex 23 2.02073 0
    endloop
  endfacet
  facet normal 0.194674 0.849457 -0.490434
    outer loop
      vertex 23 2.02073 0
      vertex 10.0904 7 3.5
      vertex 23 4.04145 3.5
    endloop
  endfacet
  facet normal 0.194674 0.849457 -0.490434
    outer loop
      vertex 23 2.02073 0
      vertex 1.27304 7 0
      vertex 6.77533 7 2.18409
    endloop
  endfacet
  facet normal 0 1 -6.86332e-16
    outer loop
      vertex -5 7 3.5
      vertex -3 7 3.5
      vertex -4.82963 7 2.2059
    endloop
  endfacet
  facet normal 0 1 0
    outer loop
      vertex -4.82963 7 2.2059
      vertex -3 7 3.5
      vertex -3 7 0
    endloop
  endfacet
  facet normal 0 1 0
    outer loop
      vertex -4.82963 7 2.2059
      vertex -3 7 0
      vertex -3.5628 7 0
    endloop
  endfacet
  facet normal 0 1 0
    outer loop
      vertex -4.82963 7 2.2059
      vertex -3.5628 7 0
      vertex -4.33013 7 1
    endloop
  endfacet
  facet normal -0.5 0.866025 0
    outer loop
      vertex 7.13731 -2.1 5.49338
      vertex 7.13731 -2.1 1.50662
      vertex 3.5 -4.2 7
    endloop
  endfacet
  facet normal -0.5 0.866025 0
    outer loop
      vertex 3.5 -4.2 7
      vertex 7.13731 -2.1 1.50662
      vertex 3.5 -4.2 6.29823e-08
    endloop
  endfacet
  facet normal -1 -3.6203e-08 0
    outer loop
      vertex 7.13731 -2.1 5.49338
      vertex 7.13731 2.1 5.49338
      vertex 7.13731 -2.1 1.50662
    endloop
  endfacet
  facet normal -1 -3.6203e-08 0
    outer loop
      vertex 7.13731 -2.1 1.50662
      vertex 7.13731 2.1 5.49338
      vertex 7.13731 2.1 1.50662
    endloop
  endfacet
  facet normal -0.991445 -2.07019e-17 -0.130526
    outer loop
      vertex -5 4.2 3.5
      vertex -5 7 3.5
      vertex -4.82963 4.2 2.2059
    endloop
  endfacet
  facet normal -0.991445 -2.07019e-17 -0.130526
    outer loop
      vertex -4.82963 4.2 2.2059
      vertex -5 7 3.5
      vertex -4.82963 7 2.2059
    endloop
  endfacet
  facet normal -0.92388 -6.06948e-17 -0.382683
    outer loop
      vertex -4.82963 4.2 2.2059
      vertex -4.82963 7 2.2059
      vertex -4.33013 4.2 1
    endloop
  endfacet
  facet normal -0.92388 -7.58685e-17 -0.382683
    outer loop
      vertex -4.33013 4.2 1
      vertex -4.82963 7 2.2059
      vertex -4.33013 7 1
    endloop
  endfacet
  facet normal -0.991445 2.07019e-17 0.130526
    outer loop
      vertex -5 4.2 3.5
      vertex -4.82963 4.2 4.79409
      vertex -5 7 3.5
    endloop
  endfacet
  facet normal -0.991445 3.72127e-17 0.130526
    outer loop
      vertex -5 7 3.5
      vertex -4.82963 4.2 4.79409
      vertex -4.82963 7 4.79409
    endloop
  endfacet
  facet normal -0.92388 1.2139e-16 0.382683
    outer loop
      vertex -4.82963 4.2 4.79409
      vertex -4.33013 4.2 6
      vertex -4.82963 7 4.79409
    endloop
  endfacet
  facet normal -0.92388 0 0.382683
    outer loop
      vertex -4.82963 7 4.79409
      vertex -4.33013 4.2 6
      vertex -4.33013 7 6
    endloop
  endfacet
  facet normal 0.965926 -7.2646e-17 -0.258819
    outer loop
      vertex -1.55 7 3.5
      vertex -1.34234 7 4.275
      vertex -1.34234 4.2 4.275
    endloop
  endfacet
  facet normal 0.965926 -4.10496e-17 -0.258819
    outer loop
      vertex -1.55 4.2 3.5
      vertex -1.55 7 3.5
      vertex -1.34234 4.2 4.275
    endloop
  endfacet
  facet normal 0.965926 4.10496e-17 0.258819
    outer loop
      vertex -1.34234 4.2 2.725
      vertex -1.34234 7 2.725
      vertex -1.55 7 3.5
    endloop
  endfacet
  facet normal 0.965926 4.10496e-17 0.258819
    outer loop
      vertex -1.55 4.2 3.5
      vertex -1.34234 4.2 2.725
      vertex -1.55 7 3.5
    endloop
  endfacet
  facet normal 0.707107 1.12149e-16 0.707107
    outer loop
      vertex -0.775 4.2 2.15766
      vertex -0.775 7 2.15766
      vertex -1.34234 7 2.725
    endloop
  endfacet
  facet normal 0.707107 1.12149e-16 0.707107
    outer loop
      vertex -1.34234 4.2 2.725
      vertex -0.775 4.2 2.15766
      vertex -1.34234 7 2.725
    endloop
  endfacet
  facet normal 0.258819 2.29798e-16 0.965926
    outer loop
      vertex 0 4.2 1.95
      vertex 0 7 1.95
      vertex -0.775 7 2.15766
    endloop
  endfacet
  facet normal 0.258819 1.53199e-16 0.965926
    outer loop
      vertex -0.775 4.2 2.15766
      vertex 0 4.2 1.95
      vertex -0.775 7 2.15766
    endloop
  endfacet
  facet normal -0.258819 1.53199e-16 0.965926
    outer loop
      vertex 0.775 4.2 2.15766
      vertex 0.775 7 2.15766
      vertex 0 7 1.95
    endloop
  endfacet
  facet normal -0.258819 2.29798e-16 0.965926
    outer loop
      vertex 0 4.2 1.95
      vertex 0.775 4.2 2.15766
      vertex 0 7 1.95
    endloop
  endfacet
  facet normal -0.707107 1.12149e-16 0.707107
    outer loop
      vertex 1.34234 7 2.725
      vertex 0.775 7 2.15766
      vertex 1.34234 4.2 2.725
    endloop
  endfacet
  facet normal -0.707107 1.21077e-16 0.707107
    outer loop
      vertex 1.34234 4.2 2.725
      vertex 0.775 7 2.15766
      vertex 0.775 4.2 2.15766
    endloop
  endfacet
  facet normal -0.965926 4.10496e-17 0.258819
    outer loop
      vertex 1.55 7 3.5
      vertex 1.34234 7 2.725
      vertex 1.55 4.2 3.5
    endloop
  endfacet
  facet normal -0.965926 4.84306e-17 0.258819
    outer loop
      vertex 1.55 4.2 3.5
      vertex 1.34234 7 2.725
      vertex 1.34234 4.2 2.725
    endloop
  endfacet
  facet normal -0.965926 -4.10496e-17 -0.258819
    outer loop
      vertex 1.55 7 3.5
      vertex 1.55 4.2 3.5
      vertex 1.34234 7 4.275
    endloop
  endfacet
  facet normal -0.965926 -8.20992e-17 -0.258819
    outer loop
      vertex 1.34234 7 4.275
      vertex 1.55 4.2 3.5
      vertex 1.34234 4.2 4.275
    endloop
  endfacet
  facet normal -0.707107 -2.24299e-16 -0.707107
    outer loop
      vertex 1.34234 7 4.275
      vertex 1.34234 4.2 4.275
      vertex 0.775 7 4.84234
    endloop
  endfacet
  facet normal -0.707107 0 -0.707107
    outer loop
      vertex 0.775 7 4.84234
      vertex 1.34234 4.2 4.275
      vertex 0.775 4.2 4.84234
    endloop
  endfacet
  facet normal -0.258819 0 -0.965926
    outer loop
      vertex 0.775 7 4.84234
      vertex 0.775 4.2 4.84234
      vertex 0 7 5.05
    endloop
  endfacet
  facet normal -0.258819 0 -0.965926
    outer loop
      vertex 0 7 5.05
      vertex 0.775 4.2 4.84234
      vertex 0 4.2 5.05
    endloop
  endfacet
  facet normal 0.258819 0 -0.965926
    outer loop
      vertex 0 7 5.05
      vertex 0 4.2 5.05
      vertex -0.775 7 4.84234
    endloop
  endfacet
  facet normal 0.258819 0 -0.965926
    outer loop
      vertex -0.775 7 4.84234
      vertex 0 4.2 5.05
      vertex -0.775 4.2 4.84234
    endloop
  endfacet
  facet normal 0.707107 0 -0.707107
    outer loop
      vertex -1.34234 7 4.275
      vertex -0.775 7 4.84234
      vertex -0.775 4.2 4.84234
    endloop
  endfacet
  facet normal 0.707107 -2.24299e-16 -0.707107
    outer loop
      vertex -1.34234 4.2 4.275
      vertex -1.34234 7 4.275
      vertex -0.775 4.2 4.84234
    endloop
  endfacet
  facet normal 4.92595e-17 -0.965926 -0.258819
    outer loop
      vertex 9 2.42487 4.9
      vertex 9 2.8 3.5
      vertex 23 2.42487 4.9
    endloop
  endfacet
  facet normal 2.51342e-17 -0.965926 -0.258819
    outer loop
      vertex 23 2.42487 4.9
      vertex 9 2.8 3.5
      vertex 23 2.8 3.5
    endloop
  endfacet
  facet normal 1.34579e-16 -0.707107 -0.707107
    outer loop
      vertex 9 2.42487 4.9
      vertex 23 2.42487 4.9
      vertex 23 1.4 5.92487
    endloop
  endfacet
  facet normal 1.34579e-16 -0.707107 -0.707107
    outer loop
      vertex 9 1.4 5.92487
      vertex 9 2.42487 4.9
      vertex 23 1.4 5.92487
    endloop
  endfacet
  facet normal 1.83839e-16 -0.258819 -0.965926
    outer loop
      vertex 23 1.4 5.92487
      vertex 23 0 6.3
      vertex 9 1.4 5.92487
    endloop
  endfacet
  facet normal 2.42964e-16 -0.258819 -0.965926
    outer loop
      vertex 9 1.4 5.92487
      vertex 23 0 6.3
      vertex 9 0 6.3
    endloop
  endfacet
  facet normal 1.83839e-16 0.258819 -0.965926
    outer loop
      vertex 23 -1.4 5.92487
      vertex 9 -1.4 5.92487
      vertex 23 0 6.3
    endloop
  endfacet
  facet normal 2.45118e-16 0.258819 -0.965926
    outer loop
      vertex 23 0 6.3
      vertex 9 -1.4 5.92487
      vertex 9 0 6.3
    endloop
  endfacet
  facet normal 1.34579e-16 0.707107 -0.707107
    outer loop
      vertex 23 -2.42487 4.9
      vertex 9 -2.42487 4.9
      vertex 23 -1.4 5.92487
    endloop
  endfacet
  facet normal 1.34579e-16 0.707107 -0.707107
    outer loop
      vertex 23 -1.4 5.92487
      vertex 9 -2.42487 4.9
      vertex 9 -1.4 5.92487
    endloop
  endfacet
  facet normal 5.44575e-17 0.965926 -0.258819
    outer loop
      vertex 23 -2.42487 4.9
      vertex 23 -2.8 3.5
      vertex 9 -2.8 3.5
    endloop
  endfacet
  facet normal 4.92595e-17 0.965926 -0.258819
    outer loop
      vertex 23 -2.42487 4.9
      vertex 9 -2.8 3.5
      vertex 9 -2.42487 4.9
    endloop
  endfacet
  facet normal -4.92595e-17 0.965926 0.258819
    outer loop
      vertex 23 -2.42487 2.1
      vertex 9 -2.42487 2.1
      vertex 23 -2.8 3.5
    endloop
  endfacet
  facet normal -5.74694e-17 0.965926 0.258819
    outer loop
      vertex 23 -2.8 3.5
      vertex 9 -2.42487 2.1
      vertex 9 -2.8 3.5
    endloop
  endfacet
  facet normal -1.45794e-16 0.707107 0.707107
    outer loop
      vertex 23 -1.4 1.07513
      vertex 9 -1.4 1.07513
      vertex 23 -2.42487 2.1
    endloop
  endfacet
  facet normal -1.34579e-16 0.707107 0.707107
    outer loop
      vertex 23 -2.42487 2.1
      vertex 9 -1.4 1.07513
      vertex 9 -2.42487 2.1
    endloop
  endfacet
  facet normal -2.05263e-16 0.258819 0.965926
    outer loop
      vertex 23 -1.4 1.07513
      vertex 23 0 0.7
      vertex 9 0 0.7
    endloop
  endfacet
  facet normal -1.99159e-16 0.258819 0.965926
    outer loop
      vertex 9 -1.4 1.07513
      vertex 23 -1.4 1.07513
      vertex 9 0 0.7
    endloop
  endfacet
  facet normal -2.06819e-16 -0.258819 0.965926
    outer loop
      vertex 9 0 0.7
      vertex 23 0 0.7
      vertex 23 1.4 1.07513
    endloop
  endfacet
  facet normal -1.99159e-16 -0.258819 0.965926
    outer loop
      vertex 9 1.4 1.07513
      vertex 9 0 0.7
      vertex 23 1.4 1.07513
    endloop
  endfacet
  facet normal -1.45794e-16 -0.707107 0.707107
    outer loop
      vertex 9 1.4 1.07513
      vertex 23 1.4 1.07513
      vertex 23 2.42487 2.1
    endloop
  endfacet
  facet normal -1.34579e-16 -0.707107 0.707107
    outer loop
      vertex 9 2.42487 2.1
      vertex 9 1.4 1.07513
      vertex 23 2.42487 2.1
    endloop
  endfacet
  facet normal -4.92595e-17 -0.965926 0.258819
    outer loop
      vertex 9 2.42487 2.1
      vertex 23 2.42487 2.1
      vertex 23 2.8 3.5
    endloop
  endfacet
  facet normal -5.74694e-17 -0.965926 0.258819
    outer loop
      vertex 9 2.8 3.5
      vertex 9 2.42487 2.1
      vertex 23 2.8 3.5
    endloop
  endfacet
  facet normal 1 -1.73325e-15 1.73325e-15
    outer loop
      vertex 9 -1.4 5.92487
      vertex 9 -2.42487 4.9
      vertex 9 -2.8 3.5
    endloop
  endfacet
  facet normal 1 3.66279e-16 3.66279e-16
    outer loop
      vertex 9 -1.4 1.07513
      vertex 9 -1.4 5.92487
      vertex 9 -2.42487 2.1
    endloop
  endfacet
  facet normal 1 8.66624e-16 2.32211e-16
    outer loop
      vertex 9 -2.42487 2.1
      vertex 9 -1.4 5.92487
      vertex 9 -2.8 3.5
    endloop
  endfacet
  facet normal 1 9.81441e-17 3.66279e-16
    outer loop
      vertex 9 0 0.7
      vertex 9 -1.4 5.92487
      vertex 9 -1.4 1.07513
    endloop
  endfacet
  facet normal 1 -8.49953e-17 3.17207e-16
    outer loop
      vertex 9 1.4 1.07513
      vertex 9 -1.4 5.92487
      vertex 9 0 0.7
    endloop
  endfacet
  facet normal 1 -2.32211e-16 2.32211e-16
    outer loop
      vertex 9 2.42487 2.1
      vertex 9 -1.4 5.92487
      vertex 9 1.4 1.07513
    endloop
  endfacet
  facet normal 1 -3.66279e-16 9.81441e-17
    outer loop
      vertex 9 2.8 3.5
      vertex 9 -1.4 5.92487
      vertex 9 2.42487 2.1
    endloop
  endfacet
  facet normal 1 3.66279e-16 1.36697e-15
    outer loop
      vertex 9 2.42487 4.9
      vertex 9 -1.4 5.92487
      vertex 9 2.8 3.5
    endloop
  endfacet
  facet normal 1 0 -0
    outer loop
      vertex 9 1.4 5.92487
      vertex 9 -1.4 5.92487
      vertex 9 2.42487 4.9
    endloop
  endfacet
  facet normal 1 0 -0
    outer loop
      vertex 9 0 6.3
      vertex 9 -1.4 5.92487
      vertex 9 1.4 5.92487
    endloop
  endfacet
endsolid OpenSCAD_Model
