solid Default
  facet normal -9.980238e-01 6.283791e-02 0.000000e+00
    outer loop
      vertex -1.568795e+01 -3.405583e+00 2.850000e+01
      vertex -1.573716e+01 -4.187193e+00 0.000000e+00
      vertex -1.573716e+01 -4.187193e+00 2.850000e+01
    endloop
  endfacet
  facet normal -9.980238e-01 6.283791e-02 0.000000e+00
    outer loop
      vertex -1.573716e+01 -4.187193e+00 0.000000e+00
      vertex -1.568795e+01 -3.405583e+00 2.850000e+01
      vertex -1.568795e+01 -3.405583e+00 0.000000e+00
    endloop
  endfacet
  facet normal -1.976108e-01 9.802806e-01 0.000000e+00
    outer loop
      vertex -1.253510e+01 -7.051181e+00 6.000000e+00
      vertex -1.174820e+01 -6.892551e+00 0.000000e+00
      vertex -1.253510e+01 -7.051181e+00 0.000000e+00
    endloop
  endfacet
  facet normal -1.976108e-01 9.802806e-01 0.000000e+00
    outer loop
      vertex -1.174820e+01 -6.892551e+00 0.000000e+00
      vertex -1.253510e+01 -7.051181e+00 6.000000e+00
      vertex -1.174820e+01 -6.892551e+00 6.000000e+00
    endloop
  endfacet
  facet normal 9.477532e-01 -3.190043e-01 0.000000e+00
    outer loop
      vertex -1.303077e+01 1.148494e+01 0.000000e+00
      vertex -1.331183e+01 1.064992e+01 6.000000e+00
      vertex -1.331183e+01 1.064992e+01 0.000000e+00
    endloop
  endfacet
  facet normal 9.477532e-01 -3.190043e-01 0.000000e+00
    outer loop
      vertex -1.331183e+01 1.064992e+01 6.000000e+00
      vertex -1.303077e+01 1.148494e+01 0.000000e+00
      vertex -1.303077e+01 1.148494e+01 6.000000e+00
    endloop
  endfacet
  facet normal 1.976108e-01 -9.802806e-01 0.000000e+00
    outer loop
      vertex -1.022939e+01 1.336720e+01 6.000000e+00
      vertex -1.109307e+01 1.319309e+01 0.000000e+00
      vertex -1.022939e+01 1.336720e+01 0.000000e+00
    endloop
  endfacet
  facet normal 1.976108e-01 -9.802806e-01 0.000000e+00
    outer loop
      vertex -1.109307e+01 1.319309e+01 0.000000e+00
      vertex -1.022939e+01 1.336720e+01 6.000000e+00
      vertex -1.109307e+01 1.319309e+01 6.000000e+00
    endloop
  endfacet
  facet normal 7.501425e-01 6.612763e-01 0.000000e+00
    outer loop
      vertex -1.280138e+01 8.117741e+00 0.000000e+00
      vertex -1.221876e+01 7.456827e+00 6.000000e+00
      vertex -1.221876e+01 7.456827e+00 0.000000e+00
    endloop
  endfacet
  facet normal 7.501425e-01 6.612763e-01 0.000000e+00
    outer loop
      vertex -1.221876e+01 7.456827e+00 6.000000e+00
      vertex -1.280138e+01 8.117741e+00 0.000000e+00
      vertex -1.280138e+01 8.117741e+00 6.000000e+00
    endloop
  endfacet
  facet normal -9.802806e-01 -1.976108e-01 -0.000000e+00
    outer loop
      vertex -2.795837e+01 8.776577e+00 6.000000e+00
      vertex -2.702981e+01 4.170295e+00 0.000000e+00
      vertex -2.702981e+01 4.170295e+00 6.000000e+00
    endloop
  endfacet
  facet normal -9.802806e-01 -1.976108e-01 -0.000000e+00
    outer loop
      vertex -2.702981e+01 4.170295e+00 0.000000e+00
      vertex -2.795837e+01 8.776577e+00 6.000000e+00
      vertex -2.795837e+01 8.776577e+00 0.000000e+00
    endloop
  endfacet
  facet normal 9.802806e-01 1.976108e-01 0.000000e+00
    outer loop
      vertex -9.905797e+00 -3.011674e+00 0.000000e+00
      vertex -9.751037e+00 -3.779387e+00 2.850000e+01
      vertex -9.751037e+00 -3.779387e+00 0.000000e+00
    endloop
  endfacet
  facet normal 9.802806e-01 1.976108e-01 0.000000e+00
    outer loop
      vertex -9.751037e+00 -3.779387e+00 2.850000e+01
      vertex -9.905797e+00 -3.011674e+00 0.000000e+00
      vertex -9.905797e+00 -3.011674e+00 2.850000e+01
    endloop
  endfacet
  facet normal 9.980238e-01 -6.283791e-02 0.000000e+00
    outer loop
      vertex -1.576155e+01 -3.391142e+00 0.000000e+00
      vertex -1.581199e+01 -4.192293e+00 6.000000e+00
      vertex -1.581199e+01 -4.192293e+00 0.000000e+00
    endloop
  endfacet
  facet normal 9.980238e-01 -6.283791e-02 0.000000e+00
    outer loop
      vertex -1.581199e+01 -4.192293e+00 6.000000e+00
      vertex -1.576155e+01 -3.391142e+00 0.000000e+00
      vertex -1.576155e+01 -3.391142e+00 6.000000e+00
    endloop
  endfacet
  facet normal 5.534311e-01 8.328950e-01 0.000000e+00
    outer loop
      vertex -1.221876e+01 7.456827e+00 6.000000e+00
      vertex -1.148494e+01 6.969226e+00 0.000000e+00
      vertex -1.221876e+01 7.456827e+00 0.000000e+00
    endloop
  endfacet
  facet normal 5.534311e-01 8.328950e-01 0.000000e+00
    outer loop
      vertex -1.148494e+01 6.969226e+00 0.000000e+00
      vertex -1.221876e+01 7.456827e+00 6.000000e+00
      vertex -1.148494e+01 6.969226e+00 6.000000e+00
    endloop
  endfacet
  facet normal -6.612763e-01 7.501425e-01 0.000000e+00
    outer loop
      vertex -2.356358e+01 2.183340e+01 6.000000e+00
      vertex -2.003870e+01 2.494070e+01 0.000000e+00
      vertex -2.356358e+01 2.183340e+01 0.000000e+00
    endloop
  endfacet
  facet normal -6.612763e-01 7.501425e-01 0.000000e+00
    outer loop
      vertex -2.003870e+01 2.494070e+01 0.000000e+00
      vertex -2.356358e+01 2.183340e+01 6.000000e+00
      vertex -2.003870e+01 2.494070e+01 6.000000e+00
    endloop
  endfacet
  facet normal -8.957329e-01 -4.445927e-01 -0.000000e+00
    outer loop
      vertex -2.702981e+01 4.170295e+00 6.000000e+00
      vertex -2.494070e+01 -3.870279e-02 0.000000e+00
      vertex -2.494070e+01 -3.870279e-02 6.000000e+00
    endloop
  endfacet
  facet normal -8.957329e-01 -4.445927e-01 -0.000000e+00
    outer loop
      vertex -2.494070e+01 -3.870279e-02 0.000000e+00
      vertex -2.702981e+01 4.170295e+00 6.000000e+00
      vertex -2.702981e+01 4.170295e+00 0.000000e+00
    endloop
  endfacet
  facet normal -9.477532e-01 3.190043e-01 0.000000e+00
    outer loop
      vertex -6.688169e+00 9.350080e+00 6.000000e+00
      vertex -6.969229e+00 8.515062e+00 0.000000e+00
      vertex -6.969229e+00 8.515062e+00 6.000000e+00
    endloop
  endfacet
  facet normal -9.477532e-01 3.190043e-01 0.000000e+00
    outer loop
      vertex -6.969229e+00 8.515062e+00 0.000000e+00
      vertex -6.688169e+00 9.350080e+00 6.000000e+00
      vertex -6.688169e+00 9.350080e+00 0.000000e+00
    endloop
  endfacet
  facet normal 9.980238e-01 -6.283791e-02 0.000000e+00
    outer loop
      vertex 7.958373e+00 1.122342e+01 0.000000e+00
      vertex 7.663108e+00 6.533764e+00 6.000000e+00
      vertex 7.663108e+00 6.533764e+00 0.000000e+00
    endloop
  endfacet
  facet normal 9.980238e-01 -6.283791e-02 0.000000e+00
    outer loop
      vertex 7.663108e+00 6.533764e+00 6.000000e+00
      vertex 7.958373e+00 1.122342e+01 0.000000e+00
      vertex 7.958373e+00 1.122342e+01 6.000000e+00
    endloop
  endfacet
  facet normal 7.501425e-01 6.612763e-01 0.000000e+00
    outer loop
      vertex 1.833402e+00 2.356358e+01 0.000000e+00
      vertex 4.940702e+00 2.003870e+01 6.000000e+00
      vertex 4.940702e+00 2.003870e+01 0.000000e+00
    endloop
  endfacet
  facet normal 7.501425e-01 6.612763e-01 0.000000e+00
    outer loop
      vertex 4.940702e+00 2.003870e+01 6.000000e+00
      vertex 1.833402e+00 2.356358e+01 0.000000e+00
      vertex 1.833402e+00 2.356358e+01 6.000000e+00
    endloop
  endfacet
  facet normal -8.957329e-01 -4.445927e-01 -0.000000e+00
    outer loop
      vertex -7.198619e+00 1.188226e+01 6.000000e+00
      vertex -6.806909e+00 1.109307e+01 0.000000e+00
      vertex -6.806909e+00 1.109307e+01 6.000000e+00
    endloop
  endfacet
  facet normal -8.957329e-01 -4.445927e-01 -0.000000e+00
    outer loop
      vertex -6.806909e+00 1.109307e+01 0.000000e+00
      vertex -7.198619e+00 1.188226e+01 6.000000e+00
      vertex -7.198619e+00 1.188226e+01 0.000000e+00
    endloop
  endfacet
  facet normal 5.534311e-01 8.328950e-01 0.000000e+00
    outer loop
      vertex -2.080327e+00 2.616412e+01 6.000000e+00
      vertex 1.833402e+00 2.356358e+01 0.000000e+00
      vertex -2.080327e+00 2.616412e+01 0.000000e+00
    endloop
  endfacet
  facet normal 5.534311e-01 8.328950e-01 0.000000e+00
    outer loop
      vertex 1.833402e+00 2.356358e+01 0.000000e+00
      vertex -2.080327e+00 2.616412e+01 6.000000e+00
      vertex 1.833402e+00 2.356358e+01 6.000000e+00
    endloop
  endfacet
  facet normal 4.445927e-01 -8.957329e-01 0.000000e+00
    outer loop
      vertex -1.109307e+01 1.319309e+01 6.000000e+00
      vertex -1.188226e+01 1.280138e+01 0.000000e+00
      vertex -1.109307e+01 1.319309e+01 0.000000e+00
    endloop
  endfacet
  facet normal 4.445927e-01 -8.957329e-01 0.000000e+00
    outer loop
      vertex -1.188226e+01 1.280138e+01 0.000000e+00
      vertex -1.109307e+01 1.319309e+01 6.000000e+00
      vertex -1.188226e+01 1.280138e+01 6.000000e+00
    endloop
  endfacet
  facet normal -6.612763e-01 7.501425e-01 0.000000e+00
    outer loop
      vertex -1.500470e+01 -2.011056e+00 2.850000e+01
      vertex -1.441722e+01 -1.493175e+00 0.000000e+00
      vertex -1.500470e+01 -2.011056e+00 0.000000e+00
    endloop
  endfacet
  facet normal -6.612763e-01 7.501425e-01 0.000000e+00
    outer loop
      vertex -1.441722e+01 -1.493175e+00 0.000000e+00
      vertex -1.500470e+01 -2.011056e+00 2.850000e+01
      vertex -1.441722e+01 -1.493175e+00 2.850000e+01
    endloop
  endfacet
  facet normal -5.534311e-01 -8.328950e-01 -0.000000e+00
    outer loop
      vertex -7.781237e+00 1.254317e+01 6.000000e+00
      vertex -8.515061e+00 1.303077e+01 0.000000e+00
      vertex -7.781237e+00 1.254317e+01 0.000000e+00
    endloop
  endfacet
  facet normal -5.534311e-01 -8.328950e-01 -0.000000e+00
    outer loop
      vertex -8.515061e+00 1.303077e+01 0.000000e+00
      vertex -7.781237e+00 1.254317e+01 6.000000e+00
      vertex -8.515061e+00 1.303077e+01 6.000000e+00
    endloop
  endfacet
  facet normal -9.980238e-01 6.283791e-02 0.000000e+00
    outer loop
      vertex -9.676214e+00 -3.774290e+00 6.000000e+00
      vertex -9.726654e+00 -4.575438e+00 0.000000e+00
      vertex -9.726654e+00 -4.575438e+00 6.000000e+00
    endloop
  endfacet
  facet normal -9.980238e-01 6.283791e-02 0.000000e+00
    outer loop
      vertex -9.726654e+00 -4.575438e+00 0.000000e+00
      vertex -9.676214e+00 -3.774290e+00 6.000000e+00
      vertex -9.676214e+00 -3.774290e+00 0.000000e+00
    endloop
  endfacet
  facet normal 3.190043e-01 9.477532e-01 0.000000e+00
    outer loop
      vertex -1.409705e+01 -6.744662e+00 6.000000e+00
      vertex -1.333625e+01 -7.000737e+00 0.000000e+00
      vertex -1.409705e+01 -6.744662e+00 0.000000e+00
    endloop
  endfacet
  facet normal 3.190043e-01 9.477532e-01 0.000000e+00
    outer loop
      vertex -1.333625e+01 -7.000737e+00 0.000000e+00
      vertex -1.409705e+01 -6.744662e+00 6.000000e+00
      vertex -1.333625e+01 -7.000737e+00 6.000000e+00
    endloop
  endfacet
  facet normal -9.477532e-01 3.190043e-01 0.000000e+00
    outer loop
      vertex -1.543812e+01 -2.663344e+00 2.850000e+01
      vertex -1.568795e+01 -3.405583e+00 0.000000e+00
      vertex -1.568795e+01 -3.405583e+00 2.850000e+01
    endloop
  endfacet
  facet normal -9.477532e-01 3.190043e-01 0.000000e+00
    outer loop
      vertex -1.568795e+01 -3.405583e+00 0.000000e+00
      vertex -1.543812e+01 -2.663344e+00 2.850000e+01
      vertex -1.543812e+01 -2.663344e+00 0.000000e+00
    endloop
  endfacet
  facet normal 9.802806e-01 1.976108e-01 0.000000e+00
    outer loop
      vertex -1.336719e+01 9.770608e+00 0.000000e+00
      vertex -1.319309e+01 8.906929e+00 6.000000e+00
      vertex -1.319309e+01 8.906929e+00 0.000000e+00
    endloop
  endfacet
  facet normal 9.802806e-01 1.976108e-01 0.000000e+00
    outer loop
      vertex -1.319309e+01 8.906929e+00 6.000000e+00
      vertex -1.336719e+01 9.770608e+00 0.000000e+00
      vertex -1.336719e+01 9.770608e+00 6.000000e+00
    endloop
  endfacet
  facet normal -9.980238e-01 6.283791e-02 0.000000e+00
    outer loop
      vertex -6.632801e+00 1.022939e+01 6.000000e+00
      vertex -6.688169e+00 9.350080e+00 0.000000e+00
      vertex -6.688169e+00 9.350080e+00 6.000000e+00
    endloop
  endfacet
  facet normal -9.980238e-01 6.283791e-02 0.000000e+00
    outer loop
      vertex -6.688169e+00 9.350080e+00 0.000000e+00
      vertex -6.632801e+00 1.022939e+01 6.000000e+00
      vertex -6.632801e+00 1.022939e+01 0.000000e+00
    endloop
  endfacet
  facet normal -3.190043e-01 -9.477532e-01 0.000000e+00
    outer loop
      vertex -1.139115e+01 -1.221922e+00 6.000000e+00
      vertex -1.215195e+01 -9.658423e-01 0.000000e+00
      vertex -1.139115e+01 -1.221922e+00 0.000000e+00
    endloop
  endfacet
  facet normal -3.190043e-01 -9.477532e-01 0.000000e+00
    outer loop
      vertex -1.215195e+01 -9.658423e-01 0.000000e+00
      vertex -1.139115e+01 -1.221922e+00 6.000000e+00
      vertex -1.215195e+01 -9.658423e-01 6.000000e+00
    endloop
  endfacet
  facet normal -4.445927e-01 8.957329e-01 0.000000e+00
    outer loop
      vertex -1.174820e+01 -6.892551e+00 6.000000e+00
      vertex -1.102916e+01 -6.535660e+00 0.000000e+00
      vertex -1.174820e+01 -6.892551e+00 0.000000e+00
    endloop
  endfacet
  facet normal -4.445927e-01 8.957329e-01 0.000000e+00
    outer loop
      vertex -1.102916e+01 -6.535660e+00 0.000000e+00
      vertex -1.174820e+01 -6.892551e+00 6.000000e+00
      vertex -1.102916e+01 -6.535660e+00 6.000000e+00
    endloop
  endfacet
  facet normal -7.501425e-01 -6.612763e-01 -0.000000e+00
    outer loop
      vertex -1.523422e+01 -5.656407e+00 2.850000e+01
      vertex -1.471634e+01 -6.243886e+00 0.000000e+00
      vertex -1.471634e+01 -6.243886e+00 2.850000e+01
    endloop
  endfacet
  facet normal -7.501425e-01 -6.612763e-01 -0.000000e+00
    outer loop
      vertex -1.471634e+01 -6.243886e+00 0.000000e+00
      vertex -1.523422e+01 -5.656407e+00 2.850000e+01
      vertex -1.523422e+01 -5.656407e+00 0.000000e+00
    endloop
  endfacet
  facet normal -4.445927e-01 8.957329e-01 0.000000e+00
    outer loop
      vertex -2.003870e+01 2.494070e+01 6.000000e+00
      vertex -1.582970e+01 2.702981e+01 0.000000e+00
      vertex -2.003870e+01 2.494070e+01 0.000000e+00
    endloop
  endfacet
  facet normal -4.445927e-01 8.957329e-01 0.000000e+00
    outer loop
      vertex -1.582970e+01 2.702981e+01 0.000000e+00
      vertex -2.003870e+01 2.494070e+01 6.000000e+00
      vertex -1.582970e+01 2.702981e+01 6.000000e+00
    endloop
  endfacet
  facet normal 7.501425e-01 6.612763e-01 0.000000e+00
    outer loop
      vertex -1.077186e+01 -1.722694e+00 0.000000e+00
      vertex -1.025398e+01 -2.310173e+00 2.850000e+01
      vertex -1.025398e+01 -2.310173e+00 0.000000e+00
    endloop
  endfacet
  facet normal 7.501425e-01 6.612763e-01 0.000000e+00
    outer loop
      vertex -1.025398e+01 -2.310173e+00 2.850000e+01
      vertex -1.077186e+01 -1.722694e+00 0.000000e+00
      vertex -1.077186e+01 -1.722694e+00 2.850000e+01
    endloop
  endfacet
  facet normal 9.980238e-01 -6.283791e-02 0.000000e+00
    outer loop
      vertex -9.751037e+00 -3.779387e+00 0.000000e+00
      vertex -9.800247e+00 -4.560997e+00 2.850000e+01
      vertex -9.800247e+00 -4.560997e+00 0.000000e+00
    endloop
  endfacet
  facet normal 9.980238e-01 -6.283791e-02 0.000000e+00
    outer loop
      vertex -9.800247e+00 -4.560997e+00 2.850000e+01
      vertex -9.751037e+00 -3.779387e+00 0.000000e+00
      vertex -9.751037e+00 -3.779387e+00 2.850000e+01
    endloop
  endfacet
  facet normal 6.612763e-01 -7.501425e-01 0.000000e+00
    outer loop
      vertex -1.445904e+01 -1.430923e+00 6.000000e+00
      vertex -1.506121e+01 -1.961750e+00 0.000000e+00
      vertex -1.445904e+01 -1.430923e+00 0.000000e+00
    endloop
  endfacet
  facet normal 6.612763e-01 -7.501425e-01 0.000000e+00
    outer loop
      vertex -1.506121e+01 -1.961750e+00 0.000000e+00
      vertex -1.445904e+01 -1.430923e+00 6.000000e+00
      vertex -1.506121e+01 -1.961750e+00 6.000000e+00
    endloop
  endfacet
  facet normal 8.957329e-01 4.445927e-01 0.000000e+00
    outer loop
      vertex 4.940702e+00 2.003870e+01 0.000000e+00
      vertex 7.029814e+00 1.582971e+01 6.000000e+00
      vertex 7.029814e+00 1.582971e+01 0.000000e+00
    endloop
  endfacet
  facet normal 8.957329e-01 4.445927e-01 0.000000e+00
    outer loop
      vertex 7.029814e+00 1.582971e+01 6.000000e+00
      vertex 4.940702e+00 2.003870e+01 0.000000e+00
      vertex 4.940702e+00 2.003870e+01 6.000000e+00
    endloop
  endfacet
  facet normal 0.000000e+00 0.000000e+00 -1.000000e+00
    outer loop
      vertex -1.568795e+01 -3.405583e+00 0.000000e+00
      vertex -1.558240e+01 -4.954909e+00 0.000000e+00
      vertex -1.573716e+01 -4.187193e+00 0.000000e+00
    endloop
  endfacet
  facet normal 0.000000e+00 0.000000e+00 -1.000000e+00
    outer loop
      vertex -1.558240e+01 -4.954909e+00 0.000000e+00
      vertex -1.568795e+01 -3.405583e+00 0.000000e+00
      vertex -1.543812e+01 -2.663344e+00 0.000000e+00
    endloop
  endfacet
  facet normal 0.000000e+00 0.000000e+00 -1.000000e+00
    outer loop
      vertex -1.558240e+01 -4.954909e+00 0.000000e+00
      vertex -1.543812e+01 -2.663344e+00 0.000000e+00
      vertex -1.523422e+01 -5.656407e+00 0.000000e+00
    endloop
  endfacet
  facet normal 0.000000e+00 0.000000e+00 -1.000000e+00
    outer loop
      vertex -1.523422e+01 -5.656407e+00 0.000000e+00
      vertex -1.543812e+01 -2.663344e+00 0.000000e+00
      vertex -1.500470e+01 -2.011056e+00 0.000000e+00
    endloop
  endfacet
  facet normal 0.000000e+00 0.000000e+00 -1.000000e+00
    outer loop
      vertex -1.523422e+01 -5.656407e+00 0.000000e+00
      vertex -1.500470e+01 -2.011056e+00 0.000000e+00
      vertex -1.471634e+01 -6.243886e+00 0.000000e+00
    endloop
  endfacet
  facet normal 0.000000e+00 0.000000e+00 -1.000000e+00
    outer loop
      vertex -1.471634e+01 -6.243886e+00 0.000000e+00
      vertex -1.500470e+01 -2.011056e+00 0.000000e+00
      vertex -1.441722e+01 -1.493175e+00 0.000000e+00
    endloop
  endfacet
  facet normal 0.000000e+00 0.000000e+00 -1.000000e+00
    outer loop
      vertex -1.471634e+01 -6.243886e+00 0.000000e+00
      vertex -1.441722e+01 -1.493175e+00 0.000000e+00
      vertex -1.406404e+01 -6.677310e+00 0.000000e+00
    endloop
  endfacet
  facet normal 0.000000e+00 0.000000e+00 -1.000000e+00
    outer loop
      vertex -1.406404e+01 -6.677310e+00 0.000000e+00
      vertex -1.441722e+01 -1.493175e+00 0.000000e+00
      vertex -1.371572e+01 -1.144989e+00 0.000000e+00
    endloop
  endfacet
  facet normal 0.000000e+00 0.000000e+00 -1.000000e+00
    outer loop
      vertex -1.406404e+01 -6.677310e+00 0.000000e+00
      vertex -1.371572e+01 -1.144989e+00 0.000000e+00
      vertex -1.332181e+01 -6.927141e+00 0.000000e+00
    endloop
  endfacet
  facet normal 0.000000e+00 0.000000e+00 -1.000000e+00
    outer loop
      vertex -1.332181e+01 -6.927141e+00 0.000000e+00
      vertex -1.371572e+01 -1.144989e+00 0.000000e+00
      vertex -1.294800e+01 -9.902290e-01 0.000000e+00
    endloop
  endfacet
  facet normal 0.000000e+00 0.000000e+00 -1.000000e+00
    outer loop
      vertex -1.332181e+01 -6.927141e+00 0.000000e+00
      vertex -1.294800e+01 -9.902290e-01 0.000000e+00
      vertex -1.254020e+01 -6.976354e+00 0.000000e+00
    endloop
  endfacet
  facet normal 0.000000e+00 0.000000e+00 -1.000000e+00
    outer loop
      vertex -1.254020e+01 -6.976354e+00 0.000000e+00
      vertex -1.294800e+01 -9.902290e-01 0.000000e+00
      vertex -1.216639e+01 -1.039439e+00 0.000000e+00
    endloop
  endfacet
  facet normal 0.000000e+00 0.000000e+00 -1.000000e+00
    outer loop
      vertex -1.254020e+01 -6.976354e+00 0.000000e+00
      vertex -1.216639e+01 -1.039439e+00 0.000000e+00
      vertex -1.177249e+01 -6.821595e+00 0.000000e+00
    endloop
  endfacet
  facet normal 0.000000e+00 0.000000e+00 -1.000000e+00
    outer loop
      vertex -1.177249e+01 -6.821595e+00 0.000000e+00
      vertex -1.216639e+01 -1.039439e+00 0.000000e+00
      vertex -1.142416e+01 -1.289270e+00 0.000000e+00
    endloop
  endfacet
  facet normal 0.000000e+00 0.000000e+00 -1.000000e+00
    outer loop
      vertex -1.177249e+01 -6.821595e+00 0.000000e+00
      vertex -1.142416e+01 -1.289270e+00 0.000000e+00
      vertex -1.107098e+01 -6.473408e+00 0.000000e+00
    endloop
  endfacet
  facet normal 0.000000e+00 0.000000e+00 -1.000000e+00
    outer loop
      vertex -1.107098e+01 -6.473408e+00 0.000000e+00
      vertex -1.142416e+01 -1.289270e+00 0.000000e+00
      vertex -1.077186e+01 -1.722694e+00 0.000000e+00
    endloop
  endfacet
  facet normal 0.000000e+00 0.000000e+00 -1.000000e+00
    outer loop
      vertex -1.107098e+01 -6.473408e+00 0.000000e+00
      vertex -1.077186e+01 -1.722694e+00 0.000000e+00
      vertex -1.048350e+01 -5.955524e+00 0.000000e+00
    endloop
  endfacet
  facet normal 0.000000e+00 0.000000e+00 -1.000000e+00
    outer loop
      vertex -1.048350e+01 -5.955524e+00 0.000000e+00
      vertex -1.077186e+01 -1.722694e+00 0.000000e+00
      vertex -1.025398e+01 -2.310173e+00 0.000000e+00
    endloop
  endfacet
  facet normal 0.000000e+00 0.000000e+00 -1.000000e+00
    outer loop
      vertex -1.048350e+01 -5.955524e+00 0.000000e+00
      vertex -1.025398e+01 -2.310173e+00 0.000000e+00
      vertex -1.005008e+01 -5.303235e+00 0.000000e+00
    endloop
  endfacet
  facet normal 0.000000e+00 0.000000e+00 -1.000000e+00
    outer loop
      vertex -1.005008e+01 -5.303235e+00 0.000000e+00
      vertex -1.025398e+01 -2.310173e+00 0.000000e+00
      vertex -9.905797e+00 -3.011674e+00 0.000000e+00
    endloop
  endfacet
  facet normal 0.000000e+00 0.000000e+00 -1.000000e+00
    outer loop
      vertex -1.005008e+01 -5.303235e+00 0.000000e+00
      vertex -9.905797e+00 -3.011674e+00 0.000000e+00
      vertex -9.800247e+00 -4.560997e+00 0.000000e+00
    endloop
  endfacet
  facet normal 0.000000e+00 0.000000e+00 -1.000000e+00
    outer loop
      vertex -9.800247e+00 -4.560997e+00 0.000000e+00
      vertex -9.905797e+00 -3.011674e+00 0.000000e+00
      vertex -9.751037e+00 -3.779387e+00 0.000000e+00
    endloop
  endfacet
  facet normal 8.328950e-01 -5.534311e-01 0.000000e+00
    outer loop
      vertex -1.005008e+01 -5.303235e+00 0.000000e+00
      vertex -1.048350e+01 -5.955524e+00 2.850000e+01
      vertex -1.048350e+01 -5.955524e+00 0.000000e+00
    endloop
  endfacet
  facet normal 8.328950e-01 -5.534311e-01 0.000000e+00
    outer loop
      vertex -1.048350e+01 -5.955524e+00 2.850000e+01
      vertex -1.005008e+01 -5.303235e+00 0.000000e+00
      vertex -1.005008e+01 -5.303235e+00 2.850000e+01
    endloop
  endfacet
  facet normal 8.957329e-01 4.445927e-01 0.000000e+00
    outer loop
      vertex -1.565336e+01 -4.979199e+00 0.000000e+00
      vertex -1.529647e+01 -5.698235e+00 6.000000e+00
      vertex -1.529647e+01 -5.698235e+00 0.000000e+00
    endloop
  endfacet
  facet normal 8.957329e-01 4.445927e-01 0.000000e+00
    outer loop
      vertex -1.529647e+01 -5.698235e+00 6.000000e+00
      vertex -1.565336e+01 -4.979199e+00 0.000000e+00
      vertex -1.565336e+01 -4.979199e+00 6.000000e+00
    endloop
  endfacet
  facet normal -8.328950e-01 5.534311e-01 0.000000e+00
    outer loop
      vertex -2.356358e+01 2.183340e+01 6.000000e+00
      vertex -2.616412e+01 1.791967e+01 0.000000e+00
      vertex -2.616412e+01 1.791967e+01 6.000000e+00
    endloop
  endfacet
  facet normal -8.328950e-01 5.534311e-01 0.000000e+00
    outer loop
      vertex -2.616412e+01 1.791967e+01 0.000000e+00
      vertex -2.356358e+01 2.183340e+01 6.000000e+00
      vertex -2.356358e+01 2.183340e+01 0.000000e+00
    endloop
  endfacet
  facet normal -4.445927e-01 8.957329e-01 0.000000e+00
    outer loop
      vertex -1.441722e+01 -1.493175e+00 2.850000e+01
      vertex -1.371572e+01 -1.144989e+00 0.000000e+00
      vertex -1.441722e+01 -1.493175e+00 0.000000e+00
    endloop
  endfacet
  facet normal -4.445927e-01 8.957329e-01 0.000000e+00
    outer loop
      vertex -1.371572e+01 -1.144989e+00 0.000000e+00
      vertex -1.441722e+01 -1.493175e+00 2.850000e+01
      vertex -1.371572e+01 -1.144989e+00 2.850000e+01
    endloop
  endfacet
  facet normal 3.190043e-01 9.477532e-01 0.000000e+00
    outer loop
      vertex -1.216639e+01 -1.039439e+00 2.850000e+01
      vertex -1.142416e+01 -1.289270e+00 0.000000e+00
      vertex -1.216639e+01 -1.039439e+00 0.000000e+00
    endloop
  endfacet
  facet normal 3.190043e-01 9.477532e-01 0.000000e+00
    outer loop
      vertex -1.142416e+01 -1.289270e+00 0.000000e+00
      vertex -1.216639e+01 -1.039439e+00 2.850000e+01
      vertex -1.142416e+01 -1.289270e+00 2.850000e+01
    endloop
  endfacet
  facet normal -7.501425e-01 -6.612763e-01 -0.000000e+00
    outer loop
      vertex -1.072256e+01 -1.666178e+00 6.000000e+00
      vertex -1.019174e+01 -2.268344e+00 0.000000e+00
      vertex -1.019174e+01 -2.268344e+00 6.000000e+00
    endloop
  endfacet
  facet normal -7.501425e-01 -6.612763e-01 -0.000000e+00
    outer loop
      vertex -1.019174e+01 -2.268344e+00 0.000000e+00
      vertex -1.072256e+01 -1.666178e+00 6.000000e+00
      vertex -1.072256e+01 -1.666178e+00 0.000000e+00
    endloop
  endfacet
  facet normal -1.976108e-01 9.802806e-01 0.000000e+00
    outer loop
      vertex -9.770607e+00 6.632806e+00 6.000000e+00
      vertex -8.906928e+00 6.806910e+00 0.000000e+00
      vertex -9.770607e+00 6.632806e+00 0.000000e+00
    endloop
  endfacet
  facet normal -1.976108e-01 9.802806e-01 0.000000e+00
    outer loop
      vertex -8.906928e+00 6.806910e+00 0.000000e+00
      vertex -9.770607e+00 6.632806e+00 6.000000e+00
      vertex -8.906928e+00 6.806910e+00 6.000000e+00
    endloop
  endfacet
  facet normal -4.445927e-01 8.957329e-01 0.000000e+00
    outer loop
      vertex -8.906928e+00 6.806910e+00 6.000000e+00
      vertex -8.117744e+00 7.198620e+00 0.000000e+00
      vertex -8.906928e+00 6.806910e+00 0.000000e+00
    endloop
  endfacet
  facet normal -4.445927e-01 8.957329e-01 0.000000e+00
    outer loop
      vertex -8.117744e+00 7.198620e+00 0.000000e+00
      vertex -8.906928e+00 6.806910e+00 6.000000e+00
      vertex -8.117744e+00 7.198620e+00 6.000000e+00
    endloop
  endfacet
  facet normal 6.283791e-02 9.980238e-01 0.000000e+00
    outer loop
      vertex -1.122342e+01 2.795838e+01 6.000000e+00
      vertex -6.533767e+00 2.766310e+01 0.000000e+00
      vertex -1.122342e+01 2.795838e+01 0.000000e+00
    endloop
  endfacet
  facet normal 6.283791e-02 9.980238e-01 0.000000e+00
    outer loop
      vertex -6.533767e+00 2.766310e+01 0.000000e+00
      vertex -1.122342e+01 2.795838e+01 6.000000e+00
      vertex -6.533767e+00 2.766310e+01 6.000000e+00
    endloop
  endfacet
  facet normal 1.976108e-01 -9.802806e-01 0.000000e+00
    outer loop
      vertex -4.170297e+00 -7.029813e+00 6.000000e+00
      vertex -8.776573e+00 -7.958376e+00 0.000000e+00
      vertex -4.170297e+00 -7.029813e+00 0.000000e+00
    endloop
  endfacet
  facet normal 1.976108e-01 -9.802806e-01 0.000000e+00
    outer loop
      vertex -8.776573e+00 -7.958376e+00 0.000000e+00
      vertex -4.170297e+00 -7.029813e+00 6.000000e+00
      vertex -8.776573e+00 -7.958376e+00 6.000000e+00
    endloop
  endfacet
  facet normal -8.957329e-01 -4.445927e-01 -0.000000e+00
    outer loop
      vertex -1.558240e+01 -4.954909e+00 2.850000e+01
      vertex -1.523422e+01 -5.656407e+00 0.000000e+00
      vertex -1.523422e+01 -5.656407e+00 2.850000e+01
    endloop
  endfacet
  facet normal -8.957329e-01 -4.445927e-01 -0.000000e+00
    outer loop
      vertex -1.523422e+01 -5.656407e+00 0.000000e+00
      vertex -1.558240e+01 -4.954909e+00 2.850000e+01
      vertex -1.558240e+01 -4.954909e+00 0.000000e+00
    endloop
  endfacet
  facet normal -9.477532e-01 3.190043e-01 0.000000e+00
    outer loop
      vertex -2.616412e+01 1.791967e+01 6.000000e+00
      vertex -2.766310e+01 1.346623e+01 0.000000e+00
      vertex -2.766310e+01 1.346623e+01 6.000000e+00
    endloop
  endfacet
  facet normal -9.477532e-01 3.190043e-01 0.000000e+00
    outer loop
      vertex -2.766310e+01 1.346623e+01 0.000000e+00
      vertex -2.616412e+01 1.791967e+01 6.000000e+00
      vertex -2.616412e+01 1.791967e+01 0.000000e+00
    endloop
  endfacet
  facet normal 5.534311e-01 8.328950e-01 0.000000e+00
    outer loop
      vertex -1.142416e+01 -1.289270e+00 2.850000e+01
      vertex -1.077186e+01 -1.722694e+00 0.000000e+00
      vertex -1.142416e+01 -1.289270e+00 0.000000e+00
    endloop
  endfacet
  facet normal 5.534311e-01 8.328950e-01 0.000000e+00
    outer loop
      vertex -1.077186e+01 -1.722694e+00 0.000000e+00
      vertex -1.142416e+01 -1.289270e+00 2.850000e+01
      vertex -1.077186e+01 -1.722694e+00 2.850000e+01
    endloop
  endfacet
  facet normal 0.000000e+00 0.000000e+00 -1.000000e+00
    outer loop
      vertex -1.336719e+01 9.770608e+00 0.000000e+00
      vertex -1.295310e+01 -9.154025e-01 0.000000e+00
      vertex -1.374001e+01 -1.074032e+00 0.000000e+00
    endloop
  endfacet
  facet normal 0.000000e+00 0.000000e+00 -1.000000e+00
    outer loop
      vertex -1.295310e+01 -9.154025e-01 0.000000e+00
      vertex -1.336719e+01 9.770608e+00 0.000000e+00
      vertex -1.319309e+01 8.906929e+00 0.000000e+00
    endloop
  endfacet
  facet normal 0.000000e+00 0.000000e+00 -1.000000e+00
    outer loop
      vertex -1.295310e+01 -9.154025e-01 0.000000e+00
      vertex -1.319309e+01 8.906929e+00 0.000000e+00
      vertex -1.280138e+01 8.117741e+00 0.000000e+00
    endloop
  endfacet
  facet normal 0.000000e+00 0.000000e+00 -1.000000e+00
    outer loop
      vertex -1.295310e+01 -9.154025e-01 0.000000e+00
      vertex -1.280138e+01 8.117741e+00 0.000000e+00
      vertex -1.215195e+01 -9.658423e-01 0.000000e+00
    endloop
  endfacet
  facet normal 0.000000e+00 0.000000e+00 -1.000000e+00
    outer loop
      vertex -1.215195e+01 -9.658423e-01 0.000000e+00
      vertex -1.280138e+01 8.117741e+00 0.000000e+00
      vertex -1.221876e+01 7.456827e+00 0.000000e+00
    endloop
  endfacet
  facet normal 0.000000e+00 0.000000e+00 -1.000000e+00
    outer loop
      vertex -1.215195e+01 -9.658423e-01 0.000000e+00
      vertex -1.221876e+01 7.456827e+00 0.000000e+00
      vertex -1.148494e+01 6.969226e+00 0.000000e+00
    endloop
  endfacet
  facet normal 0.000000e+00 0.000000e+00 -1.000000e+00
    outer loop
      vertex -1.215195e+01 -9.658423e-01 0.000000e+00
      vertex -1.148494e+01 6.969226e+00 0.000000e+00
      vertex -1.139115e+01 -1.221922e+00 0.000000e+00
    endloop
  endfacet
  facet normal 0.000000e+00 0.000000e+00 -1.000000e+00
    outer loop
      vertex -1.139115e+01 -1.221922e+00 0.000000e+00
      vertex -1.148494e+01 6.969226e+00 0.000000e+00
      vertex -1.064992e+01 6.688167e+00 0.000000e+00
    endloop
  endfacet
  facet normal 0.000000e+00 0.000000e+00 -1.000000e+00
    outer loop
      vertex -1.139115e+01 -1.221922e+00 0.000000e+00
      vertex -1.064992e+01 6.688167e+00 0.000000e+00
      vertex -1.072256e+01 -1.666178e+00 0.000000e+00
    endloop
  endfacet
  facet normal 0.000000e+00 0.000000e+00 -1.000000e+00
    outer loop
      vertex -1.072256e+01 -1.666178e+00 0.000000e+00
      vertex -1.064992e+01 6.688167e+00 0.000000e+00
      vertex -1.019174e+01 -2.268344e+00 0.000000e+00
    endloop
  endfacet
  facet normal 0.000000e+00 0.000000e+00 -1.000000e+00
    outer loop
      vertex -1.019174e+01 -2.268344e+00 0.000000e+00
      vertex -1.064992e+01 6.688167e+00 0.000000e+00
      vertex -9.770607e+00 6.632806e+00 0.000000e+00
    endloop
  endfacet
  facet normal 0.000000e+00 0.000000e+00 -1.000000e+00
    outer loop
      vertex -1.019174e+01 -2.268344e+00 0.000000e+00
      vertex -9.770607e+00 6.632806e+00 0.000000e+00
      vertex -9.834844e+00 -2.987384e+00 0.000000e+00
    endloop
  endfacet
  facet normal 0.000000e+00 0.000000e+00 -1.000000e+00
    outer loop
      vertex -9.834844e+00 -2.987384e+00 0.000000e+00
      vertex -9.770607e+00 6.632806e+00 0.000000e+00
      vertex -9.676214e+00 -3.774290e+00 0.000000e+00
    endloop
  endfacet
  facet normal 0.000000e+00 0.000000e+00 -1.000000e+00
    outer loop
      vertex -9.676214e+00 -3.774290e+00 0.000000e+00
      vertex -9.770607e+00 6.632806e+00 0.000000e+00
      vertex -8.906928e+00 6.806910e+00 0.000000e+00
    endloop
  endfacet
  facet normal 0.000000e+00 0.000000e+00 -1.000000e+00
    outer loop
      vertex -1.582970e+01 2.702981e+01 0.000000e+00
      vertex -1.576155e+01 -3.391142e+00 0.000000e+00
      vertex -1.581199e+01 -4.192293e+00 0.000000e+00
    endloop
  endfacet
  facet normal 0.000000e+00 0.000000e+00 -1.000000e+00
    outer loop
      vertex -1.576155e+01 -3.391142e+00 0.000000e+00
      vertex -1.582970e+01 2.702981e+01 0.000000e+00
      vertex -1.122342e+01 2.795838e+01 0.000000e+00
    endloop
  endfacet
  facet normal 0.000000e+00 0.000000e+00 -1.000000e+00
    outer loop
      vertex -1.576155e+01 -3.391142e+00 0.000000e+00
      vertex -1.122342e+01 2.795838e+01 0.000000e+00
      vertex -1.550547e+01 -2.630346e+00 0.000000e+00
    endloop
  endfacet
  facet normal 0.000000e+00 0.000000e+00 -1.000000e+00
    outer loop
      vertex -1.550547e+01 -2.630346e+00 0.000000e+00
      vertex -1.122342e+01 2.795838e+01 0.000000e+00
      vertex -1.506121e+01 -1.961750e+00 0.000000e+00
    endloop
  endfacet
  facet normal 0.000000e+00 0.000000e+00 -1.000000e+00
    outer loop
      vertex -1.506121e+01 -1.961750e+00 0.000000e+00
      vertex -1.122342e+01 2.795838e+01 0.000000e+00
      vertex -1.331183e+01 1.064992e+01 0.000000e+00
    endloop
  endfacet
  facet normal 0.000000e+00 0.000000e+00 -1.000000e+00
    outer loop
      vertex -1.506121e+01 -1.961750e+00 0.000000e+00
      vertex -1.331183e+01 1.064992e+01 0.000000e+00
      vertex -1.445904e+01 -1.430923e+00 0.000000e+00
    endloop
  endfacet
  facet normal 0.000000e+00 0.000000e+00 -1.000000e+00
    outer loop
      vertex -1.445904e+01 -1.430923e+00 0.000000e+00
      vertex -1.331183e+01 1.064992e+01 0.000000e+00
      vertex -1.336719e+01 9.770608e+00 0.000000e+00
    endloop
  endfacet
  facet normal 0.000000e+00 0.000000e+00 -1.000000e+00
    outer loop
      vertex -1.445904e+01 -1.430923e+00 0.000000e+00
      vertex -1.336719e+01 9.770608e+00 0.000000e+00
      vertex -1.374001e+01 -1.074032e+00 0.000000e+00
    endloop
  endfacet
  facet normal 0.000000e+00 0.000000e+00 -1.000000e+00
    outer loop
      vertex -1.331183e+01 1.064992e+01 0.000000e+00
      vertex -1.122342e+01 2.795838e+01 0.000000e+00
      vertex -1.303077e+01 1.148494e+01 0.000000e+00
    endloop
  endfacet
  facet normal 0.000000e+00 0.000000e+00 -1.000000e+00
    outer loop
      vertex -1.303077e+01 1.148494e+01 0.000000e+00
      vertex -1.122342e+01 2.795838e+01 0.000000e+00
      vertex -1.254317e+01 1.221876e+01 0.000000e+00
    endloop
  endfacet
  facet normal 0.000000e+00 0.000000e+00 -1.000000e+00
    outer loop
      vertex -1.254317e+01 1.221876e+01 0.000000e+00
      vertex -1.122342e+01 2.795838e+01 0.000000e+00
      vertex -1.188226e+01 1.280138e+01 0.000000e+00
    endloop
  endfacet
  facet normal 0.000000e+00 0.000000e+00 -1.000000e+00
    outer loop
      vertex -1.188226e+01 1.280138e+01 0.000000e+00
      vertex -1.122342e+01 2.795838e+01 0.000000e+00
      vertex -1.109307e+01 1.319309e+01 0.000000e+00
    endloop
  endfacet
  facet normal 0.000000e+00 0.000000e+00 -1.000000e+00
    outer loop
      vertex -1.109307e+01 1.319309e+01 0.000000e+00
      vertex -1.122342e+01 2.795838e+01 0.000000e+00
      vertex -6.533767e+00 2.766310e+01 0.000000e+00
    endloop
  endfacet
  facet normal 0.000000e+00 0.000000e+00 -1.000000e+00
    outer loop
      vertex -1.109307e+01 1.319309e+01 0.000000e+00
      vertex -6.533767e+00 2.766310e+01 0.000000e+00
      vertex -1.022939e+01 1.336720e+01 0.000000e+00
    endloop
  endfacet
  facet normal 0.000000e+00 0.000000e+00 -1.000000e+00
    outer loop
      vertex -1.022939e+01 1.336720e+01 0.000000e+00
      vertex -6.533767e+00 2.766310e+01 0.000000e+00
      vertex -9.350079e+00 1.331183e+01 0.000000e+00
    endloop
  endfacet
  facet normal 0.000000e+00 0.000000e+00 -1.000000e+00
    outer loop
      vertex -9.350079e+00 1.331183e+01 0.000000e+00
      vertex -6.533767e+00 2.766310e+01 0.000000e+00
      vertex -8.515061e+00 1.303077e+01 0.000000e+00
    endloop
  endfacet
  facet normal 0.000000e+00 0.000000e+00 -1.000000e+00
    outer loop
      vertex -8.515061e+00 1.303077e+01 0.000000e+00
      vertex -6.533767e+00 2.766310e+01 0.000000e+00
      vertex -7.781237e+00 1.254317e+01 0.000000e+00
    endloop
  endfacet
  facet normal 0.000000e+00 0.000000e+00 -1.000000e+00
    outer loop
      vertex -7.781237e+00 1.254317e+01 0.000000e+00
      vertex -6.533767e+00 2.766310e+01 0.000000e+00
      vertex -7.198619e+00 1.188226e+01 0.000000e+00
    endloop
  endfacet
  facet normal 0.000000e+00 0.000000e+00 -1.000000e+00
    outer loop
      vertex -7.198619e+00 1.188226e+01 0.000000e+00
      vertex -6.533767e+00 2.766310e+01 0.000000e+00
      vertex -6.806909e+00 1.109307e+01 0.000000e+00
    endloop
  endfacet
  facet normal 0.000000e+00 0.000000e+00 -1.000000e+00
    outer loop
      vertex -6.806909e+00 1.109307e+01 0.000000e+00
      vertex -6.533767e+00 2.766310e+01 0.000000e+00
      vertex -6.632801e+00 1.022939e+01 0.000000e+00
    endloop
  endfacet
  facet normal 0.000000e+00 0.000000e+00 -1.000000e+00
    outer loop
      vertex -2.766310e+01 1.346623e+01 0.000000e+00
      vertex -2.702981e+01 4.170295e+00 0.000000e+00
      vertex -2.795837e+01 8.776577e+00 0.000000e+00
    endloop
  endfacet
  facet normal 0.000000e+00 0.000000e+00 -1.000000e+00
    outer loop
      vertex -2.702981e+01 4.170295e+00 0.000000e+00
      vertex -2.766310e+01 1.346623e+01 0.000000e+00
      vertex -2.616412e+01 1.791967e+01 0.000000e+00
    endloop
  endfacet
  facet normal 0.000000e+00 0.000000e+00 -1.000000e+00
    outer loop
      vertex -2.702981e+01 4.170295e+00 0.000000e+00
      vertex -2.616412e+01 1.791967e+01 0.000000e+00
      vertex -2.494070e+01 -3.870279e-02 0.000000e+00
    endloop
  endfacet
  facet normal 0.000000e+00 0.000000e+00 -1.000000e+00
    outer loop
      vertex -2.494070e+01 -3.870279e-02 0.000000e+00
      vertex -2.616412e+01 1.791967e+01 0.000000e+00
      vertex -2.356358e+01 2.183340e+01 0.000000e+00
    endloop
  endfacet
  facet normal 0.000000e+00 0.000000e+00 -1.000000e+00
    outer loop
      vertex -2.494070e+01 -3.870279e-02 0.000000e+00
      vertex -2.356358e+01 2.183340e+01 0.000000e+00
      vertex -2.183339e+01 -3.563580e+00 0.000000e+00
    endloop
  endfacet
  facet normal 0.000000e+00 0.000000e+00 -1.000000e+00
    outer loop
      vertex -2.183339e+01 -3.563580e+00 0.000000e+00
      vertex -2.356358e+01 2.183340e+01 0.000000e+00
      vertex -2.003870e+01 2.494070e+01 0.000000e+00
    endloop
  endfacet
  facet normal 0.000000e+00 0.000000e+00 -1.000000e+00
    outer loop
      vertex -2.183339e+01 -3.563580e+00 0.000000e+00
      vertex -2.003870e+01 2.494070e+01 0.000000e+00
      vertex -1.791967e+01 -6.164121e+00 0.000000e+00
    endloop
  endfacet
  facet normal 0.000000e+00 0.000000e+00 -1.000000e+00
    outer loop
      vertex -1.791967e+01 -6.164121e+00 0.000000e+00
      vertex -2.003870e+01 2.494070e+01 0.000000e+00
      vertex -1.582970e+01 2.702981e+01 0.000000e+00
    endloop
  endfacet
  facet normal 0.000000e+00 0.000000e+00 -1.000000e+00
    outer loop
      vertex -1.791967e+01 -6.164121e+00 0.000000e+00
      vertex -1.582970e+01 2.702981e+01 0.000000e+00
      vertex -1.581199e+01 -4.192293e+00 0.000000e+00
    endloop
  endfacet
  facet normal 0.000000e+00 0.000000e+00 -1.000000e+00
    outer loop
      vertex -1.791967e+01 -6.164121e+00 0.000000e+00
      vertex -1.581199e+01 -4.192293e+00 0.000000e+00
      vertex -1.565336e+01 -4.979199e+00 0.000000e+00
    endloop
  endfacet
  facet normal 0.000000e+00 0.000000e+00 -1.000000e+00
    outer loop
      vertex -1.791967e+01 -6.164121e+00 0.000000e+00
      vertex -1.565336e+01 -4.979199e+00 0.000000e+00
      vertex -1.529647e+01 -5.698235e+00 0.000000e+00
    endloop
  endfacet
  facet normal 0.000000e+00 0.000000e+00 -1.000000e+00
    outer loop
      vertex -1.791967e+01 -6.164121e+00 0.000000e+00
      vertex -1.529647e+01 -5.698235e+00 0.000000e+00
      vertex -1.476564e+01 -6.300402e+00 0.000000e+00
    endloop
  endfacet
  facet normal 0.000000e+00 0.000000e+00 -1.000000e+00
    outer loop
      vertex -1.791967e+01 -6.164121e+00 0.000000e+00
      vertex -1.476564e+01 -6.300402e+00 0.000000e+00
      vertex -1.346623e+01 -7.663104e+00 0.000000e+00
    endloop
  endfacet
  facet normal 0.000000e+00 0.000000e+00 -1.000000e+00
    outer loop
      vertex -1.346623e+01 -7.663104e+00 0.000000e+00
      vertex -1.476564e+01 -6.300402e+00 0.000000e+00
      vertex -1.409705e+01 -6.744662e+00 0.000000e+00
    endloop
  endfacet
  facet normal 0.000000e+00 0.000000e+00 -1.000000e+00
    outer loop
      vertex -1.346623e+01 -7.663104e+00 0.000000e+00
      vertex -1.409705e+01 -6.744662e+00 0.000000e+00
      vertex -1.333625e+01 -7.000737e+00 0.000000e+00
    endloop
  endfacet
  facet normal 0.000000e+00 0.000000e+00 -1.000000e+00
    outer loop
      vertex -1.346623e+01 -7.663104e+00 0.000000e+00
      vertex -1.333625e+01 -7.000737e+00 0.000000e+00
      vertex -8.776573e+00 -7.958376e+00 0.000000e+00
    endloop
  endfacet
  facet normal 0.000000e+00 0.000000e+00 -1.000000e+00
    outer loop
      vertex -8.776573e+00 -7.958376e+00 0.000000e+00
      vertex -1.333625e+01 -7.000737e+00 0.000000e+00
      vertex -1.253510e+01 -7.051181e+00 0.000000e+00
    endloop
  endfacet
  facet normal 0.000000e+00 0.000000e+00 -1.000000e+00
    outer loop
      vertex -8.776573e+00 -7.958376e+00 0.000000e+00
      vertex -1.253510e+01 -7.051181e+00 0.000000e+00
      vertex -1.174820e+01 -6.892551e+00 0.000000e+00
    endloop
  endfacet
  facet normal 0.000000e+00 0.000000e+00 -1.000000e+00
    outer loop
      vertex -8.776573e+00 -7.958376e+00 0.000000e+00
      vertex -1.174820e+01 -6.892551e+00 0.000000e+00
      vertex -1.102916e+01 -6.535660e+00 0.000000e+00
    endloop
  endfacet
  facet normal 0.000000e+00 0.000000e+00 -1.000000e+00
    outer loop
      vertex -8.776573e+00 -7.958376e+00 0.000000e+00
      vertex -1.102916e+01 -6.535660e+00 0.000000e+00
      vertex -1.042699e+01 -6.004830e+00 0.000000e+00
    endloop
  endfacet
  facet normal 0.000000e+00 0.000000e+00 -1.000000e+00
    outer loop
      vertex -8.776573e+00 -7.958376e+00 0.000000e+00
      vertex -1.042699e+01 -6.004830e+00 0.000000e+00
      vertex -9.982730e+00 -5.336234e+00 0.000000e+00
    endloop
  endfacet
  facet normal 0.000000e+00 0.000000e+00 -1.000000e+00
    outer loop
      vertex -8.776573e+00 -7.958376e+00 0.000000e+00
      vertex -9.982730e+00 -5.336234e+00 0.000000e+00
      vertex -9.726654e+00 -4.575438e+00 0.000000e+00
    endloop
  endfacet
  facet normal 0.000000e+00 0.000000e+00 -1.000000e+00
    outer loop
      vertex -8.776573e+00 -7.958376e+00 0.000000e+00
      vertex -9.726654e+00 -4.575438e+00 0.000000e+00
      vertex -9.676214e+00 -3.774290e+00 0.000000e+00
    endloop
  endfacet
  facet normal 0.000000e+00 0.000000e+00 -1.000000e+00
    outer loop
      vertex -8.776573e+00 -7.958376e+00 0.000000e+00
      vertex -9.676214e+00 -3.774290e+00 0.000000e+00
      vertex -8.906928e+00 6.806910e+00 0.000000e+00
    endloop
  endfacet
  facet normal 0.000000e+00 0.000000e+00 -1.000000e+00
    outer loop
      vertex -8.776573e+00 -7.958376e+00 0.000000e+00
      vertex -8.906928e+00 6.806910e+00 0.000000e+00
      vertex -8.117744e+00 7.198620e+00 0.000000e+00
    endloop
  endfacet
  facet normal 0.000000e+00 0.000000e+00 -1.000000e+00
    outer loop
      vertex -8.776573e+00 -7.958376e+00 0.000000e+00
      vertex -8.117744e+00 7.198620e+00 0.000000e+00
      vertex -4.170297e+00 -7.029813e+00 0.000000e+00
    endloop
  endfacet
  facet normal 0.000000e+00 0.000000e+00 -1.000000e+00
    outer loop
      vertex -4.170297e+00 -7.029813e+00 0.000000e+00
      vertex -8.117744e+00 7.198620e+00 0.000000e+00
      vertex -7.456826e+00 7.781238e+00 0.000000e+00
    endloop
  endfacet
  facet normal 0.000000e+00 0.000000e+00 -1.000000e+00
    outer loop
      vertex -4.170297e+00 -7.029813e+00 0.000000e+00
      vertex -7.456826e+00 7.781238e+00 0.000000e+00
      vertex -6.969229e+00 8.515062e+00 0.000000e+00
    endloop
  endfacet
  facet normal 0.000000e+00 0.000000e+00 -1.000000e+00
    outer loop
      vertex -4.170297e+00 -7.029813e+00 0.000000e+00
      vertex -6.969229e+00 8.515062e+00 0.000000e+00
      vertex -6.688169e+00 9.350080e+00 0.000000e+00
    endloop
  endfacet
  facet normal 0.000000e+00 0.000000e+00 -1.000000e+00
    outer loop
      vertex -4.170297e+00 -7.029813e+00 0.000000e+00
      vertex -6.688169e+00 9.350080e+00 0.000000e+00
      vertex -6.632801e+00 1.022939e+01 0.000000e+00
    endloop
  endfacet
  facet normal 0.000000e+00 0.000000e+00 -1.000000e+00
    outer loop
      vertex -4.170297e+00 -7.029813e+00 0.000000e+00
      vertex -6.632801e+00 1.022939e+01 0.000000e+00
      vertex -6.533767e+00 2.766310e+01 0.000000e+00
    endloop
  endfacet
  facet normal 0.000000e+00 0.000000e+00 -1.000000e+00
    outer loop
      vertex -4.170297e+00 -7.029813e+00 0.000000e+00
      vertex -6.533767e+00 2.766310e+01 0.000000e+00
      vertex -2.080327e+00 2.616412e+01 0.000000e+00
    endloop
  endfacet
  facet normal 0.000000e+00 0.000000e+00 -1.000000e+00
    outer loop
      vertex -4.170297e+00 -7.029813e+00 0.000000e+00
      vertex -2.080327e+00 2.616412e+01 0.000000e+00
      vertex 3.870368e-02 -4.940697e+00 0.000000e+00
    endloop
  endfacet
  facet normal 0.000000e+00 0.000000e+00 -1.000000e+00
    outer loop
      vertex 3.870368e-02 -4.940697e+00 0.000000e+00
      vertex -2.080327e+00 2.616412e+01 0.000000e+00
      vertex 1.833402e+00 2.356358e+01 0.000000e+00
    endloop
  endfacet
  facet normal 0.000000e+00 0.000000e+00 -1.000000e+00
    outer loop
      vertex 3.870368e-02 -4.940697e+00 0.000000e+00
      vertex 1.833402e+00 2.356358e+01 0.000000e+00
      vertex 3.563577e+00 -1.833397e+00 0.000000e+00
    endloop
  endfacet
  facet normal 0.000000e+00 0.000000e+00 -1.000000e+00
    outer loop
      vertex 3.563577e+00 -1.833397e+00 0.000000e+00
      vertex 1.833402e+00 2.356358e+01 0.000000e+00
      vertex 4.940702e+00 2.003870e+01 0.000000e+00
    endloop
  endfacet
  facet normal 0.000000e+00 0.000000e+00 -1.000000e+00
    outer loop
      vertex 3.563577e+00 -1.833397e+00 0.000000e+00
      vertex 4.940702e+00 2.003870e+01 0.000000e+00
      vertex 6.164118e+00 2.080328e+00 0.000000e+00
    endloop
  endfacet
  facet normal 0.000000e+00 0.000000e+00 -1.000000e+00
    outer loop
      vertex 6.164118e+00 2.080328e+00 0.000000e+00
      vertex 4.940702e+00 2.003870e+01 0.000000e+00
      vertex 7.029814e+00 1.582971e+01 0.000000e+00
    endloop
  endfacet
  facet normal 0.000000e+00 0.000000e+00 -1.000000e+00
    outer loop
      vertex 6.164118e+00 2.080328e+00 0.000000e+00
      vertex 7.029814e+00 1.582971e+01 0.000000e+00
      vertex 7.663108e+00 6.533764e+00 0.000000e+00
    endloop
  endfacet
  facet normal 0.000000e+00 0.000000e+00 -1.000000e+00
    outer loop
      vertex 7.663108e+00 6.533764e+00 0.000000e+00
      vertex 7.029814e+00 1.582971e+01 0.000000e+00
      vertex 7.958373e+00 1.122342e+01 0.000000e+00
    endloop
  endfacet
  facet normal -1.976108e-01 9.802806e-01 0.000000e+00
    outer loop
      vertex -1.582970e+01 2.702981e+01 6.000000e+00
      vertex -1.122342e+01 2.795838e+01 0.000000e+00
      vertex -1.582970e+01 2.702981e+01 0.000000e+00
    endloop
  endfacet
  facet normal -1.976108e-01 9.802806e-01 0.000000e+00
    outer loop
      vertex -1.122342e+01 2.795838e+01 0.000000e+00
      vertex -1.582970e+01 2.702981e+01 6.000000e+00
      vertex -1.122342e+01 2.795838e+01 6.000000e+00
    endloop
  endfacet
  facet normal 6.283791e-02 9.980238e-01 0.000000e+00
    outer loop
      vertex -1.294800e+01 -9.902290e-01 2.850000e+01
      vertex -1.216639e+01 -1.039439e+00 0.000000e+00
      vertex -1.294800e+01 -9.902290e-01 0.000000e+00
    endloop
  endfacet
  facet normal 6.283791e-02 9.980238e-01 0.000000e+00
    outer loop
      vertex -1.216639e+01 -1.039439e+00 0.000000e+00
      vertex -1.294800e+01 -9.902290e-01 2.850000e+01
      vertex -1.216639e+01 -1.039439e+00 2.850000e+01
    endloop
  endfacet
  facet normal 0.000000e+00 0.000000e+00 1.000000e+00
    outer loop
      vertex -1.558240e+01 -4.954909e+00 2.850000e+01
      vertex -1.568795e+01 -3.405583e+00 2.850000e+01
      vertex -1.573716e+01 -4.187193e+00 2.850000e+01
    endloop
  endfacet
  facet normal 0.000000e+00 0.000000e+00 1.000000e+00
    outer loop
      vertex -1.568795e+01 -3.405583e+00 2.850000e+01
      vertex -1.558240e+01 -4.954909e+00 2.850000e+01
      vertex -1.543812e+01 -2.663344e+00 2.850000e+01
    endloop
  endfacet
  facet normal 0.000000e+00 0.000000e+00 1.000000e+00
    outer loop
      vertex -1.543812e+01 -2.663344e+00 2.850000e+01
      vertex -1.558240e+01 -4.954909e+00 2.850000e+01
      vertex -1.523422e+01 -5.656407e+00 2.850000e+01
    endloop
  endfacet
  facet normal 0.000000e+00 0.000000e+00 1.000000e+00
    outer loop
      vertex -1.543812e+01 -2.663344e+00 2.850000e+01
      vertex -1.523422e+01 -5.656407e+00 2.850000e+01
      vertex -1.500470e+01 -2.011056e+00 2.850000e+01
    endloop
  endfacet
  facet normal 0.000000e+00 0.000000e+00 1.000000e+00
    outer loop
      vertex -1.500470e+01 -2.011056e+00 2.850000e+01
      vertex -1.523422e+01 -5.656407e+00 2.850000e+01
      vertex -1.471634e+01 -6.243886e+00 2.850000e+01
    endloop
  endfacet
  facet normal 0.000000e+00 0.000000e+00 1.000000e+00
    outer loop
      vertex -1.500470e+01 -2.011056e+00 2.850000e+01
      vertex -1.471634e+01 -6.243886e+00 2.850000e+01
      vertex -1.441722e+01 -1.493175e+00 2.850000e+01
    endloop
  endfacet
  facet normal 0.000000e+00 0.000000e+00 1.000000e+00
    outer loop
      vertex -1.441722e+01 -1.493175e+00 2.850000e+01
      vertex -1.471634e+01 -6.243886e+00 2.850000e+01
      vertex -1.406404e+01 -6.677310e+00 2.850000e+01
    endloop
  endfacet
  facet normal 0.000000e+00 0.000000e+00 1.000000e+00
    outer loop
      vertex -1.441722e+01 -1.493175e+00 2.850000e+01
      vertex -1.406404e+01 -6.677310e+00 2.850000e+01
      vertex -1.371572e+01 -1.144989e+00 2.850000e+01
    endloop
  endfacet
  facet normal 0.000000e+00 0.000000e+00 1.000000e+00
    outer loop
      vertex -1.371572e+01 -1.144989e+00 2.850000e+01
      vertex -1.406404e+01 -6.677310e+00 2.850000e+01
      vertex -1.332181e+01 -6.927141e+00 2.850000e+01
    endloop
  endfacet
  facet normal 0.000000e+00 0.000000e+00 1.000000e+00
    outer loop
      vertex -1.371572e+01 -1.144989e+00 2.850000e+01
      vertex -1.332181e+01 -6.927141e+00 2.850000e+01
      vertex -1.294800e+01 -9.902290e-01 2.850000e+01
    endloop
  endfacet
  facet normal 0.000000e+00 0.000000e+00 1.000000e+00
    outer loop
      vertex -1.294800e+01 -9.902290e-01 2.850000e+01
      vertex -1.332181e+01 -6.927141e+00 2.850000e+01
      vertex -1.254020e+01 -6.976354e+00 2.850000e+01
    endloop
  endfacet
  facet normal 0.000000e+00 0.000000e+00 1.000000e+00
    outer loop
      vertex -1.294800e+01 -9.902290e-01 2.850000e+01
      vertex -1.254020e+01 -6.976354e+00 2.850000e+01
      vertex -1.216639e+01 -1.039439e+00 2.850000e+01
    endloop
  endfacet
  facet normal 0.000000e+00 0.000000e+00 1.000000e+00
    outer loop
      vertex -1.216639e+01 -1.039439e+00 2.850000e+01
      vertex -1.254020e+01 -6.976354e+00 2.850000e+01
      vertex -1.177249e+01 -6.821595e+00 2.850000e+01
    endloop
  endfacet
  facet normal 0.000000e+00 0.000000e+00 1.000000e+00
    outer loop
      vertex -1.216639e+01 -1.039439e+00 2.850000e+01
      vertex -1.177249e+01 -6.821595e+00 2.850000e+01
      vertex -1.142416e+01 -1.289270e+00 2.850000e+01
    endloop
  endfacet
  facet normal 0.000000e+00 0.000000e+00 1.000000e+00
    outer loop
      vertex -1.142416e+01 -1.289270e+00 2.850000e+01
      vertex -1.177249e+01 -6.821595e+00 2.850000e+01
      vertex -1.107098e+01 -6.473408e+00 2.850000e+01
    endloop
  endfacet
  facet normal 0.000000e+00 0.000000e+00 1.000000e+00
    outer loop
      vertex -1.142416e+01 -1.289270e+00 2.850000e+01
      vertex -1.107098e+01 -6.473408e+00 2.850000e+01
      vertex -1.077186e+01 -1.722694e+00 2.850000e+01
    endloop
  endfacet
  facet normal 0.000000e+00 0.000000e+00 1.000000e+00
    outer loop
      vertex -1.077186e+01 -1.722694e+00 2.850000e+01
      vertex -1.107098e+01 -6.473408e+00 2.850000e+01
      vertex -1.048350e+01 -5.955524e+00 2.850000e+01
    endloop
  endfacet
  facet normal 0.000000e+00 0.000000e+00 1.000000e+00
    outer loop
      vertex -1.077186e+01 -1.722694e+00 2.850000e+01
      vertex -1.048350e+01 -5.955524e+00 2.850000e+01
      vertex -1.025398e+01 -2.310173e+00 2.850000e+01
    endloop
  endfacet
  facet normal 0.000000e+00 0.000000e+00 1.000000e+00
    outer loop
      vertex -1.025398e+01 -2.310173e+00 2.850000e+01
      vertex -1.048350e+01 -5.955524e+00 2.850000e+01
      vertex -1.005008e+01 -5.303235e+00 2.850000e+01
    endloop
  endfacet
  facet normal 0.000000e+00 0.000000e+00 1.000000e+00
    outer loop
      vertex -1.025398e+01 -2.310173e+00 2.850000e+01
      vertex -1.005008e+01 -5.303235e+00 2.850000e+01
      vertex -9.905797e+00 -3.011674e+00 2.850000e+01
    endloop
  endfacet
  facet normal 0.000000e+00 0.000000e+00 1.000000e+00
    outer loop
      vertex -9.905797e+00 -3.011674e+00 2.850000e+01
      vertex -1.005008e+01 -5.303235e+00 2.850000e+01
      vertex -9.800247e+00 -4.560997e+00 2.850000e+01
    endloop
  endfacet
  facet normal 0.000000e+00 0.000000e+00 1.000000e+00
    outer loop
      vertex -9.905797e+00 -3.011674e+00 2.850000e+01
      vertex -9.800247e+00 -4.560997e+00 2.850000e+01
      vertex -9.751037e+00 -3.779387e+00 2.850000e+01
    endloop
  endfacet
  facet normal -9.802806e-01 -1.976108e-01 -0.000000e+00
    outer loop
      vertex -1.573716e+01 -4.187193e+00 2.850000e+01
      vertex -1.558240e+01 -4.954909e+00 0.000000e+00
      vertex -1.558240e+01 -4.954909e+00 2.850000e+01
    endloop
  endfacet
  facet normal -9.802806e-01 -1.976108e-01 -0.000000e+00
    outer loop
      vertex -1.558240e+01 -4.954909e+00 0.000000e+00
      vertex -1.573716e+01 -4.187193e+00 2.850000e+01
      vertex -1.573716e+01 -4.187193e+00 0.000000e+00
    endloop
  endfacet
  facet normal 4.445927e-01 -8.957329e-01 0.000000e+00
    outer loop
      vertex -1.374001e+01 -1.074032e+00 6.000000e+00
      vertex -1.445904e+01 -1.430923e+00 0.000000e+00
      vertex -1.374001e+01 -1.074032e+00 0.000000e+00
    endloop
  endfacet
  facet normal 4.445927e-01 -8.957329e-01 0.000000e+00
    outer loop
      vertex -1.445904e+01 -1.430923e+00 0.000000e+00
      vertex -1.374001e+01 -1.074032e+00 6.000000e+00
      vertex -1.445904e+01 -1.430923e+00 6.000000e+00
    endloop
  endfacet
  facet normal -8.328950e-01 5.534311e-01 0.000000e+00
    outer loop
      vertex -1.500470e+01 -2.011056e+00 2.850000e+01
      vertex -1.543812e+01 -2.663344e+00 0.000000e+00
      vertex -1.543812e+01 -2.663344e+00 2.850000e+01
    endloop
  endfacet
  facet normal -8.328950e-01 5.534311e-01 0.000000e+00
    outer loop
      vertex -1.543812e+01 -2.663344e+00 0.000000e+00
      vertex -1.500470e+01 -2.011056e+00 2.850000e+01
      vertex -1.500470e+01 -2.011056e+00 0.000000e+00
    endloop
  endfacet
  facet normal -5.534311e-01 -8.328950e-01 -0.000000e+00
    outer loop
      vertex -1.791967e+01 -6.164121e+00 6.000000e+00
      vertex -2.183339e+01 -3.563580e+00 0.000000e+00
      vertex -1.791967e+01 -6.164121e+00 0.000000e+00
    endloop
  endfacet
  facet normal -5.534311e-01 -8.328950e-01 -0.000000e+00
    outer loop
      vertex -2.183339e+01 -3.563580e+00 0.000000e+00
      vertex -1.791967e+01 -6.164121e+00 6.000000e+00
      vertex -2.183339e+01 -3.563580e+00 6.000000e+00
    endloop
  endfacet
  facet normal -9.802806e-01 -1.976108e-01 -0.000000e+00
    outer loop
      vertex -6.806909e+00 1.109307e+01 6.000000e+00
      vertex -6.632801e+00 1.022939e+01 0.000000e+00
      vertex -6.632801e+00 1.022939e+01 6.000000e+00
    endloop
  endfacet
  facet normal -9.802806e-01 -1.976108e-01 -0.000000e+00
    outer loop
      vertex -6.632801e+00 1.022939e+01 0.000000e+00
      vertex -6.806909e+00 1.109307e+01 6.000000e+00
      vertex -6.806909e+00 1.109307e+01 0.000000e+00
    endloop
  endfacet
  facet normal -5.534311e-01 -8.328950e-01 -0.000000e+00
    outer loop
      vertex -1.406404e+01 -6.677310e+00 2.850000e+01
      vertex -1.471634e+01 -6.243886e+00 0.000000e+00
      vertex -1.406404e+01 -6.677310e+00 0.000000e+00
    endloop
  endfacet
  facet normal -5.534311e-01 -8.328950e-01 -0.000000e+00
    outer loop
      vertex -1.471634e+01 -6.243886e+00 0.000000e+00
      vertex -1.406404e+01 -6.677310e+00 2.850000e+01
      vertex -1.471634e+01 -6.243886e+00 2.850000e+01
    endloop
  endfacet
  facet normal -6.283791e-02 -9.980238e-01 -0.000000e+00
    outer loop
      vertex -1.254020e+01 -6.976354e+00 2.850000e+01
      vertex -1.332181e+01 -6.927141e+00 0.000000e+00
      vertex -1.254020e+01 -6.976354e+00 0.000000e+00
    endloop
  endfacet
  facet normal -6.283791e-02 -9.980238e-01 -0.000000e+00
    outer loop
      vertex -1.332181e+01 -6.927141e+00 0.000000e+00
      vertex -1.254020e+01 -6.976354e+00 2.850000e+01
      vertex -1.332181e+01 -6.927141e+00 2.850000e+01
    endloop
  endfacet
  facet normal -5.534311e-01 -8.328950e-01 -0.000000e+00
    outer loop
      vertex -1.072256e+01 -1.666178e+00 6.000000e+00
      vertex -1.139115e+01 -1.221922e+00 0.000000e+00
      vertex -1.072256e+01 -1.666178e+00 0.000000e+00
    endloop
  endfacet
  facet normal -5.534311e-01 -8.328950e-01 -0.000000e+00
    outer loop
      vertex -1.139115e+01 -1.221922e+00 0.000000e+00
      vertex -1.072256e+01 -1.666178e+00 6.000000e+00
      vertex -1.139115e+01 -1.221922e+00 6.000000e+00
    endloop
  endfacet
  facet normal 3.190043e-01 9.477532e-01 0.000000e+00
    outer loop
      vertex -1.148494e+01 6.969226e+00 6.000000e+00
      vertex -1.064992e+01 6.688167e+00 0.000000e+00
      vertex -1.148494e+01 6.969226e+00 0.000000e+00
    endloop
  endfacet
  facet normal 3.190043e-01 9.477532e-01 0.000000e+00
    outer loop
      vertex -1.064992e+01 6.688167e+00 0.000000e+00
      vertex -1.148494e+01 6.969226e+00 6.000000e+00
      vertex -1.064992e+01 6.688167e+00 6.000000e+00
    endloop
  endfacet
  facet normal 6.283791e-02 9.980238e-01 0.000000e+00
    outer loop
      vertex -1.064992e+01 6.688167e+00 6.000000e+00
      vertex -9.770607e+00 6.632806e+00 0.000000e+00
      vertex -1.064992e+01 6.688167e+00 0.000000e+00
    endloop
  endfacet
  facet normal 6.283791e-02 9.980238e-01 0.000000e+00
    outer loop
      vertex -9.770607e+00 6.632806e+00 0.000000e+00
      vertex -1.064992e+01 6.688167e+00 6.000000e+00
      vertex -9.770607e+00 6.632806e+00 6.000000e+00
    endloop
  endfacet
  facet normal -8.328950e-01 5.534311e-01 0.000000e+00
    outer loop
      vertex -9.982730e+00 -5.336234e+00 6.000000e+00
      vertex -1.042699e+01 -6.004830e+00 0.000000e+00
      vertex -1.042699e+01 -6.004830e+00 6.000000e+00
    endloop
  endfacet
  facet normal -8.328950e-01 5.534311e-01 0.000000e+00
    outer loop
      vertex -1.042699e+01 -6.004830e+00 0.000000e+00
      vertex -9.982730e+00 -5.336234e+00 6.000000e+00
      vertex -9.982730e+00 -5.336234e+00 0.000000e+00
    endloop
  endfacet
  facet normal 9.802806e-01 1.976108e-01 0.000000e+00
    outer loop
      vertex 7.029814e+00 1.582971e+01 0.000000e+00
      vertex 7.958373e+00 1.122342e+01 6.000000e+00
      vertex 7.958373e+00 1.122342e+01 0.000000e+00
    endloop
  endfacet
  facet normal 9.802806e-01 1.976108e-01 0.000000e+00
    outer loop
      vertex 7.958373e+00 1.122342e+01 6.000000e+00
      vertex 7.029814e+00 1.582971e+01 0.000000e+00
      vertex 7.029814e+00 1.582971e+01 6.000000e+00
    endloop
  endfacet
  facet normal 9.980238e-01 -6.283791e-02 0.000000e+00
    outer loop
      vertex -1.331183e+01 1.064992e+01 0.000000e+00
      vertex -1.336719e+01 9.770608e+00 6.000000e+00
      vertex -1.336719e+01 9.770608e+00 0.000000e+00
    endloop
  endfacet
  facet normal 9.980238e-01 -6.283791e-02 0.000000e+00
    outer loop
      vertex -1.336719e+01 9.770608e+00 6.000000e+00
      vertex -1.331183e+01 1.064992e+01 0.000000e+00
      vertex -1.331183e+01 1.064992e+01 6.000000e+00
    endloop
  endfacet
  facet normal 6.612763e-01 -7.501425e-01 0.000000e+00
    outer loop
      vertex 3.563577e+00 -1.833397e+00 6.000000e+00
      vertex 3.870368e-02 -4.940697e+00 0.000000e+00
      vertex 3.563577e+00 -1.833397e+00 0.000000e+00
    endloop
  endfacet
  facet normal 6.612763e-01 -7.501425e-01 0.000000e+00
    outer loop
      vertex 3.870368e-02 -4.940697e+00 0.000000e+00
      vertex 3.563577e+00 -1.833397e+00 6.000000e+00
      vertex 3.870368e-02 -4.940697e+00 6.000000e+00
    endloop
  endfacet
  facet normal -6.283791e-02 -9.980238e-01 0.000000e+00
    outer loop
      vertex -1.215195e+01 -9.658423e-01 6.000000e+00
      vertex -1.295310e+01 -9.154025e-01 0.000000e+00
      vertex -1.215195e+01 -9.658423e-01 0.000000e+00
    endloop
  endfacet
  facet normal -6.283791e-02 -9.980238e-01 0.000000e+00
    outer loop
      vertex -1.295310e+01 -9.154025e-01 0.000000e+00
      vertex -1.215195e+01 -9.658423e-01 6.000000e+00
      vertex -1.295310e+01 -9.154025e-01 6.000000e+00
    endloop
  endfacet
  facet normal 6.612763e-01 -7.501425e-01 0.000000e+00
    outer loop
      vertex -1.188226e+01 1.280138e+01 6.000000e+00
      vertex -1.254317e+01 1.221876e+01 0.000000e+00
      vertex -1.188226e+01 1.280138e+01 0.000000e+00
    endloop
  endfacet
  facet normal 6.612763e-01 -7.501425e-01 0.000000e+00
    outer loop
      vertex -1.254317e+01 1.221876e+01 0.000000e+00
      vertex -1.188226e+01 1.280138e+01 6.000000e+00
      vertex -1.254317e+01 1.221876e+01 6.000000e+00
    endloop
  endfacet
  facet normal 1.976108e-01 -9.802806e-01 0.000000e+00
    outer loop
      vertex -1.295310e+01 -9.154025e-01 6.000000e+00
      vertex -1.374001e+01 -1.074032e+00 0.000000e+00
      vertex -1.295310e+01 -9.154025e-01 0.000000e+00
    endloop
  endfacet
  facet normal 1.976108e-01 -9.802806e-01 0.000000e+00
    outer loop
      vertex -1.374001e+01 -1.074032e+00 0.000000e+00
      vertex -1.295310e+01 -9.154025e-01 6.000000e+00
      vertex -1.374001e+01 -1.074032e+00 6.000000e+00
    endloop
  endfacet
  facet normal -3.190043e-01 -9.477532e-01 -0.000000e+00
    outer loop
      vertex -1.346623e+01 -7.663104e+00 6.000000e+00
      vertex -1.791967e+01 -6.164121e+00 0.000000e+00
      vertex -1.346623e+01 -7.663104e+00 0.000000e+00
    endloop
  endfacet
  facet normal -3.190043e-01 -9.477532e-01 -0.000000e+00
    outer loop
      vertex -1.791967e+01 -6.164121e+00 0.000000e+00
      vertex -1.346623e+01 -7.663104e+00 6.000000e+00
      vertex -1.791967e+01 -6.164121e+00 6.000000e+00
    endloop
  endfacet
  facet normal 3.190043e-01 9.477532e-01 0.000000e+00
    outer loop
      vertex -6.533767e+00 2.766310e+01 6.000000e+00
      vertex -2.080327e+00 2.616412e+01 0.000000e+00
      vertex -6.533767e+00 2.766310e+01 0.000000e+00
    endloop
  endfacet
  facet normal 3.190043e-01 9.477532e-01 0.000000e+00
    outer loop
      vertex -2.080327e+00 2.616412e+01 0.000000e+00
      vertex -6.533767e+00 2.766310e+01 6.000000e+00
      vertex -2.080327e+00 2.616412e+01 6.000000e+00
    endloop
  endfacet
  facet normal -9.477532e-01 3.190043e-01 0.000000e+00
    outer loop
      vertex -9.726654e+00 -4.575438e+00 6.000000e+00
      vertex -9.982730e+00 -5.336234e+00 0.000000e+00
      vertex -9.982730e+00 -5.336234e+00 6.000000e+00
    endloop
  endfacet
  facet normal -9.477532e-01 3.190043e-01 0.000000e+00
    outer loop
      vertex -9.982730e+00 -5.336234e+00 0.000000e+00
      vertex -9.726654e+00 -4.575438e+00 6.000000e+00
      vertex -9.726654e+00 -4.575438e+00 0.000000e+00
    endloop
  endfacet
  facet normal 6.283791e-02 9.980238e-01 0.000000e+00
    outer loop
      vertex -1.333625e+01 -7.000737e+00 6.000000e+00
      vertex -1.253510e+01 -7.051181e+00 0.000000e+00
      vertex -1.333625e+01 -7.000737e+00 0.000000e+00
    endloop
  endfacet
  facet normal 6.283791e-02 9.980238e-01 0.000000e+00
    outer loop
      vertex -1.253510e+01 -7.051181e+00 0.000000e+00
      vertex -1.333625e+01 -7.000737e+00 6.000000e+00
      vertex -1.253510e+01 -7.051181e+00 6.000000e+00
    endloop
  endfacet
  facet normal -7.501425e-01 -6.612763e-01 -0.000000e+00
    outer loop
      vertex -2.494070e+01 -3.870279e-02 6.000000e+00
      vertex -2.183339e+01 -3.563580e+00 0.000000e+00
      vertex -2.183339e+01 -3.563580e+00 6.000000e+00
    endloop
  endfacet
  facet normal -7.501425e-01 -6.612763e-01 -0.000000e+00
    outer loop
      vertex -2.183339e+01 -3.563580e+00 0.000000e+00
      vertex -2.494070e+01 -3.870279e-02 6.000000e+00
      vertex -2.494070e+01 -3.870279e-02 0.000000e+00
    endloop
  endfacet
  facet normal -1.976108e-01 9.802806e-01 0.000000e+00
    outer loop
      vertex -1.371572e+01 -1.144989e+00 2.850000e+01
      vertex -1.294800e+01 -9.902290e-01 0.000000e+00
      vertex -1.371572e+01 -1.144989e+00 0.000000e+00
    endloop
  endfacet
  facet normal -1.976108e-01 9.802806e-01 0.000000e+00
    outer loop
      vertex -1.294800e+01 -9.902290e-01 0.000000e+00
      vertex -1.371572e+01 -1.144989e+00 2.850000e+01
      vertex -1.294800e+01 -9.902290e-01 2.850000e+01
    endloop
  endfacet
  facet normal -6.283791e-02 -9.980238e-01 -0.000000e+00
    outer loop
      vertex -9.350079e+00 1.331183e+01 6.000000e+00
      vertex -1.022939e+01 1.336720e+01 0.000000e+00
      vertex -9.350079e+00 1.331183e+01 0.000000e+00
    endloop
  endfacet
  facet normal -6.283791e-02 -9.980238e-01 -0.000000e+00
    outer loop
      vertex -1.022939e+01 1.336720e+01 0.000000e+00
      vertex -9.350079e+00 1.331183e+01 6.000000e+00
      vertex -1.022939e+01 1.336720e+01 6.000000e+00
    endloop
  endfacet
  facet normal -9.802806e-01 -1.976108e-01 -0.000000e+00
    outer loop
      vertex -9.834844e+00 -2.987384e+00 6.000000e+00
      vertex -9.676214e+00 -3.774290e+00 0.000000e+00
      vertex -9.676214e+00 -3.774290e+00 6.000000e+00
    endloop
  endfacet
  facet normal -9.802806e-01 -1.976108e-01 -0.000000e+00
    outer loop
      vertex -9.676214e+00 -3.774290e+00 0.000000e+00
      vertex -9.834844e+00 -2.987384e+00 6.000000e+00
      vertex -9.834844e+00 -2.987384e+00 0.000000e+00
    endloop
  endfacet
  facet normal -8.957329e-01 -4.445927e-01 -0.000000e+00
    outer loop
      vertex -1.019174e+01 -2.268344e+00 6.000000e+00
      vertex -9.834844e+00 -2.987384e+00 0.000000e+00
      vertex -9.834844e+00 -2.987384e+00 6.000000e+00
    endloop
  endfacet
  facet normal -8.957329e-01 -4.445927e-01 -0.000000e+00
    outer loop
      vertex -9.834844e+00 -2.987384e+00 0.000000e+00
      vertex -1.019174e+01 -2.268344e+00 6.000000e+00
      vertex -1.019174e+01 -2.268344e+00 0.000000e+00
    endloop
  endfacet
  facet normal -6.612763e-01 7.501425e-01 0.000000e+00
    outer loop
      vertex -1.102916e+01 -6.535660e+00 6.000000e+00
      vertex -1.042699e+01 -6.004830e+00 0.000000e+00
      vertex -1.102916e+01 -6.535660e+00 0.000000e+00
    endloop
  endfacet
  facet normal -6.612763e-01 7.501425e-01 0.000000e+00
    outer loop
      vertex -1.042699e+01 -6.004830e+00 0.000000e+00
      vertex -1.102916e+01 -6.535660e+00 6.000000e+00
      vertex -1.042699e+01 -6.004830e+00 6.000000e+00
    endloop
  endfacet
  facet normal 8.957329e-01 4.445927e-01 0.000000e+00
    outer loop
      vertex -1.025398e+01 -2.310173e+00 0.000000e+00
      vertex -9.905797e+00 -3.011674e+00 2.850000e+01
      vertex -9.905797e+00 -3.011674e+00 0.000000e+00
    endloop
  endfacet
  facet normal 8.957329e-01 4.445927e-01 0.000000e+00
    outer loop
      vertex -9.905797e+00 -3.011674e+00 2.850000e+01
      vertex -1.025398e+01 -2.310173e+00 0.000000e+00
      vertex -1.025398e+01 -2.310173e+00 2.850000e+01
    endloop
  endfacet
  facet normal 9.802806e-01 1.976108e-01 0.000000e+00
    outer loop
      vertex -1.581199e+01 -4.192293e+00 0.000000e+00
      vertex -1.565336e+01 -4.979199e+00 6.000000e+00
      vertex -1.565336e+01 -4.979199e+00 0.000000e+00
    endloop
  endfacet
  facet normal 9.802806e-01 1.976108e-01 0.000000e+00
    outer loop
      vertex -1.565336e+01 -4.979199e+00 6.000000e+00
      vertex -1.581199e+01 -4.192293e+00 0.000000e+00
      vertex -1.581199e+01 -4.192293e+00 6.000000e+00
    endloop
  endfacet
  facet normal -6.612763e-01 7.501425e-01 0.000000e+00
    outer loop
      vertex -8.117744e+00 7.198620e+00 6.000000e+00
      vertex -7.456826e+00 7.781238e+00 0.000000e+00
      vertex -8.117744e+00 7.198620e+00 0.000000e+00
    endloop
  endfacet
  facet normal -6.612763e-01 7.501425e-01 0.000000e+00
    outer loop
      vertex -7.456826e+00 7.781238e+00 0.000000e+00
      vertex -8.117744e+00 7.198620e+00 6.000000e+00
      vertex -7.456826e+00 7.781238e+00 6.000000e+00
    endloop
  endfacet
  facet normal 8.328950e-01 -5.534311e-01 0.000000e+00
    outer loop
      vertex -1.254317e+01 1.221876e+01 0.000000e+00
      vertex -1.303077e+01 1.148494e+01 6.000000e+00
      vertex -1.303077e+01 1.148494e+01 0.000000e+00
    endloop
  endfacet
  facet normal 8.328950e-01 -5.534311e-01 0.000000e+00
    outer loop
      vertex -1.303077e+01 1.148494e+01 6.000000e+00
      vertex -1.254317e+01 1.221876e+01 0.000000e+00
      vertex -1.254317e+01 1.221876e+01 6.000000e+00
    endloop
  endfacet
  facet normal -9.980238e-01 6.283791e-02 0.000000e+00
    outer loop
      vertex -2.766310e+01 1.346623e+01 6.000000e+00
      vertex -2.795837e+01 8.776577e+00 0.000000e+00
      vertex -2.795837e+01 8.776577e+00 6.000000e+00
    endloop
  endfacet
  facet normal -9.980238e-01 6.283791e-02 0.000000e+00
    outer loop
      vertex -2.795837e+01 8.776577e+00 0.000000e+00
      vertex -2.766310e+01 1.346623e+01 6.000000e+00
      vertex -2.766310e+01 1.346623e+01 0.000000e+00
    endloop
  endfacet
  facet normal 6.612763e-01 -7.501425e-01 0.000000e+00
    outer loop
      vertex -1.048350e+01 -5.955524e+00 2.850000e+01
      vertex -1.107098e+01 -6.473408e+00 0.000000e+00
      vertex -1.048350e+01 -5.955524e+00 0.000000e+00
    endloop
  endfacet
  facet normal 6.612763e-01 -7.501425e-01 0.000000e+00
    outer loop
      vertex -1.107098e+01 -6.473408e+00 0.000000e+00
      vertex -1.048350e+01 -5.955524e+00 2.850000e+01
      vertex -1.107098e+01 -6.473408e+00 2.850000e+01
    endloop
  endfacet
  facet normal 9.477532e-01 -3.190043e-01 0.000000e+00
    outer loop
      vertex -9.800247e+00 -4.560997e+00 0.000000e+00
      vertex -1.005008e+01 -5.303235e+00 2.850000e+01
      vertex -1.005008e+01 -5.303235e+00 0.000000e+00
    endloop
  endfacet
  facet normal 9.477532e-01 -3.190043e-01 0.000000e+00
    outer loop
      vertex -1.005008e+01 -5.303235e+00 2.850000e+01
      vertex -9.800247e+00 -4.560997e+00 0.000000e+00
      vertex -9.800247e+00 -4.560997e+00 2.850000e+01
    endloop
  endfacet
  facet normal -6.283791e-02 -9.980238e-01 -0.000000e+00
    outer loop
      vertex -8.776573e+00 -7.958376e+00 6.000000e+00
      vertex -1.346623e+01 -7.663104e+00 0.000000e+00
      vertex -8.776573e+00 -7.958376e+00 0.000000e+00
    endloop
  endfacet
  facet normal -6.283791e-02 -9.980238e-01 -0.000000e+00
    outer loop
      vertex -1.346623e+01 -7.663104e+00 0.000000e+00
      vertex -8.776573e+00 -7.958376e+00 6.000000e+00
      vertex -1.346623e+01 -7.663104e+00 6.000000e+00
    endloop
  endfacet
  facet normal 9.477532e-01 -3.190043e-01 0.000000e+00
    outer loop
      vertex -1.550547e+01 -2.630346e+00 0.000000e+00
      vertex -1.576155e+01 -3.391142e+00 6.000000e+00
      vertex -1.576155e+01 -3.391142e+00 0.000000e+00
    endloop
  endfacet
  facet normal 9.477532e-01 -3.190043e-01 0.000000e+00
    outer loop
      vertex -1.576155e+01 -3.391142e+00 6.000000e+00
      vertex -1.550547e+01 -2.630346e+00 0.000000e+00
      vertex -1.550547e+01 -2.630346e+00 6.000000e+00
    endloop
  endfacet
  facet normal 9.477532e-01 -3.190043e-01 0.000000e+00
    outer loop
      vertex 7.663108e+00 6.533764e+00 0.000000e+00
      vertex 6.164118e+00 2.080328e+00 6.000000e+00
      vertex 6.164118e+00 2.080328e+00 0.000000e+00
    endloop
  endfacet
  facet normal 9.477532e-01 -3.190043e-01 0.000000e+00
    outer loop
      vertex 6.164118e+00 2.080328e+00 6.000000e+00
      vertex 7.663108e+00 6.533764e+00 0.000000e+00
      vertex 7.663108e+00 6.533764e+00 6.000000e+00
    endloop
  endfacet
  facet normal 8.328950e-01 -5.534311e-01 0.000000e+00
    outer loop
      vertex 6.164118e+00 2.080328e+00 0.000000e+00
      vertex 3.563577e+00 -1.833397e+00 6.000000e+00
      vertex 3.563577e+00 -1.833397e+00 0.000000e+00
    endloop
  endfacet
  facet normal 8.328950e-01 -5.534311e-01 0.000000e+00
    outer loop
      vertex 3.563577e+00 -1.833397e+00 6.000000e+00
      vertex 6.164118e+00 2.080328e+00 0.000000e+00
      vertex 6.164118e+00 2.080328e+00 6.000000e+00
    endloop
  endfacet
  facet normal -3.190043e-01 -9.477532e-01 -0.000000e+00
    outer loop
      vertex -1.332181e+01 -6.927141e+00 2.850000e+01
      vertex -1.406404e+01 -6.677310e+00 0.000000e+00
      vertex -1.332181e+01 -6.927141e+00 0.000000e+00
    endloop
  endfacet
  facet normal -3.190043e-01 -9.477532e-01 -0.000000e+00
    outer loop
      vertex -1.406404e+01 -6.677310e+00 0.000000e+00
      vertex -1.332181e+01 -6.927141e+00 2.850000e+01
      vertex -1.406404e+01 -6.677310e+00 2.850000e+01
    endloop
  endfacet
  facet normal 4.445927e-01 -8.957329e-01 0.000000e+00
    outer loop
      vertex -1.107098e+01 -6.473408e+00 2.850000e+01
      vertex -1.177249e+01 -6.821595e+00 0.000000e+00
      vertex -1.107098e+01 -6.473408e+00 0.000000e+00
    endloop
  endfacet
  facet normal 4.445927e-01 -8.957329e-01 0.000000e+00
    outer loop
      vertex -1.177249e+01 -6.821595e+00 0.000000e+00
      vertex -1.107098e+01 -6.473408e+00 2.850000e+01
      vertex -1.177249e+01 -6.821595e+00 2.850000e+01
    endloop
  endfacet
  facet normal -3.190043e-01 -9.477532e-01 -0.000000e+00
    outer loop
      vertex -8.515061e+00 1.303077e+01 6.000000e+00
      vertex -9.350079e+00 1.331183e+01 0.000000e+00
      vertex -8.515061e+00 1.303077e+01 0.000000e+00
    endloop
  endfacet
  facet normal -3.190043e-01 -9.477532e-01 -0.000000e+00
    outer loop
      vertex -9.350079e+00 1.331183e+01 0.000000e+00
      vertex -8.515061e+00 1.303077e+01 6.000000e+00
      vertex -9.350079e+00 1.331183e+01 6.000000e+00
    endloop
  endfacet
  facet normal 5.534311e-01 8.328950e-01 0.000000e+00
    outer loop
      vertex -1.476564e+01 -6.300402e+00 6.000000e+00
      vertex -1.409705e+01 -6.744662e+00 0.000000e+00
      vertex -1.476564e+01 -6.300402e+00 0.000000e+00
    endloop
  endfacet
  facet normal 5.534311e-01 8.328950e-01 0.000000e+00
    outer loop
      vertex -1.409705e+01 -6.744662e+00 0.000000e+00
      vertex -1.476564e+01 -6.300402e+00 6.000000e+00
      vertex -1.409705e+01 -6.744662e+00 6.000000e+00
    endloop
  endfacet
  facet normal 8.957329e-01 4.445927e-01 0.000000e+00
    outer loop
      vertex -1.319309e+01 8.906929e+00 0.000000e+00
      vertex -1.280138e+01 8.117741e+00 6.000000e+00
      vertex -1.280138e+01 8.117741e+00 0.000000e+00
    endloop
  endfacet
  facet normal 8.957329e-01 4.445927e-01 0.000000e+00
    outer loop
      vertex -1.280138e+01 8.117741e+00 6.000000e+00
      vertex -1.319309e+01 8.906929e+00 0.000000e+00
      vertex -1.319309e+01 8.906929e+00 6.000000e+00
    endloop
  endfacet
  facet normal 0.000000e+00 0.000000e+00 1.000000e+00
    outer loop
      vertex -2.702981e+01 4.170295e+00 6.000000e+00
      vertex -2.766310e+01 1.346623e+01 6.000000e+00
      vertex -2.795837e+01 8.776577e+00 6.000000e+00
    endloop
  endfacet
  facet normal 0.000000e+00 0.000000e+00 1.000000e+00
    outer loop
      vertex -2.766310e+01 1.346623e+01 6.000000e+00
      vertex -2.702981e+01 4.170295e+00 6.000000e+00
      vertex -2.616412e+01 1.791967e+01 6.000000e+00
    endloop
  endfacet
  facet normal 0.000000e+00 0.000000e+00 1.000000e+00
    outer loop
      vertex -2.616412e+01 1.791967e+01 6.000000e+00
      vertex -2.702981e+01 4.170295e+00 6.000000e+00
      vertex -2.494070e+01 -3.870279e-02 6.000000e+00
    endloop
  endfacet
  facet normal 0.000000e+00 0.000000e+00 1.000000e+00
    outer loop
      vertex -2.616412e+01 1.791967e+01 6.000000e+00
      vertex -2.494070e+01 -3.870279e-02 6.000000e+00
      vertex -2.356358e+01 2.183340e+01 6.000000e+00
    endloop
  endfacet
  facet normal 0.000000e+00 0.000000e+00 1.000000e+00
    outer loop
      vertex -2.356358e+01 2.183340e+01 6.000000e+00
      vertex -2.494070e+01 -3.870279e-02 6.000000e+00
      vertex -2.183339e+01 -3.563580e+00 6.000000e+00
    endloop
  endfacet
  facet normal 0.000000e+00 0.000000e+00 1.000000e+00
    outer loop
      vertex -2.356358e+01 2.183340e+01 6.000000e+00
      vertex -2.183339e+01 -3.563580e+00 6.000000e+00
      vertex -2.003870e+01 2.494070e+01 6.000000e+00
    endloop
  endfacet
  facet normal 0.000000e+00 0.000000e+00 1.000000e+00
    outer loop
      vertex -2.003870e+01 2.494070e+01 6.000000e+00
      vertex -2.183339e+01 -3.563580e+00 6.000000e+00
      vertex -1.791967e+01 -6.164121e+00 6.000000e+00
    endloop
  endfacet
  facet normal 0.000000e+00 0.000000e+00 1.000000e+00
    outer loop
      vertex -2.003870e+01 2.494070e+01 6.000000e+00
      vertex -1.791967e+01 -6.164121e+00 6.000000e+00
      vertex -1.582970e+01 2.702981e+01 6.000000e+00
    endloop
  endfacet
  facet normal 0.000000e+00 0.000000e+00 1.000000e+00
    outer loop
      vertex -1.582970e+01 2.702981e+01 6.000000e+00
      vertex -1.791967e+01 -6.164121e+00 6.000000e+00
      vertex -1.581199e+01 -4.192293e+00 6.000000e+00
    endloop
  endfacet
  facet normal 0.000000e+00 0.000000e+00 1.000000e+00
    outer loop
      vertex -1.581199e+01 -4.192293e+00 6.000000e+00
      vertex -1.791967e+01 -6.164121e+00 6.000000e+00
      vertex -1.565336e+01 -4.979199e+00 6.000000e+00
    endloop
  endfacet
  facet normal 0.000000e+00 0.000000e+00 1.000000e+00
    outer loop
      vertex -1.565336e+01 -4.979199e+00 6.000000e+00
      vertex -1.791967e+01 -6.164121e+00 6.000000e+00
      vertex -1.529647e+01 -5.698235e+00 6.000000e+00
    endloop
  endfacet
  facet normal 0.000000e+00 0.000000e+00 1.000000e+00
    outer loop
      vertex -1.529647e+01 -5.698235e+00 6.000000e+00
      vertex -1.791967e+01 -6.164121e+00 6.000000e+00
      vertex -1.476564e+01 -6.300402e+00 6.000000e+00
    endloop
  endfacet
  facet normal 0.000000e+00 0.000000e+00 1.000000e+00
    outer loop
      vertex -1.476564e+01 -6.300402e+00 6.000000e+00
      vertex -1.791967e+01 -6.164121e+00 6.000000e+00
      vertex -1.346623e+01 -7.663104e+00 6.000000e+00
    endloop
  endfacet
  facet normal 0.000000e+00 0.000000e+00 1.000000e+00
    outer loop
      vertex -1.476564e+01 -6.300402e+00 6.000000e+00
      vertex -1.346623e+01 -7.663104e+00 6.000000e+00
      vertex -1.409705e+01 -6.744662e+00 6.000000e+00
    endloop
  endfacet
  facet normal 0.000000e+00 0.000000e+00 1.000000e+00
    outer loop
      vertex -1.409705e+01 -6.744662e+00 6.000000e+00
      vertex -1.346623e+01 -7.663104e+00 6.000000e+00
      vertex -1.333625e+01 -7.000737e+00 6.000000e+00
    endloop
  endfacet
  facet normal 0.000000e+00 0.000000e+00 1.000000e+00
    outer loop
      vertex -1.333625e+01 -7.000737e+00 6.000000e+00
      vertex -1.346623e+01 -7.663104e+00 6.000000e+00
      vertex -8.776573e+00 -7.958376e+00 6.000000e+00
    endloop
  endfacet
  facet normal 0.000000e+00 0.000000e+00 1.000000e+00
    outer loop
      vertex -1.333625e+01 -7.000737e+00 6.000000e+00
      vertex -8.776573e+00 -7.958376e+00 6.000000e+00
      vertex -1.253510e+01 -7.051181e+00 6.000000e+00
    endloop
  endfacet
  facet normal 0.000000e+00 0.000000e+00 1.000000e+00
    outer loop
      vertex -1.253510e+01 -7.051181e+00 6.000000e+00
      vertex -8.776573e+00 -7.958376e+00 6.000000e+00
      vertex -1.174820e+01 -6.892551e+00 6.000000e+00
    endloop
  endfacet
  facet normal 0.000000e+00 0.000000e+00 1.000000e+00
    outer loop
      vertex -1.174820e+01 -6.892551e+00 6.000000e+00
      vertex -8.776573e+00 -7.958376e+00 6.000000e+00
      vertex -1.102916e+01 -6.535660e+00 6.000000e+00
    endloop
  endfacet
  facet normal 0.000000e+00 0.000000e+00 1.000000e+00
    outer loop
      vertex -1.102916e+01 -6.535660e+00 6.000000e+00
      vertex -8.776573e+00 -7.958376e+00 6.000000e+00
      vertex -1.042699e+01 -6.004830e+00 6.000000e+00
    endloop
  endfacet
  facet normal 0.000000e+00 0.000000e+00 1.000000e+00
    outer loop
      vertex -1.042699e+01 -6.004830e+00 6.000000e+00
      vertex -8.776573e+00 -7.958376e+00 6.000000e+00
      vertex -9.982730e+00 -5.336234e+00 6.000000e+00
    endloop
  endfacet
  facet normal 0.000000e+00 0.000000e+00 1.000000e+00
    outer loop
      vertex -9.982730e+00 -5.336234e+00 6.000000e+00
      vertex -8.776573e+00 -7.958376e+00 6.000000e+00
      vertex -9.726654e+00 -4.575438e+00 6.000000e+00
    endloop
  endfacet
  facet normal 0.000000e+00 0.000000e+00 1.000000e+00
    outer loop
      vertex -9.726654e+00 -4.575438e+00 6.000000e+00
      vertex -8.776573e+00 -7.958376e+00 6.000000e+00
      vertex -9.676214e+00 -3.774290e+00 6.000000e+00
    endloop
  endfacet
  facet normal 0.000000e+00 0.000000e+00 1.000000e+00
    outer loop
      vertex -9.676214e+00 -3.774290e+00 6.000000e+00
      vertex -8.776573e+00 -7.958376e+00 6.000000e+00
      vertex -8.906928e+00 6.806910e+00 6.000000e+00
    endloop
  endfacet
  facet normal 0.000000e+00 0.000000e+00 1.000000e+00
    outer loop
      vertex -8.906928e+00 6.806910e+00 6.000000e+00
      vertex -8.776573e+00 -7.958376e+00 6.000000e+00
      vertex -8.117744e+00 7.198620e+00 6.000000e+00
    endloop
  endfacet
  facet normal 0.000000e+00 0.000000e+00 1.000000e+00
    outer loop
      vertex -8.117744e+00 7.198620e+00 6.000000e+00
      vertex -8.776573e+00 -7.958376e+00 6.000000e+00
      vertex -4.170297e+00 -7.029813e+00 6.000000e+00
    endloop
  endfacet
  facet normal 0.000000e+00 0.000000e+00 1.000000e+00
    outer loop
      vertex -8.117744e+00 7.198620e+00 6.000000e+00
      vertex -4.170297e+00 -7.029813e+00 6.000000e+00
      vertex -7.456826e+00 7.781238e+00 6.000000e+00
    endloop
  endfacet
  facet normal 0.000000e+00 0.000000e+00 1.000000e+00
    outer loop
      vertex -7.456826e+00 7.781238e+00 6.000000e+00
      vertex -4.170297e+00 -7.029813e+00 6.000000e+00
      vertex -6.969229e+00 8.515062e+00 6.000000e+00
    endloop
  endfacet
  facet normal 0.000000e+00 0.000000e+00 1.000000e+00
    outer loop
      vertex -6.969229e+00 8.515062e+00 6.000000e+00
      vertex -4.170297e+00 -7.029813e+00 6.000000e+00
      vertex -6.688169e+00 9.350080e+00 6.000000e+00
    endloop
  endfacet
  facet normal 0.000000e+00 0.000000e+00 1.000000e+00
    outer loop
      vertex -6.688169e+00 9.350080e+00 6.000000e+00
      vertex -4.170297e+00 -7.029813e+00 6.000000e+00
      vertex -6.632801e+00 1.022939e+01 6.000000e+00
    endloop
  endfacet
  facet normal 0.000000e+00 0.000000e+00 1.000000e+00
    outer loop
      vertex -6.632801e+00 1.022939e+01 6.000000e+00
      vertex -4.170297e+00 -7.029813e+00 6.000000e+00
      vertex -6.533767e+00 2.766310e+01 6.000000e+00
    endloop
  endfacet
  facet normal 0.000000e+00 0.000000e+00 1.000000e+00
    outer loop
      vertex -6.533767e+00 2.766310e+01 6.000000e+00
      vertex -4.170297e+00 -7.029813e+00 6.000000e+00
      vertex -2.080327e+00 2.616412e+01 6.000000e+00
    endloop
  endfacet
  facet normal 0.000000e+00 0.000000e+00 1.000000e+00
    outer loop
      vertex -2.080327e+00 2.616412e+01 6.000000e+00
      vertex -4.170297e+00 -7.029813e+00 6.000000e+00
      vertex 3.870368e-02 -4.940697e+00 6.000000e+00
    endloop
  endfacet
  facet normal 0.000000e+00 0.000000e+00 1.000000e+00
    outer loop
      vertex -2.080327e+00 2.616412e+01 6.000000e+00
      vertex 3.870368e-02 -4.940697e+00 6.000000e+00
      vertex 1.833402e+00 2.356358e+01 6.000000e+00
    endloop
  endfacet
  facet normal 0.000000e+00 0.000000e+00 1.000000e+00
    outer loop
      vertex 1.833402e+00 2.356358e+01 6.000000e+00
      vertex 3.870368e-02 -4.940697e+00 6.000000e+00
      vertex 3.563577e+00 -1.833397e+00 6.000000e+00
    endloop
  endfacet
  facet normal 0.000000e+00 0.000000e+00 1.000000e+00
    outer loop
      vertex 1.833402e+00 2.356358e+01 6.000000e+00
      vertex 3.563577e+00 -1.833397e+00 6.000000e+00
      vertex 4.940702e+00 2.003870e+01 6.000000e+00
    endloop
  endfacet
  facet normal 0.000000e+00 0.000000e+00 1.000000e+00
    outer loop
      vertex 4.940702e+00 2.003870e+01 6.000000e+00
      vertex 3.563577e+00 -1.833397e+00 6.000000e+00
      vertex 6.164118e+00 2.080328e+00 6.000000e+00
    endloop
  endfacet
  facet normal 0.000000e+00 0.000000e+00 1.000000e+00
    outer loop
      vertex 4.940702e+00 2.003870e+01 6.000000e+00
      vertex 6.164118e+00 2.080328e+00 6.000000e+00
      vertex 7.029814e+00 1.582971e+01 6.000000e+00
    endloop
  endfacet
  facet normal 0.000000e+00 0.000000e+00 1.000000e+00
    outer loop
      vertex 7.029814e+00 1.582971e+01 6.000000e+00
      vertex 6.164118e+00 2.080328e+00 6.000000e+00
      vertex 7.663108e+00 6.533764e+00 6.000000e+00
    endloop
  endfacet
  facet normal 0.000000e+00 0.000000e+00 1.000000e+00
    outer loop
      vertex 7.029814e+00 1.582971e+01 6.000000e+00
      vertex 7.663108e+00 6.533764e+00 6.000000e+00
      vertex 7.958373e+00 1.122342e+01 6.000000e+00
    endloop
  endfacet
  facet normal 0.000000e+00 0.000000e+00 1.000000e+00
    outer loop
      vertex -1.582970e+01 2.702981e+01 6.000000e+00
      vertex -1.576155e+01 -3.391142e+00 6.000000e+00
      vertex -1.122342e+01 2.795838e+01 6.000000e+00
    endloop
  endfacet
  facet normal 0.000000e+00 0.000000e+00 1.000000e+00
    outer loop
      vertex -1.576155e+01 -3.391142e+00 6.000000e+00
      vertex -1.582970e+01 2.702981e+01 6.000000e+00
      vertex -1.581199e+01 -4.192293e+00 6.000000e+00
    endloop
  endfacet
  facet normal 0.000000e+00 0.000000e+00 1.000000e+00
    outer loop
      vertex -1.122342e+01 2.795838e+01 6.000000e+00
      vertex -1.576155e+01 -3.391142e+00 6.000000e+00
      vertex -1.550547e+01 -2.630346e+00 6.000000e+00
    endloop
  endfacet
  facet normal 0.000000e+00 0.000000e+00 1.000000e+00
    outer loop
      vertex -1.122342e+01 2.795838e+01 6.000000e+00
      vertex -1.550547e+01 -2.630346e+00 6.000000e+00
      vertex -1.506121e+01 -1.961750e+00 6.000000e+00
    endloop
  endfacet
  facet normal 0.000000e+00 0.000000e+00 1.000000e+00
    outer loop
      vertex -1.122342e+01 2.795838e+01 6.000000e+00
      vertex -1.506121e+01 -1.961750e+00 6.000000e+00
      vertex -1.331183e+01 1.064992e+01 6.000000e+00
    endloop
  endfacet
  facet normal 0.000000e+00 0.000000e+00 1.000000e+00
    outer loop
      vertex -1.331183e+01 1.064992e+01 6.000000e+00
      vertex -1.506121e+01 -1.961750e+00 6.000000e+00
      vertex -1.445904e+01 -1.430923e+00 6.000000e+00
    endloop
  endfacet
  facet normal 0.000000e+00 0.000000e+00 1.000000e+00
    outer loop
      vertex -1.331183e+01 1.064992e+01 6.000000e+00
      vertex -1.445904e+01 -1.430923e+00 6.000000e+00
      vertex -1.336719e+01 9.770608e+00 6.000000e+00
    endloop
  endfacet
  facet normal 0.000000e+00 0.000000e+00 1.000000e+00
    outer loop
      vertex -1.336719e+01 9.770608e+00 6.000000e+00
      vertex -1.445904e+01 -1.430923e+00 6.000000e+00
      vertex -1.374001e+01 -1.074032e+00 6.000000e+00
    endloop
  endfacet
  facet normal 0.000000e+00 0.000000e+00 1.000000e+00
    outer loop
      vertex -1.122342e+01 2.795838e+01 6.000000e+00
      vertex -1.331183e+01 1.064992e+01 6.000000e+00
      vertex -1.303077e+01 1.148494e+01 6.000000e+00
    endloop
  endfacet
  facet normal 0.000000e+00 0.000000e+00 1.000000e+00
    outer loop
      vertex -1.122342e+01 2.795838e+01 6.000000e+00
      vertex -1.303077e+01 1.148494e+01 6.000000e+00
      vertex -1.254317e+01 1.221876e+01 6.000000e+00
    endloop
  endfacet
  facet normal 0.000000e+00 0.000000e+00 1.000000e+00
    outer loop
      vertex -1.122342e+01 2.795838e+01 6.000000e+00
      vertex -1.254317e+01 1.221876e+01 6.000000e+00
      vertex -1.188226e+01 1.280138e+01 6.000000e+00
    endloop
  endfacet
  facet normal 0.000000e+00 0.000000e+00 1.000000e+00
    outer loop
      vertex -1.122342e+01 2.795838e+01 6.000000e+00
      vertex -1.188226e+01 1.280138e+01 6.000000e+00
      vertex -1.109307e+01 1.319309e+01 6.000000e+00
    endloop
  endfacet
  facet normal 0.000000e+00 0.000000e+00 1.000000e+00
    outer loop
      vertex -1.122342e+01 2.795838e+01 6.000000e+00
      vertex -1.109307e+01 1.319309e+01 6.000000e+00
      vertex -6.533767e+00 2.766310e+01 6.000000e+00
    endloop
  endfacet
  facet normal 0.000000e+00 0.000000e+00 1.000000e+00
    outer loop
      vertex -6.533767e+00 2.766310e+01 6.000000e+00
      vertex -1.109307e+01 1.319309e+01 6.000000e+00
      vertex -1.022939e+01 1.336720e+01 6.000000e+00
    endloop
  endfacet
  facet normal 0.000000e+00 0.000000e+00 1.000000e+00
    outer loop
      vertex -6.533767e+00 2.766310e+01 6.000000e+00
      vertex -1.022939e+01 1.336720e+01 6.000000e+00
      vertex -9.350079e+00 1.331183e+01 6.000000e+00
    endloop
  endfacet
  facet normal 0.000000e+00 0.000000e+00 1.000000e+00
    outer loop
      vertex -6.533767e+00 2.766310e+01 6.000000e+00
      vertex -9.350079e+00 1.331183e+01 6.000000e+00
      vertex -8.515061e+00 1.303077e+01 6.000000e+00
    endloop
  endfacet
  facet normal 0.000000e+00 0.000000e+00 1.000000e+00
    outer loop
      vertex -6.533767e+00 2.766310e+01 6.000000e+00
      vertex -8.515061e+00 1.303077e+01 6.000000e+00
      vertex -7.781237e+00 1.254317e+01 6.000000e+00
    endloop
  endfacet
  facet normal 0.000000e+00 0.000000e+00 1.000000e+00
    outer loop
      vertex -6.533767e+00 2.766310e+01 6.000000e+00
      vertex -7.781237e+00 1.254317e+01 6.000000e+00
      vertex -7.198619e+00 1.188226e+01 6.000000e+00
    endloop
  endfacet
  facet normal 0.000000e+00 0.000000e+00 1.000000e+00
    outer loop
      vertex -6.533767e+00 2.766310e+01 6.000000e+00
      vertex -7.198619e+00 1.188226e+01 6.000000e+00
      vertex -6.806909e+00 1.109307e+01 6.000000e+00
    endloop
  endfacet
  facet normal 0.000000e+00 0.000000e+00 1.000000e+00
    outer loop
      vertex -6.533767e+00 2.766310e+01 6.000000e+00
      vertex -6.806909e+00 1.109307e+01 6.000000e+00
      vertex -6.632801e+00 1.022939e+01 6.000000e+00
    endloop
  endfacet
  facet normal 0.000000e+00 0.000000e+00 1.000000e+00
    outer loop
      vertex -1.295310e+01 -9.154025e-01 6.000000e+00
      vertex -1.336719e+01 9.770608e+00 6.000000e+00
      vertex -1.374001e+01 -1.074032e+00 6.000000e+00
    endloop
  endfacet
  facet normal 0.000000e+00 0.000000e+00 1.000000e+00
    outer loop
      vertex -1.336719e+01 9.770608e+00 6.000000e+00
      vertex -1.295310e+01 -9.154025e-01 6.000000e+00
      vertex -1.319309e+01 8.906929e+00 6.000000e+00
    endloop
  endfacet
  facet normal 0.000000e+00 0.000000e+00 1.000000e+00
    outer loop
      vertex -1.319309e+01 8.906929e+00 6.000000e+00
      vertex -1.295310e+01 -9.154025e-01 6.000000e+00
      vertex -1.280138e+01 8.117741e+00 6.000000e+00
    endloop
  endfacet
  facet normal 0.000000e+00 0.000000e+00 1.000000e+00
    outer loop
      vertex -1.280138e+01 8.117741e+00 6.000000e+00
      vertex -1.295310e+01 -9.154025e-01 6.000000e+00
      vertex -1.215195e+01 -9.658423e-01 6.000000e+00
    endloop
  endfacet
  facet normal 0.000000e+00 0.000000e+00 1.000000e+00
    outer loop
      vertex -1.280138e+01 8.117741e+00 6.000000e+00
      vertex -1.215195e+01 -9.658423e-01 6.000000e+00
      vertex -1.221876e+01 7.456827e+00 6.000000e+00
    endloop
  endfacet
  facet normal 0.000000e+00 0.000000e+00 1.000000e+00
    outer loop
      vertex -1.221876e+01 7.456827e+00 6.000000e+00
      vertex -1.215195e+01 -9.658423e-01 6.000000e+00
      vertex -1.148494e+01 6.969226e+00 6.000000e+00
    endloop
  endfacet
  facet normal 0.000000e+00 0.000000e+00 1.000000e+00
    outer loop
      vertex -1.148494e+01 6.969226e+00 6.000000e+00
      vertex -1.215195e+01 -9.658423e-01 6.000000e+00
      vertex -1.139115e+01 -1.221922e+00 6.000000e+00
    endloop
  endfacet
  facet normal 0.000000e+00 0.000000e+00 1.000000e+00
    outer loop
      vertex -1.148494e+01 6.969226e+00 6.000000e+00
      vertex -1.139115e+01 -1.221922e+00 6.000000e+00
      vertex -1.064992e+01 6.688167e+00 6.000000e+00
    endloop
  endfacet
  facet normal 0.000000e+00 0.000000e+00 1.000000e+00
    outer loop
      vertex -1.064992e+01 6.688167e+00 6.000000e+00
      vertex -1.139115e+01 -1.221922e+00 6.000000e+00
      vertex -1.072256e+01 -1.666178e+00 6.000000e+00
    endloop
  endfacet
  facet normal 0.000000e+00 0.000000e+00 1.000000e+00
    outer loop
      vertex -1.064992e+01 6.688167e+00 6.000000e+00
      vertex -1.072256e+01 -1.666178e+00 6.000000e+00
      vertex -1.019174e+01 -2.268344e+00 6.000000e+00
    endloop
  endfacet
  facet normal 0.000000e+00 0.000000e+00 1.000000e+00
    outer loop
      vertex -1.064992e+01 6.688167e+00 6.000000e+00
      vertex -1.019174e+01 -2.268344e+00 6.000000e+00
      vertex -9.770607e+00 6.632806e+00 6.000000e+00
    endloop
  endfacet
  facet normal 0.000000e+00 0.000000e+00 1.000000e+00
    outer loop
      vertex -9.770607e+00 6.632806e+00 6.000000e+00
      vertex -1.019174e+01 -2.268344e+00 6.000000e+00
      vertex -9.834844e+00 -2.987384e+00 6.000000e+00
    endloop
  endfacet
  facet normal 0.000000e+00 0.000000e+00 1.000000e+00
    outer loop
      vertex -9.770607e+00 6.632806e+00 6.000000e+00
      vertex -9.834844e+00 -2.987384e+00 6.000000e+00
      vertex -9.676214e+00 -3.774290e+00 6.000000e+00
    endloop
  endfacet
  facet normal 0.000000e+00 0.000000e+00 1.000000e+00
    outer loop
      vertex -9.770607e+00 6.632806e+00 6.000000e+00
      vertex -9.676214e+00 -3.774290e+00 6.000000e+00
      vertex -8.906928e+00 6.806910e+00 6.000000e+00
    endloop
  endfacet
  facet normal 7.501425e-01 6.612763e-01 0.000000e+00
    outer loop
      vertex -1.529647e+01 -5.698235e+00 0.000000e+00
      vertex -1.476564e+01 -6.300402e+00 6.000000e+00
      vertex -1.476564e+01 -6.300402e+00 0.000000e+00
    endloop
  endfacet
  facet normal 7.501425e-01 6.612763e-01 0.000000e+00
    outer loop
      vertex -1.476564e+01 -6.300402e+00 6.000000e+00
      vertex -1.529647e+01 -5.698235e+00 0.000000e+00
      vertex -1.529647e+01 -5.698235e+00 6.000000e+00
    endloop
  endfacet
  facet normal -7.501425e-01 -6.612763e-01 -0.000000e+00
    outer loop
      vertex -7.781237e+00 1.254317e+01 6.000000e+00
      vertex -7.198619e+00 1.188226e+01 0.000000e+00
      vertex -7.198619e+00 1.188226e+01 6.000000e+00
    endloop
  endfacet
  facet normal -7.501425e-01 -6.612763e-01 -0.000000e+00
    outer loop
      vertex -7.198619e+00 1.188226e+01 0.000000e+00
      vertex -7.781237e+00 1.254317e+01 6.000000e+00
      vertex -7.781237e+00 1.254317e+01 0.000000e+00
    endloop
  endfacet
  facet normal -8.328950e-01 5.534311e-01 0.000000e+00
    outer loop
      vertex -6.969229e+00 8.515062e+00 6.000000e+00
      vertex -7.456826e+00 7.781238e+00 0.000000e+00
      vertex -7.456826e+00 7.781238e+00 6.000000e+00
    endloop
  endfacet
  facet normal -8.328950e-01 5.534311e-01 0.000000e+00
    outer loop
      vertex -7.456826e+00 7.781238e+00 0.000000e+00
      vertex -6.969229e+00 8.515062e+00 6.000000e+00
      vertex -6.969229e+00 8.515062e+00 0.000000e+00
    endloop
  endfacet
  facet normal 1.976108e-01 -9.802806e-01 0.000000e+00
    outer loop
      vertex -1.177249e+01 -6.821595e+00 2.850000e+01
      vertex -1.254020e+01 -6.976354e+00 0.000000e+00
      vertex -1.177249e+01 -6.821595e+00 0.000000e+00
    endloop
  endfacet
  facet normal 1.976108e-01 -9.802806e-01 0.000000e+00
    outer loop
      vertex -1.254020e+01 -6.976354e+00 0.000000e+00
      vertex -1.177249e+01 -6.821595e+00 2.850000e+01
      vertex -1.254020e+01 -6.976354e+00 2.850000e+01
    endloop
  endfacet
  facet normal 8.328950e-01 -5.534311e-01 0.000000e+00
    outer loop
      vertex -1.506121e+01 -1.961750e+00 0.000000e+00
      vertex -1.550547e+01 -2.630346e+00 6.000000e+00
      vertex -1.550547e+01 -2.630346e+00 0.000000e+00
    endloop
  endfacet
  facet normal 8.328950e-01 -5.534311e-01 0.000000e+00
    outer loop
      vertex -1.550547e+01 -2.630346e+00 6.000000e+00
      vertex -1.506121e+01 -1.961750e+00 0.000000e+00
      vertex -1.506121e+01 -1.961750e+00 6.000000e+00
    endloop
  endfacet
  facet normal 4.445927e-01 -8.957329e-01 0.000000e+00
    outer loop
      vertex 3.870368e-02 -4.940697e+00 6.000000e+00
      vertex -4.170297e+00 -7.029813e+00 0.000000e+00
      vertex 3.870368e-02 -4.940697e+00 0.000000e+00
    endloop
  endfacet
  facet normal 4.445927e-01 -8.957329e-01 0.000000e+00
    outer loop
      vertex -4.170297e+00 -7.029813e+00 0.000000e+00
      vertex 3.870368e-02 -4.940697e+00 6.000000e+00
      vertex -4.170297e+00 -7.029813e+00 6.000000e+00
    endloop
  endfacet
endsolid Default
