solid OpenSCAD_Model
  facet normal -0 0 -1
    outer loop
      vertex -7.5 0 0
      vertex -7.24444 1.94114 0
      vertex -7.24444 -1.94114 0
    endloop
  endfacet
  facet normal 0 -0 -1
    outer loop
      vertex -7.24444 -1.94114 0
      vertex -7.24444 1.94114 0
      vertex -6.49519 3.75 0
    endloop
  endfacet
  facet normal 0 0 -1
    outer loop
      vertex -7.24444 -1.94114 0
      vertex -6.49519 3.75 0
      vertex -5.3033 5.3033 0
    endloop
  endfacet
  facet normal 0 0 -1
    outer loop
      vertex -7.24444 -1.94114 0
      vertex -5.3033 5.3033 0
      vertex -3.75 6.49519 0
    endloop
  endfacet
  facet normal 0 0 -1
    outer loop
      vertex -7.24444 -1.94114 0
      vertex -3.75 6.49519 0
      vertex -1.94114 7.24444 0
    endloop
  endfacet
  facet normal 0 0 -1
    outer loop
      vertex -7.24444 -1.94114 0
      vertex -1.94114 7.24444 0
      vertex 0 7.5 0
    endloop
  endfacet
  facet normal 0 0 -1
    outer loop
      vertex -7.24444 -1.94114 0
      vertex 0 7.5 0
      vertex 1.94114 7.24444 0
    endloop
  endfacet
  facet normal 0 0 -1
    outer loop
      vertex -7.24444 -1.94114 0
      vertex 1.94114 7.24444 0
      vertex 3.75 6.49519 0
    endloop
  endfacet
  facet normal 0 0 -1
    outer loop
      vertex 0 2.5 0
      vertex 3.75 6.49519 0
      vertex 5.3033 5.3033 0
    endloop
  endfacet
  facet normal 0 0 -1
    outer loop
      vertex 1.76777 1.76777 0
      vertex 6.49519 3.75 0
      vertex 7.24444 1.94114 0
    endloop
  endfacet
  facet normal -0 0 -1
    outer loop
      vertex 2.5 0 0
      vertex 7.24444 1.94114 0
      vertex 7.5 0 0
    endloop
  endfacet
  facet normal -0 0 -1
    outer loop
      vertex 1.76777 -1.76777 0
      vertex 7.5 0 0
      vertex 7.24444 -1.94114 0
    endloop
  endfacet
  facet normal -0 0 -1
    outer loop
      vertex 0 -2.5 0
      vertex 7.24444 -1.94114 0
      vertex 6.49519 -3.75 0
    endloop
  endfacet
  facet normal 0 0 -1
    outer loop
      vertex -7.24444 -1.94114 0
      vertex 6.49519 -3.75 0
      vertex 5.3033 -5.3033 0
    endloop
  endfacet
  facet normal 0 0 -1
    outer loop
      vertex -7.24444 -1.94114 0
      vertex 5.3033 -5.3033 0
      vertex 3.75 -6.49519 0
    endloop
  endfacet
  facet normal 0 0 -1
    outer loop
      vertex -7.24444 -1.94114 0
      vertex 3.75 -6.49519 0
      vertex 1.94114 -7.24444 0
    endloop
  endfacet
  facet normal 0 0 -1
    outer loop
      vertex -7.24444 -1.94114 0
      vertex 1.94114 -7.24444 0
      vertex 0 -7.5 0
    endloop
  endfacet
  facet normal 0 0 -1
    outer loop
      vertex -7.24444 -1.94114 0
      vertex 0 -7.5 0
      vertex -1.94114 -7.24444 0
    endloop
  endfacet
  facet normal 0 0 -1
    outer loop
      vertex -7.24444 -1.94114 0
      vertex -1.94114 -7.24444 0
      vertex -3.75 -6.49519 0
    endloop
  endfacet
  facet normal 0 0 -1
    outer loop
      vertex -7.24444 -1.94114 0
      vertex -3.75 -6.49519 0
      vertex -5.3033 -5.3033 0
    endloop
  endfacet
  facet normal 0 0 -1
    outer loop
      vertex -7.24444 -1.94114 0
      vertex -5.3033 -5.3033 0
      vertex -6.49519 -3.75 0
    endloop
  endfacet
  facet normal 0 0 -1
    outer loop
      vertex -1.76777 -1.76777 0
      vertex -7.24444 -1.94114 0
      vertex -2.5 0 0
    endloop
  endfacet
  facet normal 0 0 -1
    outer loop
      vertex 0 -2.5 0
      vertex -7.24444 -1.94114 0
      vertex -1.76777 -1.76777 0
    endloop
  endfacet
  facet normal 0 0 -1
    outer loop
      vertex 1.76777 -1.76777 0
      vertex 7.24444 -1.94114 0
      vertex 0 -2.5 0
    endloop
  endfacet
  facet normal 0 0 -1
    outer loop
      vertex -7.24444 -1.94114 0
      vertex 0 -2.5 0
      vertex 6.49519 -3.75 0
    endloop
  endfacet
  facet normal 0 0 -1
    outer loop
      vertex 2.5 0 0
      vertex 7.5 0 0
      vertex 1.76777 -1.76777 0
    endloop
  endfacet
  facet normal -0 0 -1
    outer loop
      vertex 0 2.5 0
      vertex 6.49519 3.75 0
      vertex 1.76777 1.76777 0
    endloop
  endfacet
  facet normal 0 0 -1
    outer loop
      vertex -1.76777 1.76777 0
      vertex 3.75 6.49519 0
      vertex 0 2.5 0
    endloop
  endfacet
  facet normal -0 0 -1
    outer loop
      vertex 1.76777 1.76777 0
      vertex 7.24444 1.94114 0
      vertex 2.5 0 0
    endloop
  endfacet
  facet normal 0 0 -1
    outer loop
      vertex -7.24444 -1.94114 0
      vertex 3.75 6.49519 0
      vertex -1.76777 1.76777 0
    endloop
  endfacet
  facet normal 0 -0 -1
    outer loop
      vertex -2.5 0 0
      vertex -7.24444 -1.94114 0
      vertex -1.76777 1.76777 0
    endloop
  endfacet
  facet normal 0 0 -1
    outer loop
      vertex 0 2.5 0
      vertex 5.3033 5.3033 0
      vertex 6.49519 3.75 0
    endloop
  endfacet
  facet normal -0.991445 0.130526 0
    outer loop
      vertex -7.5 0 0
      vertex -7.5 0 8
      vertex -7.24444 1.94114 0
    endloop
  endfacet
  facet normal -0.991445 0.130526 0
    outer loop
      vertex -7.24444 1.94114 0
      vertex -7.5 0 8
      vertex -7.24444 1.94114 8
    endloop
  endfacet
  facet normal -0.991445 -0.130526 -0
    outer loop
      vertex -7.5 0 0
      vertex -7.24444 -1.94114 0
      vertex -7.5 0 8
    endloop
  endfacet
  facet normal -0.991445 -0.130526 0
    outer loop
      vertex -7.5 0 8
      vertex -7.24444 -1.94114 0
      vertex -7.24444 -1.94114 8
    endloop
  endfacet
  facet normal -0.92388 -0.382683 -0
    outer loop
      vertex -7.24444 -1.94114 0
      vertex -6.49519 -3.75 0
      vertex -7.24444 -1.94114 8
    endloop
  endfacet
  facet normal -0.92388 -0.382683 0
    outer loop
      vertex -7.24444 -1.94114 8
      vertex -6.49519 -3.75 0
      vertex -6.49519 -3.75 8
    endloop
  endfacet
  facet normal -0.793353 -0.608762 -0
    outer loop
      vertex -6.49519 -3.75 0
      vertex -5.3033 -5.3033 0
      vertex -6.49519 -3.75 8
    endloop
  endfacet
  facet normal -0.793353 -0.608762 0
    outer loop
      vertex -6.49519 -3.75 8
      vertex -5.3033 -5.3033 0
      vertex -5.3033 -5.3033 8
    endloop
  endfacet
  facet normal -0.608762 -0.793353 0
    outer loop
      vertex -5.3033 -5.3033 8
      vertex -5.3033 -5.3033 0
      vertex -3.75 -6.49519 0
    endloop
  endfacet
  facet normal -0.608762 -0.793353 0
    outer loop
      vertex -3.75 -6.49519 8
      vertex -5.3033 -5.3033 8
      vertex -3.75 -6.49519 0
    endloop
  endfacet
  facet normal -0.382683 -0.92388 0
    outer loop
      vertex -3.75 -6.49519 8
      vertex -3.75 -6.49519 0
      vertex -1.94114 -7.24444 0
    endloop
  endfacet
  facet normal -0.382683 -0.92388 0
    outer loop
      vertex -1.94114 -7.24444 8
      vertex -3.75 -6.49519 8
      vertex -1.94114 -7.24444 0
    endloop
  endfacet
  facet normal -0.130526 -0.991445 0
    outer loop
      vertex -1.94114 -7.24444 8
      vertex -1.94114 -7.24444 0
      vertex 0 -7.5 0
    endloop
  endfacet
  facet normal -0.130526 -0.991445 0
    outer loop
      vertex 0 -7.5 8
      vertex -1.94114 -7.24444 8
      vertex 0 -7.5 0
    endloop
  endfacet
  facet normal 0.130526 -0.991445 0
    outer loop
      vertex 0 -7.5 8
      vertex 0 -7.5 0
      vertex 1.94114 -7.24444 0
    endloop
  endfacet
  facet normal 0.130526 -0.991445 0
    outer loop
      vertex 1.94114 -7.24444 8
      vertex 0 -7.5 8
      vertex 1.94114 -7.24444 0
    endloop
  endfacet
  facet normal 0.382683 -0.92388 0
    outer loop
      vertex 1.94114 -7.24444 8
      vertex 1.94114 -7.24444 0
      vertex 3.75 -6.49519 0
    endloop
  endfacet
  facet normal 0.382683 -0.92388 0
    outer loop
      vertex 3.75 -6.49519 8
      vertex 1.94114 -7.24444 8
      vertex 3.75 -6.49519 0
    endloop
  endfacet
  facet normal 0.608762 -0.793353 0
    outer loop
      vertex 3.75 -6.49519 8
      vertex 3.75 -6.49519 0
      vertex 5.3033 -5.3033 0
    endloop
  endfacet
  facet normal 0.608762 -0.793353 0
    outer loop
      vertex 5.3033 -5.3033 8
      vertex 3.75 -6.49519 8
      vertex 5.3033 -5.3033 0
    endloop
  endfacet
  facet normal 0.793353 -0.608762 0
    outer loop
      vertex 5.3033 -5.3033 8
      vertex 5.3033 -5.3033 0
      vertex 6.49519 -3.75 0
    endloop
  endfacet
  facet normal 0.793353 -0.608762 0
    outer loop
      vertex 6.49519 -3.75 8
      vertex 5.3033 -5.3033 8
      vertex 6.49519 -3.75 0
    endloop
  endfacet
  facet normal 0.92388 -0.382683 0
    outer loop
      vertex 6.49519 -3.75 8
      vertex 6.49519 -3.75 0
      vertex 7.24444 -1.94114 0
    endloop
  endfacet
  facet normal 0.92388 -0.382683 0
    outer loop
      vertex 7.24444 -1.94114 8
      vertex 6.49519 -3.75 8
      vertex 7.24444 -1.94114 0
    endloop
  endfacet
  facet normal 0.991445 -0.130526 0
    outer loop
      vertex 7.24444 -1.94114 8
      vertex 7.24444 -1.94114 0
      vertex 7.5 0 0
    endloop
  endfacet
  facet normal 0.991445 -0.130526 0
    outer loop
      vertex 7.5 0 8
      vertex 7.24444 -1.94114 8
      vertex 7.5 0 0
    endloop
  endfacet
  facet normal 0.991445 0.130526 0
    outer loop
      vertex 7.5 0 0
      vertex 7.24444 1.94114 0
      vertex 7.24444 1.94114 8
    endloop
  endfacet
  facet normal 0.991445 0.130526 -0
    outer loop
      vertex 7.5 0 8
      vertex 7.5 0 0
      vertex 7.24444 1.94114 8
    endloop
  endfacet
  facet normal 0.92388 0.382683 0
    outer loop
      vertex 7.24444 1.94114 0
      vertex 6.49519 3.75 0
      vertex 6.49519 3.75 8
    endloop
  endfacet
  facet normal 0.92388 0.382683 -0
    outer loop
      vertex 7.24444 1.94114 8
      vertex 7.24444 1.94114 0
      vertex 6.49519 3.75 8
    endloop
  endfacet
  facet normal 0.793353 0.608762 0
    outer loop
      vertex 6.49519 3.75 0
      vertex 5.3033 5.3033 0
      vertex 5.3033 5.3033 8
    endloop
  endfacet
  facet normal 0.793353 0.608762 -0
    outer loop
      vertex 6.49519 3.75 8
      vertex 6.49519 3.75 0
      vertex 5.3033 5.3033 8
    endloop
  endfacet
  facet normal 0.608762 0.793353 0
    outer loop
      vertex 3.75 6.49519 0
      vertex 3.75 6.49519 8
      vertex 5.3033 5.3033 0
    endloop
  endfacet
  facet normal 0.608762 0.793353 0
    outer loop
      vertex 5.3033 5.3033 0
      vertex 3.75 6.49519 8
      vertex 5.3033 5.3033 8
    endloop
  endfacet
  facet normal 0.382683 0.92388 0
    outer loop
      vertex 1.94114 7.24444 0
      vertex 1.94114 7.24444 8
      vertex 3.75 6.49519 0
    endloop
  endfacet
  facet normal 0.382683 0.92388 0
    outer loop
      vertex 3.75 6.49519 0
      vertex 1.94114 7.24444 8
      vertex 3.75 6.49519 8
    endloop
  endfacet
  facet normal 0.130526 0.991445 0
    outer loop
      vertex 0 7.5 0
      vertex 0 7.5 8
      vertex 1.94114 7.24444 0
    endloop
  endfacet
  facet normal 0.130526 0.991445 0
    outer loop
      vertex 1.94114 7.24444 0
      vertex 0 7.5 8
      vertex 1.94114 7.24444 8
    endloop
  endfacet
  facet normal -0.130526 0.991445 0
    outer loop
      vertex -1.94114 7.24444 0
      vertex -1.94114 7.24444 8
      vertex 0 7.5 0
    endloop
  endfacet
  facet normal -0.130526 0.991445 0
    outer loop
      vertex 0 7.5 0
      vertex -1.94114 7.24444 8
      vertex 0 7.5 8
    endloop
  endfacet
  facet normal -0.382683 0.92388 0
    outer loop
      vertex -3.75 6.49519 0
      vertex -3.75 6.49519 8
      vertex -1.94114 7.24444 0
    endloop
  endfacet
  facet normal -0.382683 0.92388 0
    outer loop
      vertex -1.94114 7.24444 0
      vertex -3.75 6.49519 8
      vertex -1.94114 7.24444 8
    endloop
  endfacet
  facet normal -0.608762 0.793353 0
    outer loop
      vertex -5.3033 5.3033 0
      vertex -5.3033 5.3033 8
      vertex -3.75 6.49519 0
    endloop
  endfacet
  facet normal -0.608762 0.793353 0
    outer loop
      vertex -3.75 6.49519 0
      vertex -5.3033 5.3033 8
      vertex -3.75 6.49519 8
    endloop
  endfacet
  facet normal -0.793353 0.608762 0
    outer loop
      vertex -6.49519 3.75 0
      vertex -6.49519 3.75 8
      vertex -5.3033 5.3033 0
    endloop
  endfacet
  facet normal -0.793353 0.608762 0
    outer loop
      vertex -5.3033 5.3033 0
      vertex -6.49519 3.75 8
      vertex -5.3033 5.3033 8
    endloop
  endfacet
  facet normal -0.92388 0.382683 0
    outer loop
      vertex -7.24444 1.94114 0
      vertex -7.24444 1.94114 8
      vertex -6.49519 3.75 0
    endloop
  endfacet
  facet normal -0.92388 0.382683 0
    outer loop
      vertex -6.49519 3.75 0
      vertex -7.24444 1.94114 8
      vertex -6.49519 3.75 8
    endloop
  endfacet
  facet normal 0.92388 0.382683 0
    outer loop
      vertex -2.5 0 8
      vertex -1.76777 -1.76777 8
      vertex -1.76777 -1.76777 0
    endloop
  endfacet
  facet normal 0.92388 0.382683 0
    outer loop
      vertex -2.5 0 0
      vertex -2.5 0 8
      vertex -1.76777 -1.76777 0
    endloop
  endfacet
  facet normal 0.92388 -0.382683 0
    outer loop
      vertex -1.76777 1.76777 0
      vertex -1.76777 1.76777 8
      vertex -2.5 0 8
    endloop
  endfacet
  facet normal 0.92388 -0.382683 0
    outer loop
      vertex -2.5 0 0
      vertex -1.76777 1.76777 0
      vertex -2.5 0 8
    endloop
  endfacet
  facet normal 0.382683 -0.92388 0
    outer loop
      vertex 0 2.5 0
      vertex 0 2.5 8
      vertex -1.76777 1.76777 8
    endloop
  endfacet
  facet normal 0.382683 -0.92388 0
    outer loop
      vertex -1.76777 1.76777 0
      vertex 0 2.5 0
      vertex -1.76777 1.76777 8
    endloop
  endfacet
  facet normal -0.382683 -0.92388 -0
    outer loop
      vertex 1.76777 1.76777 0
      vertex 1.76777 1.76777 8
      vertex 0 2.5 8
    endloop
  endfacet
  facet normal -0.382683 -0.92388 -0
    outer loop
      vertex 0 2.5 0
      vertex 1.76777 1.76777 0
      vertex 0 2.5 8
    endloop
  endfacet
  facet normal -0.92388 -0.382683 0
    outer loop
      vertex 2.5 0 8
      vertex 1.76777 1.76777 8
      vertex 2.5 0 0
    endloop
  endfacet
  facet normal -0.92388 -0.382683 0
    outer loop
      vertex 2.5 0 0
      vertex 1.76777 1.76777 8
      vertex 1.76777 1.76777 0
    endloop
  endfacet
  facet normal -0.92388 0.382683 0
    outer loop
      vertex 2.5 0 8
      vertex 2.5 0 0
      vertex 1.76777 -1.76777 8
    endloop
  endfacet
  facet normal -0.92388 0.382683 0
    outer loop
      vertex 1.76777 -1.76777 8
      vertex 2.5 0 0
      vertex 1.76777 -1.76777 0
    endloop
  endfacet
  facet normal -0.382683 0.92388 0
    outer loop
      vertex 1.76777 -1.76777 8
      vertex 1.76777 -1.76777 0
      vertex 0 -2.5 8
    endloop
  endfacet
  facet normal -0.382683 0.92388 0
    outer loop
      vertex 0 -2.5 8
      vertex 1.76777 -1.76777 0
      vertex 0 -2.5 0
    endloop
  endfacet
  facet normal 0.382683 0.92388 -0
    outer loop
      vertex 0 -2.5 8
      vertex 0 -2.5 0
      vertex -1.76777 -1.76777 8
    endloop
  endfacet
  facet normal 0.382683 0.92388 -0
    outer loop
      vertex -1.76777 -1.76777 8
      vertex 0 -2.5 0
      vertex -1.76777 -1.76777 0
    endloop
  endfacet
  facet normal 0 0 1
    outer loop
      vertex -7.24444 1.94114 8
      vertex -7.5 0 8
      vertex -7.24444 -1.94114 8
    endloop
  endfacet
  facet normal 0 0 1
    outer loop
      vertex -5.3033 -5.3033 8
      vertex -7.24444 1.94114 8
      vertex -6.49519 -3.75 8
    endloop
  endfacet
  facet normal 0 0 1
    outer loop
      vertex -6.49519 -3.75 8
      vertex -7.24444 1.94114 8
      vertex -7.24444 -1.94114 8
    endloop
  endfacet
  facet normal 0 0 1
    outer loop
      vertex -3.75 -6.49519 8
      vertex -7.24444 1.94114 8
      vertex -5.3033 -5.3033 8
    endloop
  endfacet
  facet normal 0 0 1
    outer loop
      vertex -1.94114 -7.24444 8
      vertex -7.24444 1.94114 8
      vertex -3.75 -6.49519 8
    endloop
  endfacet
  facet normal 0 0 1
    outer loop
      vertex 0 -7.5 8
      vertex -7.24444 1.94114 8
      vertex -1.94114 -7.24444 8
    endloop
  endfacet
  facet normal -0 0 1
    outer loop
      vertex 1.94114 -7.24444 8
      vertex -7.24444 1.94114 8
      vertex 0 -7.5 8
    endloop
  endfacet
  facet normal -0 0 1
    outer loop
      vertex 3.75 -6.49519 8
      vertex -7.24444 1.94114 8
      vertex 1.94114 -7.24444 8
    endloop
  endfacet
  facet normal -0 -0 1
    outer loop
      vertex -1.76777 -1.76777 8
      vertex -7.24444 1.94114 8
      vertex 3.75 -6.49519 8
    endloop
  endfacet
  facet normal 0 0 1
    outer loop
      vertex 1.76777 -1.76777 8
      vertex 5.3033 -5.3033 8
      vertex 6.49519 -3.75 8
    endloop
  endfacet
  facet normal 0 -0 1
    outer loop
      vertex 1.76777 -1.76777 8
      vertex 0 -2.5 8
      vertex 5.3033 -5.3033 8
    endloop
  endfacet
  facet normal 0 0 1
    outer loop
      vertex 1.76777 1.76777 8
      vertex 2.5 0 8
      vertex 7.5 0 8
    endloop
  endfacet
  facet normal 0 -0 1
    outer loop
      vertex 5.3033 5.3033 8
      vertex -7.24444 1.94114 8
      vertex 6.49519 3.75 8
    endloop
  endfacet
  facet normal 0 -0 1
    outer loop
      vertex 3.75 6.49519 8
      vertex -7.24444 1.94114 8
      vertex 5.3033 5.3033 8
    endloop
  endfacet
  facet normal 0 -0 1
    outer loop
      vertex 1.94114 7.24444 8
      vertex -7.24444 1.94114 8
      vertex 3.75 6.49519 8
    endloop
  endfacet
  facet normal 0 -0 1
    outer loop
      vertex 0 7.5 8
      vertex -7.24444 1.94114 8
      vertex 1.94114 7.24444 8
    endloop
  endfacet
  facet normal 0 -0 1
    outer loop
      vertex -1.94114 7.24444 8
      vertex -7.24444 1.94114 8
      vertex 0 7.5 8
    endloop
  endfacet
  facet normal 0 -0 1
    outer loop
      vertex -3.75 6.49519 8
      vertex -7.24444 1.94114 8
      vertex -1.94114 7.24444 8
    endloop
  endfacet
  facet normal 0 -0 1
    outer loop
      vertex -5.3033 5.3033 8
      vertex -7.24444 1.94114 8
      vertex -3.75 6.49519 8
    endloop
  endfacet
  facet normal 0 -0 1
    outer loop
      vertex -6.49519 3.75 8
      vertex -7.24444 1.94114 8
      vertex -5.3033 5.3033 8
    endloop
  endfacet
  facet normal -0 0 1
    outer loop
      vertex 5.3033 -5.3033 8
      vertex -1.76777 -1.76777 8
      vertex 3.75 -6.49519 8
    endloop
  endfacet
  facet normal 0 0 1
    outer loop
      vertex -2.5 0 8
      vertex -1.76777 1.76777 8
      vertex -7.24444 1.94114 8
    endloop
  endfacet
  facet normal 0 -0 1
    outer loop
      vertex 2.5 0 8
      vertex 1.76777 -1.76777 8
      vertex 7.24444 -1.94114 8
    endloop
  endfacet
  facet normal 0 0 1
    outer loop
      vertex 0 2.5 8
      vertex 1.76777 1.76777 8
      vertex 7.24444 1.94114 8
    endloop
  endfacet
  facet normal 0 -0 1
    outer loop
      vertex 6.49519 3.75 8
      vertex 0 2.5 8
      vertex 7.24444 1.94114 8
    endloop
  endfacet
  facet normal 0 0 1
    outer loop
      vertex 6.49519 3.75 8
      vertex -7.24444 1.94114 8
      vertex 0 2.5 8
    endloop
  endfacet
  facet normal 0 -0 1
    outer loop
      vertex 7.24444 1.94114 8
      vertex 1.76777 1.76777 8
      vertex 7.5 0 8
    endloop
  endfacet
  facet normal 0 0 1
    outer loop
      vertex 7.5 0 8
      vertex 2.5 0 8
      vertex 7.24444 -1.94114 8
    endloop
  endfacet
  facet normal 0 0 1
    outer loop
      vertex -1.76777 1.76777 8
      vertex 0 2.5 8
      vertex -7.24444 1.94114 8
    endloop
  endfacet
  facet normal -0 0 1
    outer loop
      vertex 7.24444 -1.94114 8
      vertex 1.76777 -1.76777 8
      vertex 6.49519 -3.75 8
    endloop
  endfacet
  facet normal 0 0 1
    outer loop
      vertex 5.3033 -5.3033 8
      vertex 0 -2.5 8
      vertex -1.76777 -1.76777 8
    endloop
  endfacet
  facet normal 0 0 1
    outer loop
      vertex -1.76777 -1.76777 8
      vertex -2.5 0 8
      vertex -7.24444 1.94114 8
    endloop
  endfacet
endsolid OpenSCAD_Model
